<!-- Generated by IcoMoon.io -->
<svg version="1.1" xmlns="http://www.w3.org/2000/svg" width="1110" height="1024" viewBox="0 0 1110 1024">
<title></title>
<g id="icomoon-ignore">
</g>
<path fill="#000" d="M58.114 615.202l-50.098-50.098c-8.016-8.016-8.016-22.043 0-32.063l531.037-527.029c8.016-8.016 24.047-8.016 32.063 0l533.041 529.033c8.016 8.016 8.016 22.043 0 32.063l-50.098 50.098c-8.016 8.016-24.047 8.016-32.063 0l-450.881-450.881c-8.016-8.016-24.047-8.016-32.063 0l-448.877 448.877c-10.020 10.020-24.047 10.020-32.063 0z"></path>
<path fill="#000" d="M571.115 236.462c-8.016-8.016-22.043-8.016-32.063 0l-362.708 364.712c-10.020 10.020-16.031 26.051-16.031 40.078v360.705c0 12.023 10.020 22.043 22.043 22.043h196.384c12.023 0 22.043-10.020 22.043-22.043v-276.54c0-26.051 12.023-46.090 24.047-46.090h258.505c14.027 0 24.047 20.039 24.047 46.090v276.54c0 12.023 10.020 22.043 22.043 22.043h196.384c12.023 0 22.043-10.020 22.043-22.043v-360.705c0-12.023-8.016-30.059-16.031-38.074l-360.705-366.716z"></path>
<path fill="#000" d="M891.742 256.501c0 6.012-4.008 8.016-8.016 4.008l-136.266-142.278c-4.008-4.008-8.016-14.027-8.016-20.039v-48.094c0-8.016 8.016-16.031 16.031-16.031h120.235c8.016 0 16.031 8.016 16.031 16.031v206.403z"></path>
</svg>
