<?xml version="1.0" encoding="utf-8"?>
<!-- Generator: Adobe Illustrator 22.1.0, SVG Export Plug-In . SVG Version: 6.00 Build 0)  -->
<svg version="1.1" id="Layer_1" xmlns="http://www.w3.org/2000/svg" xmlns:xlink="http://www.w3.org/1999/xlink" x="0px" y="0px"
	 viewBox="0 0 130.1 42.4" style="enable-background:new 0 0 130.1 42.4;" xml:space="preserve">
<style type="text/css">
	.Arched_x0020_Green{fill:url(#SVGID_1_);stroke:#FFFFFF;stroke-width:0.25;stroke-miterlimit:1;}
	.st0{fill:#FFFFFF;}
</style>
<linearGradient id="SVGID_1_" gradientUnits="userSpaceOnUse" x1="-0.1476" y1="9.326200e-02" x2="0.5595" y2="-0.6138">
	<stop  offset="0" style="stop-color:#20AC4B"/>
	<stop  offset="0.9831" style="stop-color:#19361A"/>
</linearGradient>
<g>
	<g>
		<path class="st0" d="M59.8,24.3c0,0-0.3,0.2-1,0.2c-0.9,0-1.6-0.5-2-0.8c-0.5-0.4-1.4-0.8-2.3-1.1c-1.7,0-2.8-0.5-3.6-1.6
			c-0.8-1.1-1.3-2.5-1.3-4.1c0-2.4,0.9-4.3,2.5-5.2c0.7-0.4,1.5-0.5,2.3-0.5c3,0,4.8,2.2,4.8,5.7c0,2.4-0.9,4.2-2.2,5.1
			c0.3,0.1,0.7,0.4,1,0.6c0.4,0.2,0.9,0.5,1.4,0.5c0.5,0,1-0.1,1-0.1L59.8,24.3z M56.3,14.3c-0.2-0.6-0.8-1.4-2-1.4
			c-0.8,0-1.4,0.4-1.7,1c-0.4,0.7-0.6,1.7-0.6,3c0,1.9,0.3,3.1,1,3.6c0.4,0.3,0.8,0.4,1.3,0.4c1.6,0,2.2-1.2,2.2-4
			C56.6,15.7,56.5,14.9,56.3,14.3z"/>
		<path class="st0" d="M66.3,22.7c-0.3-0.2-0.5-0.5-0.6-0.8c-0.5,0.5-1.3,0.8-2.2,0.8c-1.2,0-2.1-0.5-2.4-1.3
			c-0.1-0.4-0.2-0.8-0.2-1.6v-5.3L63,14v5.3c0,0.7,0.1,1.1,0.2,1.3c0.1,0.2,0.4,0.4,0.8,0.4c0.5,0,1.2-0.4,1.3-0.8v-5.8l2-0.4v6.3
			c0,0.5,0.2,1.1,0.5,1.5L66.3,22.7z"/>
		<path class="st0" d="M71.4,19L71.4,19c0,1.3,0.6,2,1.7,2c0.7,0,1.4-0.3,2.1-0.8l0.8,1.3c-0.9,0.8-1.9,1.1-3.1,1.1
			c-2.4,0-3.9-1.7-3.9-4.2c0-1.5,0.3-2.4,1-3.2c0.7-0.8,1.5-1.1,2.6-1.1c0.9,0,1.8,0.3,2.4,0.9c0.8,0.8,1.1,1.9,1.1,3.6V19H71.4z
			 M73.9,17.3c0-0.6-0.1-0.9-0.3-1.2c-0.2-0.3-0.5-0.5-0.9-0.5c-0.8,0-1.3,0.6-1.3,1.8v0L73.9,17.3L73.9,17.3z"/>
		<path class="st0" d="M79.5,19L79.5,19c0,1.3,0.6,2,1.7,2c0.7,0,1.4-0.3,2.1-0.8l0.8,1.3c-0.9,0.8-1.9,1.1-3.1,1.1
			c-2.4,0-3.9-1.7-3.9-4.2c0-1.5,0.3-2.4,1-3.2c0.7-0.8,1.5-1.1,2.6-1.1c0.9,0,1.8,0.3,2.4,0.9c0.8,0.8,1.1,1.9,1.1,3.6V19H79.5z
			 M82,17.3c0-0.6-0.1-0.9-0.3-1.2c-0.2-0.3-0.5-0.5-0.9-0.5c-0.8,0-1.3,0.6-1.3,1.8v0L82,17.3L82,17.3z"/>
		<path class="st0" d="M90.1,22.4v-5.3c0-0.9-0.2-1.2-0.7-1.2c-0.4,0-1,0.3-1.5,0.7v5.8h-2.1v-5.9c0-0.7-0.1-1.4-0.3-1.9l1.9-0.5
			c0.2,0.3,0.3,0.7,0.3,1c0.3-0.2,0.6-0.4,0.9-0.6c0.4-0.2,1-0.4,1.5-0.4c0.9,0,1.7,0.5,2,1.2c0.1,0.3,0.2,0.7,0.2,1.2v6H90.1z"/>
		<path class="st0" d="M96.9,22.7c-1,0-2.1-0.3-3.3-0.9l0.8-1.6c0.7,0.4,1.8,0.9,2.7,0.9c0.6,0,1.1-0.4,1.1-0.9c0-0.6-0.4-0.8-1.3-1
			l-1-0.2c-0.5-0.1-1.2-0.5-1.5-0.8c-0.3-0.4-0.5-0.9-0.5-1.5c0-1.6,1.3-2.7,3.2-2.7c1.3,0,2.2,0.4,2.9,0.8l-0.7,1.4
			c-0.8-0.4-1.4-0.6-2-0.6c-0.6,0-1,0.3-1,0.8c0,0.4,0.3,0.6,1,0.8l1,0.3c1,0.3,1.3,0.6,1.6,0.9c0.3,0.4,0.4,0.8,0.4,1.4
			C100.4,21.5,99,22.7,96.9,22.7z"/>
		<path class="st0" d="M104,22.6c-0.9,0-1.6-0.4-1.9-1.1c-0.2-0.4-0.2-0.7-0.2-1.8v-6.1c0-1.1,0-1.7-0.1-2.5l2.2-0.5
			c0.1,0.4,0.1,1,0.1,2.1v6.4c0,1.4,0,1.6,0.1,1.8c0.1,0.1,0.3,0.2,0.4,0.2c0.1,0,0.1,0,0.2,0l0.4,1.3
			C104.9,22.5,104.5,22.6,104,22.6z"/>
		<path class="st0" d="M111.9,22.8c-0.5-0.2-0.9-0.6-1.2-1c-0.2,0.2-0.3,0.3-0.5,0.4c-0.4,0.3-1,0.4-1.6,0.4c-1.8,0-2.8-0.9-2.8-2.6
			c0-1.9,1.3-2.8,3.9-2.8c0.2,0,0.3,0,0.5,0V17c0-0.9-0.2-1.2-1-1.2c-0.7,0-1.5,0.3-2.4,0.9l-0.9-1.5c0.4-0.3,0.8-0.4,1.3-0.7
			c0.8-0.3,1.5-0.5,2.2-0.5c1.4,0,2.3,0.5,2.6,1.4c0.1,0.3,0.2,0.6,0.1,1.5l0,2.8c0,0.9,0,1.3,0.8,1.8L111.9,22.8z M110,18.8
			c-1.5,0-2,0.3-2,1.2c0,0.6,0.4,1.1,0.9,1.1c0.4,0,0.8-0.2,1.1-0.6L110,18.8L110,18.8z"/>
		<path class="st0" d="M118.9,22.4v-5.3c0-0.9-0.2-1.2-0.7-1.2c-0.4,0-1,0.3-1.5,0.7v5.8h-2.1v-5.9c0-0.7-0.1-1.4-0.3-1.9l1.9-0.5
			c0.2,0.3,0.3,0.7,0.3,1c0.3-0.2,0.6-0.4,0.9-0.6c0.4-0.2,1-0.4,1.5-0.4c0.9,0,1.7,0.5,2,1.2c0.1,0.3,0.2,0.7,0.2,1.2v6H118.9z"/>
		<path class="st0" d="M128.1,22.4c-0.1-0.1-0.1-0.3-0.1-0.5c-0.5,0.5-1.2,0.7-1.9,0.7c-2.1,0-3.4-1.6-3.4-4.2
			c0-2.6,1.4-4.3,3.5-4.3c0.6,0,1.1,0.1,1.5,0.5c0-0.2-0.1-0.7-0.1-1.2v-2.8l2.1,0.3v8.5c0,2,0.2,2.7,0.3,3H128.1z M127.6,16.4
			c-0.4-0.4-0.8-0.5-1.2-0.5c-1,0-1.4,0.8-1.4,2.6c0,1.8,0.4,2.3,1.5,2.3c0.4,0,0.8-0.3,1.1-0.5V16.4z"/>
		<path class="st0" d="M54.7,38.1c-1.4,0-2.5-0.5-3.4-1.4c-0.9-1-1.4-2.4-1.4-4.3c0-2.1,0.6-3.6,1.7-4.6c0.8-0.7,1.7-1,2.9-1
			c1.2,0,2.2,0.4,3,1.1l-0.6,0.8c-0.9-0.6-1.5-0.8-2.4-0.8c-1.3,0-2.3,0.6-2.7,1.9c-0.3,0.8-0.4,1.7-0.4,2.8c0,1.4,0.3,2.6,0.8,3.3
			c0.5,0.7,1.6,1.2,2.7,1.2c0.7,0,1.3-0.1,1.7-0.4v-3.3h-2.2l-0.3-1.1h3.7v5.1C57,37.8,55.8,38.1,54.7,38.1z"/>
		<path class="st0" d="M63.4,38.1c-2.2,0-3.4-1.6-3.4-4.2c0-2.6,1.3-4.2,3.4-4.2c1.3,0,2.2,0.6,2.7,1.4c0.5,0.7,0.7,1.7,0.7,3
			C66.8,36.7,65.4,38.1,63.4,38.1z M65,31.8c-0.3-0.7-1-1-1.7-1c-0.7,0-1.4,0.3-1.6,0.9c-0.3,0.5-0.4,1.1-0.4,2.1
			c0,1.1,0.2,2.1,0.5,2.6c0.3,0.5,0.9,0.8,1.6,0.8c0.8,0,1.5-0.4,1.7-1.2c0.2-0.5,0.2-0.9,0.2-1.7C65.4,33,65.2,32.3,65,31.8z"/>
		<path class="st0" d="M71.8,38h-1.2l-2.9-8l1.3-0.3l1.9,5.5c0.2,0.7,0.4,1.4,0.4,1.4h0c0,0,0.1-0.6,0.4-1.3l1.8-5.3h1.3L71.8,38z"
			/>
		<path class="st0" d="M77.2,34.1v0.2c0,0.8,0.1,1.3,0.4,1.7c0.4,0.7,1.2,1,2,1c0.8,0,1.4-0.2,2-0.8l0.5,0.8c-0.7,0.6-1.7,1-2.7,1
			c-2.2,0-3.5-1.6-3.5-4.2c0-1.3,0.3-2.2,1-3c0.6-0.8,1.4-1.1,2.4-1.1c0.9,0,1.6,0.3,2.2,0.9c0.7,0.7,0.9,1.5,0.9,3.4v0.2H77.2z
			 M80.5,31.4c-0.3-0.4-0.8-0.7-1.4-0.7c-1.1,0-1.8,0.8-1.8,2.5h3.7C80.9,32.3,80.7,31.8,80.5,31.4z"/>
		<path class="st0" d="M87.8,31.2c-0.1,0-0.2-0.1-0.4-0.1c-0.5,0-1,0.2-1.3,0.6c-0.4,0.4-0.5,0.6-0.5,1.3v5h-1.2v-6.1
			c0-1.2-0.3-1.7-0.3-1.7l1.2-0.3c0,0,0.3,0.6,0.3,1.3c0.6-0.8,1.4-1.3,2.2-1.3c0.2,0,0.4,0.1,0.4,0.1L87.8,31.2z"/>
		<path class="st0" d="M94.1,37.9v-5.4c0-0.8-0.1-1.1-0.3-1.3c-0.2-0.2-0.5-0.3-0.9-0.3c-0.6,0-1.6,0.5-2.2,1.1v5.9h-1.2v-6.1
			c0-1.1-0.3-1.7-0.3-1.7l1.2-0.3c0,0,0.3,0.6,0.3,1.2c0.8-0.8,1.7-1.2,2.5-1.2c0.9,0,1.6,0.5,2,1.2c0.1,0.3,0.2,0.6,0.2,0.9v6.1
			H94.1z"/>
		<path class="st0" d="M106.5,37.9V32c0-0.8-0.4-1.2-1-1.2c-0.7,0-1.3,0.5-2.1,1.2v5.8h-1.3v-5.7c0-0.5,0-0.8-0.2-1
			c-0.2-0.2-0.4-0.3-0.8-0.3c-0.6,0-1.2,0.3-2,1.1v6h-1.2v-6.2c0-1.2-0.3-1.7-0.3-1.7l1.2-0.3c0,0,0.3,0.6,0.3,1.2
			c0.5-0.6,1.5-1.2,2.3-1.2c0.8,0,1.6,0.5,1.9,1.3c0.8-0.8,1.7-1.3,2.6-1.3c1.2,0,2,0.9,2,2.2v6H106.5z"/>
		<path class="st0" d="M111.3,34.1v0.2c0,0.8,0.1,1.3,0.4,1.7c0.4,0.7,1.2,1,2,1c0.8,0,1.4-0.2,2-0.8l0.5,0.8c-0.7,0.6-1.7,1-2.7,1
			c-2.2,0-3.5-1.6-3.5-4.2c0-1.3,0.3-2.2,1-3c0.6-0.8,1.4-1.1,2.4-1.1c0.9,0,1.6,0.3,2.2,0.9c0.7,0.7,0.9,1.5,0.9,3.4v0.2H111.3z
			 M114.5,31.4c-0.3-0.4-0.8-0.7-1.4-0.7c-1.1,0-1.8,0.8-1.8,2.5h3.6C114.9,32.3,114.8,31.8,114.5,31.4z"/>
		<path class="st0" d="M123.1,37.9v-5.4c0-0.8-0.1-1.1-0.3-1.3c-0.2-0.2-0.5-0.3-0.9-0.3c-0.6,0-1.6,0.5-2.2,1.1v5.9h-1.2v-6.1
			c0-1.1-0.3-1.7-0.3-1.7l1.2-0.3c0,0,0.3,0.6,0.3,1.2c0.8-0.8,1.7-1.2,2.5-1.2c0.9,0,1.6,0.5,2,1.2c0.1,0.3,0.2,0.6,0.2,0.9v6.1
			H123.1z"/>
		<path class="st0" d="M129.7,30.9h-1.7V36c0,0.9,0.2,1.2,1,1.2c0.4,0,0.6,0,0.8-0.2l0.2,0.8c-0.4,0.2-0.8,0.3-1.4,0.3
			c-0.4,0-0.7-0.1-1-0.2c-0.6-0.3-0.8-0.8-0.8-1.6v-5.5h-1V30h1c0-0.8,0.1-2,0.1-2l1.3-0.3c0,0-0.2,1.2-0.2,2.3h2L129.7,30.9z"/>
	</g>
	<g>
		<path class="st0" d="M19.1,13.9c-1,0.1-2,1.4-1.6,2.9c-0.2,0.1-0.6,0.1-0.7-0.3c-0.1,0.5-1.1,1.1-1.8,1c0.4-0.4,0.7-1.4,1.5-1.9
			c0.8-0.5,1.1-0.9,1.4-1.8c-0.4,0.2-2.3,0.7-2.8,0.1c1.3-0.2,2.7-0.9,3.5-1.3l-0.3-0.3c-0.8,0.4-1.8,0.8-2.4,1
			c-0.2-1.6,1.3-1.5,1.4-1.1c0.6-0.7,0.2-1.8-0.3-1.9c0.5-1.3,0-2-0.4-2.5c-0.1,1.3-1.6,1.5-1.8,2.6c-0.1-0.8-0.1-3-0.2-4.1
			c-0.1-2-2.6-2.7-3-2.7C9.9,3.6,9.8,3.4,9.8,2.7C9,3.6,9.3,4.4,10,4.9C9.9,5.4,9,5.9,8.4,6c1.3,1.2,2.9,0.5,3.6-0.2
			c0.1-0.1,0.1-0.1,0.2-0.1c0.3,0.5,0.5,1.3,0.5,1.8c-1.2-0.1-1.5,0.9-1.5,1.2c1.6-0.7,1.8,2.4,2.2,2.9c-0.4,0-1.1-1-2.2-1
			c-1.3-0.1-1.7,0.6-2.2,0.6c0.1,0.9,1.2,1.4,1.9,1.5c-0.4,0.9,0,1.5,0.7,1.8c0-0.8,1.1-1.1,2.2-0.4c1.4,0.8,2.1,0.9,3.2,0.5
			c-0.2,0.4-0.7,0.4-1.3,1c-0.8,0.8-0.9,1.9-1.8,2.3c1.1,0.5,2.8-0.2,3-0.6c0.5,0.3,1.1,0.1,1.2-0.2c-0.8-1.7,0.5-2.7,1-2.6
			C19.1,14.4,19.3,13.9,19.1,13.9L19.1,13.9z M13.3,13.2c-0.6-0.2-1.4-0.4-1.9,0.3c-0.3-0.5,0.1-1.1,0.4-1.3c-1.2,0-1.9-0.4-2.1-0.7
			c0.5-0.2,1.6-0.7,2.5,0c0.6,0.5,1,0.7,1.7,1c0.3-0.3,0.2-0.2,0.3-0.2c-0.6-0.4-0.9-3.8-2.1-3.9c0.2-0.4,0.8-0.4,1.3-0.3
			c0-0.7-0.3-2-0.7-2.7c0.7-0.4,1.2,0,1.4,0.9c0.3,0.9,0,3.3,0.6,5.4l0.4-0.4c-0.2-1.2,1.2-1.7,1.5-2.3c0.1,0.8-0.1,1.2-0.3,1.5
			c0.5,0.1,0.7,0.5,0.6,0.9c-1.2-0.2-1.9,1-1.6,2C14.3,13.5,13.7,13.4,13.3,13.2L13.3,13.2z M9.9,3.9c0.9,0.5,1.2-0.4,3,0.7
			c-1.2,0.4-2,1.8-3.3,1.4c0.9-0.5,0.8-1.1,1.4-1.5C10.6,4.6,9.9,4.4,9.9,3.9L9.9,3.9z"/>
		<path class="st0" d="M31.2,9.3c0-1.9-0.1-3.4-0.1-3.9c0.1,0,0.1,0,0.2,0.1c1.3,0.5,1.6,2.1,4.4,0.3c-1.5,0.2-1.5-1.1-2.2-1.1
			c1-0.6,1.1-1.9,1.1-1.9c-0.9,0.7-2.8,0.7-3.2,1c-0.5,0.3-1.2,0.7-1.6,0.9c-1.1,0.6-0.3,4-0.5,5.3c-0.6-1.8-1.9-1.6-2.5-2.6
			c-0.5,0.9,0,2.4,0.2,2.8c-0.7,0.6-0.5,1.6-0.3,1.9c0.6-0.4,1.5-0.3,1.8,0.4c-0.8,0.5-2.1,0.6-3-0.3l-0.3,0.4
			c0.6,0.9,2.3,1.2,3.5,0.5c0,0.2,0,0.4-0.1,0.7c-0.6,0.3-1.4,0.5-2.3,0.2c0.1,0.9,1.2,1.6,2.2,1.9c-0.3,0.3-0.8,0.4-1.1,0.3
			c0.2,0.5,0.3,1.3-0.1,1.8c-0.5-0.3-0.8-0.7-1-2c-0.2-1.3-1.1-2.6-1.9-2.9c0,0.5,0,0.3,0,0.6c1.9,1.4,0.8,4,2.9,4.9
			c0.7-0.8,0.8-1.1,0.6-1.9c0.7-0.2,1.3-0.8,1.5-1.3c-0.7,0.3-1.8-0.3-2.1-0.7c1.2,0,2.3-0.9,3.5-2.1c1-1.1,2.4-0.9,2.3-0.1
			c0.7-0.1,1-1.1,0.8-1.7c1-0.3,1.8-1.1,2-2.3C34.2,9,32.5,7.9,31.2,9.3L31.2,9.3z M32.8,10.3c0.5,0.5,0.4,1.1,0.2,1.2
			c-0.5-0.8-2-0.5-3.5,1.2c-0.1,0.1-0.2,0.3-0.4,0.4c0.1-2-1.6-2.1-2-1.9c0.1-0.6,0.4-1,0.6-1c-0.5-0.6-0.6-1.3-0.7-1.8
			c0.8,0.4,2,1.3,2.2,3l0.5-0.4c-0.2-2.9-0.1-2.9-0.1-4.8c0-0.3,0-0.9,0.9-0.8c0,0.7,0.1,2.7,0.1,5.3H31c0.3-0.8,1.3-1.6,2.4-1.6
			c0.8,0.1,1.1,0,1.5-0.2C34.5,9.9,33.2,10.2,32.8,10.3L32.8,10.3z M30.6,4.8c0.6-0.4,0.9-0.6,1.2-0.8c0.5,0,1.3,0,1.8-0.3
			c-0.5,0.6-0.6,0.9-1.4,1c1.1,0.1,1.6,1.1,2.1,1.2C32.4,6.5,32.2,4.7,30.6,4.8L30.6,4.8z"/>
		<path class="st0" d="M23.7,15.6c-0.1,0-0.2,0-0.2,0.1c-0.1,0-0.2,0-0.3-0.1l0-0.6c0.1,0,0.2-0.2,0.2-0.3c0-0.2-0.1-0.3-0.3-0.3
			c-0.2,0-0.3,0.1-0.3,0.3c0,0.1,0.1,0.2,0.2,0.3l0,0.6c-0.1,0-0.2,0-0.3,0c0-0.1-0.2-0.2-0.3-0.2c-0.2,0-0.3,0.1-0.3,0.3
			c0,0.2,0.1,0.3,0.3,0.3c0.1,0,0.2-0.1,0.2-0.1c0.1,0,0.2,0,0.3,0l0,0.9c-0.1,0.1-0.2,0.1-0.2,0.3c0,0.2,0.1,0.3,0.3,0.3
			c0.2,0,0.3-0.1,0.3-0.3c0-0.1-0.1-0.2-0.2-0.3l0-0.8c0.1,0,0.2,0,0.3,0c0,0.1,0.2,0.2,0.3,0.2c0.2,0,0.3-0.1,0.3-0.3
			C24,15.8,23.8,15.6,23.7,15.6L23.7,15.6z"/>
		<path class="st0" d="M21.1,15.5c-0.1,0-0.2,0.1-0.3,0.2c-0.1,0-0.2,0-0.3,0l0-0.6c0.1,0,0.2-0.1,0.2-0.3c0-0.2-0.1-0.3-0.3-0.3
			c-0.2,0-0.3,0.1-0.3,0.3c0,0.1,0.1,0.2,0.2,0.3l0,0.6c-0.1,0-0.2,0-0.3,0.1c-0.1-0.1-0.1-0.1-0.2-0.1c-0.2,0-0.3,0.1-0.3,0.3
			c0,0.2,0.1,0.3,0.3,0.3c0.1,0,0.2-0.1,0.3-0.2c0.1,0,0.2,0,0.3,0l0,0.8c-0.1,0-0.2,0.2-0.2,0.3c0,0.2,0.1,0.3,0.3,0.3
			c0.2,0,0.3-0.1,0.3-0.3c0-0.1-0.1-0.2-0.2-0.3l0-0.9c0.1,0,0.2,0,0.3,0c0.1,0.1,0.1,0.1,0.3,0.1c0.2,0,0.3-0.1,0.3-0.3
			C21.4,15.6,21.3,15.5,21.1,15.5L21.1,15.5z"/>
		<path class="st0" d="M25.1,18c-0.2-1.2-0.6-4.6-0.7-5.7l-0.5,0c0,0.2,0,0.4,0.1,0.7c-0.6-0.2-1.4-0.3-2.2-0.3
			c-0.8,0-1.6,0.1-2.2,0.3c0-0.3,0-0.5,0.1-0.7l-0.5,0c0,1.1-0.5,4.5-0.7,5.7c-0.3,0.1-0.5,0.4-0.5,1c0,0,2.8,0,3.9,0
			c1.1,0,3.9,0,3.9,0C25.6,18.4,25.4,18.1,25.1,18L25.1,18z M21.7,18c-0.4,0.8-1.3,0.8-2,0.3c-0.3-0.2-0.6-0.3-0.9-0.4
			c0.1-0.8,0.3-2.4,0.5-3.7c0.9-0.4,2.1-0.5,2.4,0.6c0.3-1.1,1.4-1,2.4-0.6c0.1,1.3,0.4,2.9,0.5,3.7c-0.3,0-0.6,0.2-0.9,0.4
			C23,18.8,22.1,18.8,21.7,18L21.7,18z"/>
		<path class="st0" d="M15.8,19.3c1.6,0.6,3.4,0.9,5.3,0c-0.3,0.9-0.6,1.4-1.1,1.7c0.3,0.7,0.7,1.5,0.9,2.2c0.5,0.3,0.4,0.9,0.3,1.3
			c-0.1,0.4-1.3,0.8-1.6,0.7c-0.4-0.1-0.4-0.3-0.5-0.3c-0.5,0-2.1,1.6-3.6,0.1c0-1.4,0-3.2,0-3.2c0.6-0.3,1.1-0.6,1.4-1
			C16.4,20.6,16,20,15.8,19.3L15.8,19.3z M17.5,20.8c-0.4,0.6-0.8,1-1.6,1.4c0,0,0,1.7,0,2.6c1,0.9,2.3,0.1,2.8-0.2
			c-0.2-0.2-0.2-0.4-0.3-0.7c-1.3,0.1-1.8-0.5-2-1.5c0,0,0.2-0.2,0.5-0.3c0.4,1.4,1.3,1.2,1.9,1.2c0.4-0.4,1-0.5,1.5-0.5
			c-0.1-0.6-0.5-1.3-0.9-1.9c0.3-0.2,0.8-0.5,1-0.9c-1.7,0.6-2.4,0.4-3.9,0C16.8,20.4,17.2,20.6,17.5,20.8L17.5,20.8z M20.4,23.3
			c-0.3-0.1-1.2,0.2-1.3,0.4c-0.1,0.2,0.1,0.6,0.4,0.8c0.2,0.1,1-0.1,1.2-0.3C20.8,24.1,20.7,23.4,20.4,23.3L20.4,23.3z"/>
		<path class="st0" d="M28.1,21.5c0-1-0.7-1.9-1.8-1.9c-1,0-2.3,0.5-2.3,1.4c-1.5,0.9-2.2,1.6-2,2.4c-0.5,0.5-0.1,1.5,1.4,0.9
			c-0.4,0.4-0.5,0.9-0.5,1.3c1.4,0,4.6,0,5,0C27.3,22.8,28.1,23.3,28.1,21.5L28.1,21.5z M26.6,21.2c-0.3-0.1-1.4-0.1-1.7,0.7
			c-0.2,0-0.4-0.1-0.6-0.2c-0.1,0.2-0.4,0.3-0.7,0.4c0.3,0.5,0.8,0.5,1.1,0.2c0,0.1,0,0.1,0,0.2c0,1.3,1.4,1.7,2.3,1.2
			c-0.1,0.4-0.1,1,0,1.3c0,0-3,0-3.4,0c0.1-0.4,0.5-0.8,0.9-1.1l-0.3-0.5c-0.4,0.2-0.7,0.3-1.1,0.4c-1,0.2-0.9-0.4,0.1-0.7v-0.3
			l-0.6,0c0.2-0.7,1.5-1.5,2.1-1.7c0-0.7,0.9-1,1.7-1c1,0,1.2,1,1.2,1.3c0,0.4-0.1,1.4-0.6,1.7c-0.8,0.4-1.4-0.2-1.4-0.7
			c0-0.6,0.4-0.9,1.1-0.8C27.2,21.7,27.1,21.3,26.6,21.2L26.6,21.2z"/>
		<path class="st0" d="M26.5,30.9v-1v-0.2h-0.2h-0.3c0-1.3-0.3-2.2-0.9-2.8l-0.2-0.2L24.7,27c-0.6,0.6-0.9,1.5-0.9,2.8h-0.3h-0.2V30
			v0.9c-0.7,0.2-1.1,0.6-1.7,1l0,0l0.3,0.4l0,0c0.9-0.7,1.4-1.1,3-1.1c1.6,0,2.3,0.7,2.7,1.4l0.4-0.3C27.7,31.8,27.2,31.2,26.5,30.9
			L26.5,30.9z M24.9,27.5c0.4,0.5,0.6,1.2,0.6,2.2h-1.2C24.3,28.7,24.5,28,24.9,27.5L24.9,27.5z M23.7,30.7v-0.5H26v0.6
			c-0.3-0.1-0.7-0.1-1.1-0.1C24.4,30.6,24.1,30.7,23.7,30.7L23.7,30.7z"/>
		<path class="st0" d="M26.1,33.1c0.1-0.4,0-0.8-0.2-1c-0.2-0.2-0.6-0.4-1-0.3l0.5,0.5L24.6,33l-0.4-0.4c0,0,0.1-0.1,0.3-0.3
			c-0.3-0.3-0.7-0.6-1.2-0.5c-0.2,0.5,0,1,0.3,1.3c0.2-0.2,0.3-0.3,0.3-0.3l0.3,0.4l-1,0.8l0.3,0.4l0.9-0.8l0.3,0.4
			c0,0-0.2,0.3,0.1,0.6c0.2-0.2,0.6-0.5,0.8-0.7c-0.3-0.3-0.6-0.2-0.6-0.2l-0.3-0.4l0.8-0.7L26.1,33.1L26.1,33.1z"/>
		<path class="st0" d="M19.9,27.5c-0.1-0.7-0.9-0.8-1.3-0.5c-0.4-0.3-1.1-0.2-1.3,0.5c-1.3-0.2-1.1,1-1,1.3c0.1,0.3,0.5,1.1,0.7,1.6
			c0,0-0.1,0-0.1,0c-0.1,0.3-0.1,0.7,0,0.9c0.1,0,0.1,0,0.2,0.1c-0.1,0.4-0.4,1-0.5,1.3c0.2,0.1,0.4,0.2,0.6,0.2c0,0,0,0.2-0.1,0.4
			c0.3,0.1,1,0.2,1.5,0.2c0.4,0,1.1-0.1,1.5-0.2C20,33.2,20,32.9,20,32.9c0.3-0.1,0.4-0.1,0.6-0.2c-0.1-0.3-0.4-0.9-0.5-1.3
			c0.1,0,0.1,0,0.2-0.1c0-0.3,0-0.7,0-0.9c0,0-0.1,0-0.1,0c0.2-0.5,0.6-1.3,0.7-1.6C21,28.5,21.2,27.3,19.9,27.5L19.9,27.5z
			 M18.6,27.5c0-0.3,1-0.4,0.8,0.3c-0.2,0.7-0.4,1.6-0.6,2.4c-0.1,0-0.2,0-0.2,0c-0.1,0-0.2,0-0.2,0c-0.2-0.8-0.4-1.6-0.6-2.4
			C17.6,27.1,18.6,27.2,18.6,27.5L18.6,27.5z M19.9,30.7c0,0.1,0,0.3,0,0.4c-0.3,0.1-0.8,0.1-1.3,0.1c-0.4,0-0.9,0-1.2-0.1
			c0-0.1,0-0.3,0-0.4c0.2-0.1,1-0.1,1.2-0.1S19.7,30.6,19.9,30.7L19.9,30.7z M16.8,28.6c-0.3-0.7,0.4-0.8,0.5-0.5
			c0.2,0.6,0.5,1.5,0.7,2.1c-0.2,0-0.4,0-0.5,0C17.4,30.1,17.1,29.3,16.8,28.6L16.8,28.6z M20.1,32.5c-0.2,0.1-0.4,0.1-0.6,0.2
			c0,0.2,0.1,0.3,0.1,0.4c-0.3,0.1-0.7,0.1-1,0.1c-0.3,0-0.7,0-1-0.1c0-0.1,0.1-0.3,0.1-0.4c-0.2,0-0.4-0.1-0.6-0.2
			c0.1-0.3,0.2-0.6,0.3-1c0.4,0.1,0.7,0.1,1.1,0.1c0.4,0,0.8,0,1.1-0.1C19.9,31.9,20,32.2,20.1,32.5L20.1,32.5z M20.4,28.6
			c-0.3,0.7-0.6,1.5-0.7,1.7c-0.2,0-0.3,0-0.5,0c0.2-0.6,0.5-1.5,0.7-2.1C20,27.8,20.7,27.9,20.4,28.6L20.4,28.6z"/>
		<path class="st0" d="M17.6,21.6c0.4,0.1,0.6,0,0.9,0c0.1,0,0.4,0.1,0.4,0.5c0,0.2,0,0.3,0.1,0.4c-0.3,0-0.6,0.1-0.8,0
			C17.8,22.3,17.8,21.8,17.6,21.6L17.6,21.6z"/>
		<path class="st0" d="M38,17.6c-0.1,1.2-1,2.9-2,3.8l0.7,0c0.7-0.7,1.9-1.9,2.1-4.2C38.7,17.2,38.3,17.4,38,17.6L38,17.6z"/>
		<path class="st0" d="M34.1,15.1c0.1-0.1,0.1-0.4,0.4-0.5c0.3-0.1,0.3,0.1,0.4,0.2c0.2,0,0.1,0,0,0.2c-0.1,0.1-0.1,0.4-0.4,0.4
			c-0.3,0-0.3-0.1-0.5-0.1C34,15.3,34,15.2,34.1,15.1L34.1,15.1z"/>
		<g>
			<path class="st0" d="M45.4,16.1c-0.2,0-0.5,0.1-0.7,0.2c0.4-0.4,0.7-1,0.7-1.4c-0.2,0.1-0.6,0.2-0.9,0.3c0.7-0.6,1.1-1.3,0.9-2.2
				c-0.2,0.1-0.5,0.3-0.8,0.4c0.6-0.9,0.6-1.8,0.3-2.2c-0.3,0.2-0.6,0.5-0.9,0.8c0.2-1.1,0.2-1.8-0.2-2.3c-0.5,0.9-0.9,1.5-1.5,2.3
				c0-0.7,0-1.6-0.5-2.1c0,0-0.1,1-0.5,1.3c-0.1-1-0.4-1.5-0.8-2c0,0,0,1-0.3,1.6c-0.2-0.8-0.7-1.5-1.2-2.1c0,1.9-0.5,5.4-2,7.8
				c-0.2,1.4-0.3,3.5-2.6,4.8c-0.3-0.2-0.9-0.5-1.7-0.5c-0.2-1.1,1.2-2,2.4-2.8c1.2-0.8,1.7-1.4,1.7-2.5c0-1.1-0.8-1.6-1.6-1.6
				c-1.1,0-2,1-2.3,1.4c-0.3,0.2-1.3,0.5-1.7,0.6c-0.4,0.1-0.9,0.3-1.2,0.6c0.2,0.1,0.7,0.2,0.9,0.1c0.4-0.1,1.6-0.3,2.8-0.4
				c0.4,0.2,1.1,0.6,0.4,1.1c-1,0.6-1.4,0.8-2.8,1.5c-2.2,1.2-1.5,4.1-1,4.3c0,1,0.9,2.8,1.5,3.4c0.3,1.2-0.1,3.1-0.5,3.8
				c-0.3-0.8-0.8-2.5-1.2-3.5c0.4-1.9-0.2-2.8-0.6-3.1c-0.4-0.3-1-0.2-1.5,0.4c0.6-0.1,0.8,0.7,0.8,1.6c0,1-0.3,1.8-1,1.8
				c0.1,0.9,1,1.1,1.5,0.7c0.1,0.2,0.4,1.3,0.8,2.3c0.2,0.6,0.4,1.2,0.5,1.4c0.1,0.3,1.2,0.4,1.3,0c0.2-0.5,0.3-0.9,0.6-1.4
				c0.2-0.4,0.5-1,0.9-1.8c0.3,0.5,0.7,1.3,0.9,1.8c0.1,0.3,0.2,0.4,0.2,0.5c0.1,0.8,0,3.8-0.2,5.5c-2.4-0.7-3.1,0.5-2.9,1.4
				c0.3-0.4,0.8-0.3,1.1-0.1c-0.1,0.6,0.1,1.1,0.8,1.3c0.7-1.8,3.2-1.4,3.4-1.3c0-0.4,0.3-1.2-0.9-1.4c0-1.6,0.2-3.5,0.3-3.9
				c0.1-0.4,0.1-0.7-0.1-1.3c-0.1-0.2-0.1-0.4-0.2-0.7l0,0c-0.2-0.6-0.3-1.5-0.3-2.4c0.2,0.2,0.8,0.4,1.1,0.3
				c0.3,1.2,0.7,0.8,0.9,1.3c0.1,0.3,0.1,0.5,0.2,0.7c0,0.2,0.1,0.4,0.2,0.5c0.9,0,1.6-0.2,2.1-0.5c0.2-0.1,0.3-0.2,0.4-0.4
				c-0.2-1.3-0.6-1.9-1.2-2.7c-0.2-1-0.7-2-1.3-2.8c0.8-0.3,1.7-1,2.1-1.4c0.4,0,0.9-0.4,0.9-1c0.2,0,0.4,0,0.6-0.1
				c0-0.2-0.1-0.5-0.1-0.6c0.3,0,0.6,0,0.9,0c-0.1-0.2-0.2-0.5-0.3-0.7c0.3,0,0.7,0,1,0c-0.2-0.3-0.3-0.6-0.4-0.8
				c0.4,0,0.9-0.1,1.4-0.2c-0.1-0.2-0.3-0.3-0.6-0.5c1.2-0.3,1.7-1.2,1.7-1.5c-0.2,0-0.5,0.1-0.7,0.1C44.9,17.2,45.3,16.7,45.4,16.1
				z M39.3,10.7c0.3,0.5,0.5,1.3,0.5,2.1c0.4-0.4,0.6-1,0.7-1.4c0.2,0.3,0.1,1.2,0.1,1.6c0.4-0.3,0.7-0.8,0.9-1.3
				c0.1,0.4,0.1,0.7,0,1c-0.9,0.9-2.3,2.2-3.9,3.5C38.5,14.5,39,13,39.3,10.7z M31.9,30.4c-0.1,0.3-0.2,0.6-0.3,1
				c-0.1,0.3-0.8,0.2-0.9,0c-0.1-0.2-0.2-0.6-0.4-1l0,0c-0.4-1.1-1-2.5-1.1-3.2c-0.3,0.5-0.6,0.7-0.9,0.4c1.1-0.5,0.7-3.6,0.3-3.8
				c0.5-0.5,1.2,1.4,0.8,2.8c0.3,1,1,2.9,1.3,3.8c0.1,0.2,0.1,0.3,0.1,0.3c0.1,0.2,0.4,0.2,0.5,0c0-0.1,0.1-0.2,0.1-0.3
				c0.3-0.9,0.8-2.7,0.7-3.9c0.5,0.1,0.7,0.6,0.9,1.2C32.6,28.9,32.2,29.6,31.9,30.4z M43.9,18.1c-0.3,0.3-1.2,0.7-2.2,0.7
				c0.2,0.2,0.6,0.4,0.8,0.5c-0.3,0.1-0.7,0.1-1.1,0.1c0.2,0.3,0.4,0.7,0.5,0.8c-0.3,0-0.6,0-0.9,0c0.2,0.3,0.2,0.5,0.4,0.7
				c-0.2,0-0.7,0-0.9,0c0.1,0.2,0.2,0.5,0.3,0.7c-0.1,0-0.4,0-0.5,0c-1,1.4-2.5,2.9-5.1,2.8c0.1,0.2,0.1,0.5,0.2,0.5
				c0.4,0,1.2-0.1,1.8-0.2c0.4,0.5,1.2,1.5,1.5,3.2c0.3,0.2,0.8,1,1,2c-0.5,0.3-0.9,0.4-1.5,0.5c-0.2-1.3-0.9-1.4-1.2-2.5
				c-0.5,0.1-1.1-0.3-1.3-0.9h-0.6c-0.1,1.3,0.2,2.4,0.4,3.4c0.1,0.5,0.2,0.9,0.2,1.3c0.1,0.8-0.2,3.8-0.2,5c0.6,0,1,0.1,1,0.6
				c-0.9-0.3-2.4-0.1-3.2,1.1c-0.2-0.1-0.3-0.6,0-0.8c-0.3-0.4-0.6-0.6-1.3-0.5c0.3-0.4,0.9-0.7,2.8-0.3c0.2-0.7,0.4-4.8,0.3-5.7
				c0-0.2-0.1-0.4-0.2-0.8h0c-0.5-1.2-1.5-3.2-1.7-4.5c-0.3,0-0.8,0.1-1-0.1c-0.4-0.4-1.3-1.7-1.5-3c-0.3-0.5-0.8-2.5,0.7-3.6
				c1.1-0.8,3.5-1.7,3.5-2.6c0-0.5-0.9-0.9-1.2-1.2c-0.3-0.2-0.2-0.3,0.1-0.6c1.4-1.4,3.2,0,2.2,1.7c-0.7,1.3-4.5,2.4-3.6,4.7
				c0.8,0.1,1.2,0.4,1.5,0.8c0.7-0.3,3.6-1.5,3.9-5.2c0.7-0.5,1.5-0.9,2.2-1.5c0.1,0.9,0,6.8-5.4,8.2c0.1,0.5,1.3,0.6,2-0.3
				c0.7,0.2,1.4-0.4,1.5-0.9c0.6,0,1.2-0.6,1.1-1.3c0.7-0.2,1.1-1.2,0.8-1.9c0.6-0.3,0.8-1,0.6-1.7c0.5-0.3,0.7-1.2,0.2-1.8
				c0.3-0.5,0.2-0.8,0-1.2c1-0.9,2.2-2,3-3.4c0.1,1-0.4,1.7-1,2.6c1-0.7,1.3-0.8,1.9-1.3c-0.2,1.1-1.4,2.1-1.9,2.6
				c0.6-0.2,1.5-0.7,2.2-1c-0.6,1.2-1.6,1.9-2.2,2.3c0.8-0.2,1.4-0.3,2-0.5c-0.5,0.5-1.4,1.2-2.4,1.5c0.8,0,1.5-0.1,2.2-0.3
				c-0.5,0.6-1.3,1.1-2.3,1.2C42.9,18.1,43,18.2,43.9,18.1z"/>
			<path class="st0" d="M38.9,29c0-0.1-0.2-0.3-0.4-0.6c-0.2,0.1-0.5,0.1-0.8,0.1c0.2,0.4,0.2,0.7,0.2,0.7
				C38.1,29.2,38.5,29.1,38.9,29z"/>
		</g>
		<path class="st0" d="M37.3,39.2c-0.3,0.1-0.7,0.2-1.3,0.2h-0.7c-2.5,0-5.1-0.8-6.7-2.4c2.2-2.2-0.4-4-1.8-2.1
			c-0.4,0.6-0.8,1-1.1,1.6c-0.2,0.5-0.1,0.9,0.5,1.6c0.3,0.4,1,1,1.6,1.4H15.4c0.6-0.4,1.3-1,1.6-1.4c0.5-0.7,0.7-1.2,0.5-1.6
			c-0.3-0.6-0.6-1-1.1-1.6c-1.4-1.9-3.9-0.1-1.8,2.1c-1.6,1.6-4.2,2.4-6.7,2.4H7.3c-0.6,0-1-0.1-1.3-0.2c-0.5-0.1-0.6,0.1-0.4,1
			c0.2,0.6,0.3,1.6,0.4,2.2h31.2c0.1-0.7,0.2-1.6,0.4-2.2C38,39.3,37.9,39.1,37.3,39.2L37.3,39.2z M27.6,34.9c0.4-0.5,1-0.4,1.3,0.1
			c0.3,0.5-0.1,1.1-0.6,1.6C27.5,35.7,27.4,35.1,27.6,34.9L27.6,34.9z M26.5,37.5c-0.3-0.4-0.3-0.6-0.2-0.9c0.1-0.3,0.4-0.6,0.7-1
			c0.4,1.7,3,3.3,4.9,3.9h-3C28.1,38.9,27.1,38.3,26.5,37.5L26.5,37.5z M14.5,35c0.2-0.5,0.8-0.6,1.3-0.1c0.2,0.2,0.1,0.8-0.6,1.6
			C14.6,36,14.2,35.4,14.5,35L14.5,35z M16.3,35.5c0.3,0.4,0.5,0.7,0.7,1c0.1,0.3,0,0.5-0.2,0.9c-0.6,0.8-1.6,1.5-2.3,1.9h-3
			C13.3,38.8,15.9,37.2,16.3,35.5L16.3,35.5z M36.7,42H6.6c-0.1-1-0.3-1.6-0.5-2.1h31.1C37.1,40.4,36.9,41,36.7,42L36.7,42z"/>
		<path class="st0" d="M10.7,41.3C10.7,41.3,10.7,41.3,10.7,41.3l0.1,0.2c0,0,0,0,0,0c0,0,0,0,0,0c0,0,0,0,0.1,0c0.1,0,0.3,0,0.3,0
			c0.1,0,0.1,0,0.1,0c0,0,0,0,0,0c0,0,0,0-0.1,0c0,0-0.1,0-0.2-0.2c-0.1-0.3-0.4-1-0.4-1.1c0,0,0-0.1,0-0.1c0,0,0,0,0,0.1L10,41.4
			c0,0.1-0.1,0.2-0.2,0.2c0,0,0,0-0.1,0c0,0,0,0,0,0c0,0,0,0,0,0c0.1,0,0.2,0,0.2,0c0.1,0,0.1,0,0.2,0c0,0,0,0,0,0c0,0,0,0,0,0h0
			c-0.1,0-0.1,0-0.1-0.1c0,0,0-0.1,0-0.1l0-0.1c0,0,0,0,0,0H10.7L10.7,41.3z M10.2,41.2C10.2,41.2,10.2,41.2,10.2,41.2l0.2-0.6
			c0,0,0,0,0,0c0,0,0,0,0,0l0.2,0.6c0,0,0,0,0,0H10.2L10.2,41.2z"/>
		<path class="st0" d="M11.6,41c0,0.3,0.1,0.4,0.2,0.5c0.1,0.1,0.3,0.1,0.4,0.1c0.1,0,0.2,0,0.4-0.1c0.2-0.1,0.2-0.3,0.2-0.5v-0.2
			c0-0.3,0-0.3,0-0.4c0-0.1,0-0.1,0.1-0.1c0,0,0,0,0.1,0s0,0,0,0c0,0,0,0,0,0c-0.1,0-0.2,0-0.2,0c0,0-0.1,0-0.2,0c0,0,0,0,0,0
			c0,0,0,0,0,0c0,0,0,0,0.1,0c0.1,0,0.1,0,0.1,0.1c0,0.1,0,0.1,0,0.4V41c0,0.2,0,0.3-0.1,0.4c-0.1,0.1-0.2,0.1-0.2,0.1
			c-0.1,0-0.1,0-0.2-0.1c-0.1-0.1-0.1-0.2-0.1-0.4v-0.2c0-0.3,0-0.3,0-0.4c0-0.1,0-0.1,0.1-0.1c0,0,0,0,0.1,0c0,0,0,0,0,0
			c0,0,0,0,0,0c-0.1,0-0.2,0-0.2,0c-0.1,0-0.2,0-0.3,0c0,0,0,0,0,0c0,0,0,0,0,0c0,0,0.1,0,0.1,0c0.1,0,0.1,0,0.1,0.1
			c0,0.1,0,0.1,0,0.4V41L11.6,41z"/>
		<path class="st0" d="M13.5,41.1c0,0.2,0,0.3,0,0.4c0,0,0,0.1-0.1,0.1c0,0,0,0-0.1,0c0,0,0,0,0,0c0,0,0,0,0,0c0.1,0,0.2,0,0.2,0
			c0.1,0,0.2,0,0.4,0c0.3,0,0.5-0.1,0.6-0.2c0.1-0.1,0.2-0.3,0.2-0.5c0-0.2-0.1-0.4-0.2-0.4c-0.2-0.2-0.5-0.2-0.7-0.2
			c-0.1,0-0.2,0-0.3,0c0,0-0.2,0-0.3,0c0,0,0,0,0,0c0,0,0,0,0,0c0,0,0.1,0,0.1,0c0.1,0,0.1,0,0.1,0.1c0,0.1,0,0.1,0,0.4V41.1
			L13.5,41.1z M13.7,40.7c0-0.1,0-0.3,0-0.4c0,0,0,0,0,0c0,0,0.1,0,0.1,0c0.1,0,0.3,0,0.5,0.2c0.1,0.1,0.2,0.2,0.2,0.4
			c0,0.2,0,0.3-0.1,0.4c-0.1,0.1-0.2,0.1-0.4,0.1c-0.1,0-0.2,0-0.2-0.1c0,0,0-0.1,0-0.1c0,0,0-0.2,0-0.4V40.7L13.7,40.7z"/>
		<path class="st0" d="M15.9,41.3C15.9,41.3,15.9,41.3,15.9,41.3l0.1,0.2c0,0,0,0,0,0c0,0,0,0,0,0c0,0,0,0,0.1,0c0.1,0,0.3,0,0.3,0
			c0.1,0,0.1,0,0.1,0c0,0,0,0,0,0c0,0,0,0-0.1,0c0,0-0.1,0-0.2-0.2c-0.1-0.3-0.4-1-0.4-1.1c0,0,0-0.1,0-0.1c0,0,0,0,0,0.1l-0.4,1.1
			c0,0.1-0.1,0.2-0.2,0.2c0,0,0,0-0.1,0c0,0,0,0,0,0c0,0,0,0,0,0c0.1,0,0.2,0,0.2,0c0.1,0,0.1,0,0.2,0c0,0,0,0,0,0c0,0,0,0,0,0h0
			c-0.1,0-0.1,0-0.1-0.1c0,0,0-0.1,0-0.1l0-0.1c0,0,0,0,0,0H15.9L15.9,41.3z M15.4,41.2C15.4,41.2,15.4,41.2,15.4,41.2l0.2-0.6
			c0,0,0,0,0,0s0,0,0,0l0.2,0.6c0,0,0,0,0,0H15.4L15.4,41.2z"/>
		<path class="st0" d="M17.7,40.4c0.1-0.1,0.1-0.1,0.1-0.1c0,0,0,0,0.1,0c0,0,0,0,0,0c0,0,0,0,0,0c-0.1,0-0.1,0-0.2,0
			c0,0-0.1,0-0.2,0c0,0,0,0,0,0c0,0,0,0,0,0c0,0,0,0,0.1,0c0,0,0,0,0,0c0,0,0,0,0,0.1c0,0-0.2,0.3-0.2,0.4c-0.1-0.1-0.1-0.2-0.2-0.4
			c0,0,0,0,0,0c0,0,0,0,0,0c0,0,0,0,0,0c0,0,0,0,0,0c0,0,0,0,0,0c-0.1,0-0.2,0-0.2,0c-0.1,0-0.2,0-0.3,0c0,0,0,0,0,0c0,0,0,0,0,0
			c0,0,0,0,0.1,0c0.1,0,0.1,0.1,0.1,0.1l0.3,0.5l-0.3,0.5c-0.1,0.1-0.1,0.1-0.1,0.1c0,0-0.1,0-0.1,0c0,0,0,0,0,0c0,0,0,0,0,0h0
			c0,0,0.1,0,0.2,0c0,0,0.2,0,0.2,0h0c0,0,0,0,0,0c0,0,0,0,0,0c0,0,0,0,0,0c0,0,0,0,0,0c0,0,0,0,0-0.1l0.3-0.4
			c0.1,0.1,0.2,0.3,0.3,0.5c0,0,0,0,0,0c0,0,0,0,0,0c0,0,0,0,0.1,0c0.1,0,0.3,0,0.3,0h0.1c0,0,0,0,0,0c0,0,0,0,0,0c0,0,0,0-0.1,0
			c0,0-0.1,0-0.1-0.1c0-0.1-0.3-0.5-0.4-0.6L17.7,40.4L17.7,40.4z"/>
		<path class="st0" d="M20.6,41.3C20.6,41.3,20.6,41.3,20.6,41.3l0.1,0.2c0,0,0,0,0,0c0,0,0,0,0,0c0,0,0,0,0.1,0c0.1,0,0.3,0,0.3,0
			c0.1,0,0.1,0,0.1,0c0,0,0,0,0,0c0,0,0,0-0.1,0c0,0-0.1,0-0.2-0.2c-0.1-0.3-0.4-1-0.4-1.1c0,0,0-0.1,0-0.1c0,0,0,0,0,0.1l-0.4,1.1
			c0,0.1-0.1,0.2-0.2,0.2c0,0,0,0-0.1,0c0,0,0,0,0,0c0,0,0,0,0,0c0.1,0,0.2,0,0.2,0c0.1,0,0.1,0,0.2,0c0,0,0,0,0,0c0,0,0,0,0,0h0
			c-0.1,0-0.1,0-0.1-0.1c0,0,0-0.1,0-0.1l0-0.1c0,0,0,0,0,0H20.6L20.6,41.3z M20.1,41.2C20.1,41.2,20.1,41.2,20.1,41.2l0.2-0.6
			c0,0,0,0,0,0c0,0,0,0,0,0l0.2,0.6c0,0,0,0,0,0L20.1,41.2L20.1,41.2z"/>
		<path class="st0" d="M21.7,41.1c0,0.2,0,0.3,0,0.4c0,0,0,0.1-0.1,0.1c0,0,0,0-0.1,0c0,0,0,0,0,0c0,0,0,0,0,0c0.1,0,0.2,0,0.2,0
			c0,0,0.2,0,0.3,0c0,0,0,0,0,0c0,0,0,0,0,0c0,0-0.1,0-0.1,0c-0.1,0-0.1,0-0.1-0.1c0-0.1,0-0.2,0-0.4v-0.7l0.2,0
			c0.2,0,0.2,0.1,0.2,0.1l0,0c0,0,0,0,0,0c0,0,0,0,0,0c0,0,0-0.2,0-0.2c0,0,0,0,0,0c0,0-0.1,0-0.2,0h-0.7c-0.1,0-0.1,0-0.2,0
			c0,0-0.1,0-0.1,0c0,0,0,0,0,0c0,0,0,0.2,0,0.2c0,0,0,0,0,0c0,0,0,0,0,0c0,0,0,0,0-0.1c0,0,0.1,0,0.2-0.1l0.3,0V41.1L21.7,41.1z"/>
		<path class="st0" d="M24.8,40.9C24.8,40.9,24.8,40.9,24.8,40.9c0,0,0.2,0,0.3,0c0.1,0,0.1,0,0.1,0.1c0,0,0,0,0,0.1c0,0,0,0,0,0
			c0,0,0,0,0,0c0,0,0-0.1,0-0.1c0-0.1,0-0.1,0-0.1c0,0,0,0,0,0c0,0,0,0,0,0c0,0,0,0-0.1,0c0,0,0,0-0.1,0L24.8,40.9
			c0-0.1,0-0.1,0-0.1v-0.4c0,0,0,0,0,0l0.3,0c0.1,0,0.1,0,0.1,0.1c0,0,0,0.1,0,0.1c0,0,0,0,0,0c0,0,0,0,0,0c0,0,0-0.1,0-0.1
			c0,0,0-0.1,0-0.1c0,0,0,0,0,0s0,0,0,0c0,0,0,0-0.1,0c0,0-0.4,0-0.5,0c-0.1,0-0.2,0-0.3,0c0,0,0,0,0,0c0,0,0,0,0,0c0,0,0.1,0,0.1,0
			c0.1,0,0.1,0,0.1,0.1c0,0.1,0,0.1,0,0.4v0.3c0,0.2,0,0.3,0,0.4c0,0,0,0.1-0.1,0.1c0,0,0,0-0.1,0c0,0,0,0,0,0c0,0,0,0,0,0
			c0.1,0,0.2,0,0.2,0c0,0,0.2,0,0.3,0c0,0,0,0,0,0c0,0,0,0,0,0c0,0-0.1,0-0.1,0c-0.1,0-0.1,0-0.1-0.1c0-0.1,0-0.2,0-0.4V40.9
			L24.8,40.9z"/>
		<path class="st0" d="M25.9,41.1c0,0.2,0,0.3,0,0.4c0,0.1,0,0.1-0.1,0.1c0,0,0,0-0.1,0c0,0,0,0,0,0c0,0,0,0,0,0c0.1,0,0.2,0,0.2,0
			c0,0,0.2,0,0.3,0c0,0,0,0,0,0c0,0,0,0,0,0c0,0-0.1,0-0.1,0c-0.1,0-0.1,0-0.1-0.1c0-0.1,0-0.2,0-0.4v-0.3c0-0.3,0-0.3,0-0.4
			c0-0.1,0-0.1,0.1-0.1c0,0,0,0,0.1,0c0,0,0,0,0,0c0,0,0,0,0,0c-0.1,0-0.2,0-0.2,0c-0.1,0-0.2,0-0.2,0c0,0,0,0,0,0c0,0,0,0,0,0
			c0,0,0,0,0.1,0c0,0,0.1,0,0.1,0.1c0,0.1,0,0.1,0,0.4V41.1L25.9,41.1z"/>
		<path class="st0" d="M27,41.1c0,0.2,0,0.3,0,0.4c0,0,0,0.1-0.1,0.1c0,0,0,0-0.1,0c0,0,0,0,0,0c0,0,0,0,0,0c0.1,0,0.2,0,0.2,0
			c0.1,0,0.3,0,0.4,0c0.3,0,0.5-0.1,0.6-0.2c0.1-0.1,0.2-0.3,0.2-0.5c0-0.2-0.1-0.4-0.2-0.4c-0.2-0.2-0.5-0.2-0.7-0.2
			c-0.1,0-0.2,0-0.3,0c0,0-0.2,0-0.3,0c0,0,0,0,0,0c0,0,0,0,0,0c0,0,0.1,0,0.1,0c0.1,0,0.1,0,0.1,0.1c0,0.1,0,0.1,0,0.4V41.1
			L27,41.1z M27.2,40.7c0-0.1,0-0.3,0-0.4c0,0,0,0,0,0c0,0,0.1,0,0.1,0c0.1,0,0.3,0,0.5,0.2c0.1,0.1,0.2,0.2,0.2,0.4
			c0,0.2,0,0.3-0.2,0.4c-0.1,0.1-0.2,0.1-0.4,0.1c-0.1,0-0.2,0-0.2-0.1c0,0,0-0.1,0-0.1c0,0,0-0.2,0-0.4V40.7L27.2,40.7z"/>
		<path class="st0" d="M28.9,41.1c0,0.2,0,0.3,0,0.4c0,0,0,0.1-0.1,0.1c0,0,0,0-0.1,0c0,0,0,0,0,0c0,0,0,0,0,0c0.1,0,0.2,0,0.2,0
			c0.1,0,0.2,0,0.5,0c0.1,0,0.1,0,0.1,0c0,0,0-0.2,0-0.2c0,0,0,0,0,0c0,0,0,0,0,0c0,0.1,0,0.1-0.1,0.1c0,0-0.1,0-0.2,0
			c-0.2,0-0.2,0-0.2-0.1c0-0.1,0-0.2,0-0.3v-0.1c0,0,0,0,0,0c0,0,0.2,0,0.3,0c0.1,0,0.1,0,0.1,0.1c0,0,0,0,0,0.1c0,0,0,0,0,0
			c0,0,0,0,0,0c0,0,0-0.1,0-0.1c0-0.1,0-0.1,0-0.1c0,0,0,0,0,0c0,0,0,0,0,0c0,0,0,0-0.1,0c0,0-0.2,0-0.3,0c0,0,0,0,0,0v-0.5
			c0,0,0,0,0,0c0,0,0.2,0,0.3,0c0.1,0,0.1,0,0.1,0.1c0,0,0,0.1,0,0.1c0,0,0,0,0,0c0,0,0,0,0,0c0,0,0-0.1,0-0.1c0-0.1,0-0.1,0-0.1
			c0,0,0,0,0,0c0,0,0,0,0,0c0,0,0,0-0.1,0c0,0-0.4,0-0.4,0c0,0-0.2,0-0.3,0c0,0,0,0,0,0c0,0,0,0,0,0c0,0,0.1,0,0.1,0
			c0.1,0,0.1,0,0.1,0.1c0,0.1,0,0.1,0,0.4V41.1L28.9,41.1z"/>
		<path class="st0" d="M30.5,40.8c0-0.3,0-0.3,0-0.4c0-0.1,0-0.1,0.1-0.1c0,0,0.1,0,0.1,0c0,0,0,0,0,0c0,0,0,0,0,0
			c-0.1,0-0.2,0-0.2,0c0,0-0.2,0-0.2,0c0,0,0,0,0,0c0,0,0,0,0,0c0,0,0,0,0.1,0c0.1,0,0.1,0,0.1,0.1c0,0.1,0,0.1,0,0.4v0.3
			c0,0.2,0,0.3,0,0.4c0,0,0,0.1-0.1,0.1c0,0,0,0-0.1,0c0,0,0,0,0,0c0,0,0,0,0,0c0.1,0,0.2,0,0.2,0c0.1,0,0.3,0,0.5,0
			c0.1,0,0.1,0,0.1,0c0-0.1,0-0.2,0-0.2c0,0,0,0,0,0c0,0,0,0,0,0c0,0,0,0.1,0,0.1c0,0-0.1,0-0.2,0c-0.1,0-0.2,0-0.2,0
			c0,0,0-0.2,0-0.4V40.8L30.5,40.8z"/>
		<path class="st0" d="M31.6,41.1c0,0.2,0,0.3,0,0.4c0,0.1,0,0.1-0.1,0.1c0,0,0,0-0.1,0c0,0,0,0,0,0c0,0,0,0,0,0c0.1,0,0.2,0,0.2,0
			c0,0,0.2,0,0.3,0c0,0,0,0,0,0c0,0,0,0,0,0c0,0-0.1,0-0.1,0c-0.1,0-0.1,0-0.1-0.1c0-0.1,0-0.2,0-0.4v-0.3c0-0.3,0-0.3,0-0.4
			c0-0.1,0-0.1,0.1-0.1c0,0,0,0,0.1,0c0,0,0,0,0,0c0,0,0,0,0,0c-0.1,0-0.2,0-0.2,0c-0.1,0-0.2,0-0.2,0c0,0,0,0,0,0c0,0,0,0,0,0
			c0,0,0,0,0.1,0c0,0,0.1,0,0.1,0.1c0,0.1,0,0.1,0,0.4V41.1L31.6,41.1z"/>
		<path class="st0" d="M32.8,41.6c0.1,0,0.2,0,0.3-0.1c0.1-0.1,0.2-0.2,0.2-0.3c0-0.2-0.1-0.3-0.3-0.5l0,0c-0.1-0.1-0.2-0.2-0.2-0.3
			c0-0.1,0.1-0.2,0.2-0.2c0.1,0,0.2,0.1,0.2,0.1c0,0,0,0.1,0,0.1c0,0,0,0,0,0c0,0,0,0,0-0.1c0-0.1,0-0.2,0-0.2c0,0,0,0,0,0
			c0,0-0.1,0-0.2,0c-0.2,0-0.4,0.1-0.4,0.3c0,0.1,0.1,0.3,0.3,0.4l0.1,0.1c0.1,0.1,0.2,0.2,0.2,0.3C33.1,41.4,33,41.5,32.8,41.6
			c-0.1-0.1-0.2-0.1-0.2-0.3c0,0,0-0.1,0-0.1c0,0,0,0,0,0c0,0,0,0,0,0c0,0,0,0.1,0,0.2c0,0,0,0,0,0.1C32.6,41.6,32.7,41.6,32.8,41.6
			L32.8,41.6z"/>
		<path class="st0" d="M27.5,4.9c0-0.3-0.5-0.5-0.6-0.5c-0.2,0-0.5,0.4-0.7,0.7c-0.2-1.3-0.1-1.8,0-2.4c0.5,1,1.3,1.2,1.7,1.1
			c-1.3-1-1.1-2-1.5-2c-0.2,0-0.4,0-0.5,0c-0.5,0-0.5,0.9-0.6,1.3c-0.3-0.6-0.6-1-1.1-1.6c-0.5-1.2-1.1-0.9-1.7-1.5
			c0.5,0.7,0.1,1.1,1.2,1.6c0.3,0.3,0.6,0.7,0.8,1c-0.2,0.2-0.3,0.4-0.5,0.5c-0.1,0.2-0.2,1-0.6,1.5c0.6-0.3,0.9-0.6,1.1-1
			c1.9,1.5,0.4,5.2-0.1,6c-0.4-0.3-1-0.5-1.5-0.5l-0.1-0.2l-0.5-1.5h0.2c0.2,0,0.3-0.2,0.3-0.3l1.3,0.4l0.6,0.2l-0.4-0.5l-0.6-0.9
			l0.6-0.9l0.4-0.5l-0.6,0.2L23,5.7c-0.1-0.3-0.3-0.4-0.6-0.4l0.4-1.4L23,3.3l-0.5,0.4l-0.9,0.6l-0.9-0.6l-0.5-0.4l0.2,0.6l0.4,1.4
			c-0.2,0-0.5,0.2-0.6,0.4l-1.2-0.4l-0.6-0.2l0.4,0.5l0.6,0.9l-0.6,0.9l-0.4,0.5l0.6-0.2l1.3-0.4c0,0.1,0,0.3,0.3,0.3H21l-0.5,1.5
			l-0.1,0.2c-0.5,0.1-1.1,0.3-1.5,0.6c-1.3-2.5-0.9-5.1,0.2-6c0,0.5,0.5,1.3,0.7,1.4c-0.1-0.6,0.1-1.6-0.2-1.8
			c-0.2-0.2-0.5-0.3-0.8-0.2c0.2-0.4,0.5-0.8,1-1.5c0.8-0.4,1-1.3,1.2-1.7c-0.8,0.3-1.5,0.7-1.6,1.4c-0.3,0.4-0.6,0.9-1,1.4
			c0-0.7-0.3-0.9-0.8-0.9c-1.4,0.3-1.3,1.3-2.5,2c0.8,0.3,2.1-1.5,2.6-1.3c0.1,1.1-0.2,2-0.2,2.6C17.2,5,17.1,4.8,17,4.8
			c-0.2,0-0.6,0-1,0.4c-0.1,0.6-0.1,1.6-0.6,2.9c0.8-0.7,1.2-2.1,1.3-2.5c0.2,0.3,0.4,0.9,0.5,1.4c0.1,1,0.7,2.7,1.2,3.5
			c-0.1,0.3-0.2,0.6-0.1,1c-0.4,0.3-0.5,0.7-0.3,1c0.2,0.3,0.6,0.5,1,0.3l0.2-0.1c0.5-0.2,1.4-0.6,2.6-0.6c1.1,0,2.1,0.4,2.6,0.6
			l0.1,0.1c0.5,0.2,0.9,0,1-0.3c0.1-0.3,0.1-0.7-0.3-1c0.1-0.4,0-0.7-0.2-1l0,0c1-1.4,1-4,1.8-4.8c0.1,0.9,0.6,1.7,1,1.8
			C27.4,6.8,27.4,5.5,27.5,4.9L27.5,4.9z M23,6.2l0.7-0.2l-0.3,0.5l-0.1,0.1l0.1,0.1l0.3,0.5l-0.9-0.3C22.9,6.7,23,6.5,23,6.2
			L23,6.2z M19.6,7.1L20,6.7l0.1-0.1L20,6.4l-0.3-0.5l0.7,0.2c0,0.3,0.1,0.5,0.2,0.7L19.6,7.1L19.6,7.1z M22.5,6.9h-0.6l0.1-1
			C22.8,5.5,22.7,6.3,22.5,6.9L22.5,6.9z M22.3,8.6l-0.5-0.3l-0.1-0.1l-0.1,0.1l-0.5,0.3l0.3-1H22L22.3,8.6L22.3,8.6z M21.6,4.7
			l0.1,0.1l0.1-0.1l0.5-0.4L22,5.3c0,0,0,0,0,0c0-0.1-0.2-0.2-0.3-0.2c-0.1,0-0.2,0.1-0.3,0.2c0,0,0,0,0,0l-0.3-0.9L21.6,4.7
			L21.6,4.7z M20.9,6.9c-0.3-0.6-0.4-1.4,0.5-1l0.1,1H20.9L20.9,6.9z M21.7,8.7l0.7,0.5c-0.3,0-0.5,0-0.7,0c-0.1,0-0.4,0-0.7,0
			L21.7,8.7L21.7,8.7z M18.9,12.2l-0.1,0.1c-0.2,0.1-0.3,0-0.4-0.1c-0.1-0.1,0-0.3,0.2-0.4c0,0,0.1,0,0.1-0.1l0.5,0.4
			C19.1,12.1,19,12.2,18.9,12.2L18.9,12.2z M20.5,11.7L20,11.2c0.4-0.1,0.8-0.2,1.3-0.2l0.3,0.6C21.2,11.6,20.9,11.6,20.5,11.7
			L20.5,11.7z M23.3,11.8L23,11.1c0.4,0.1,0.9,0.2,1.2,0.4l0.2,0.7C24.1,12.1,23.7,11.9,23.3,11.8L23.3,11.8z M21.7,10.5
			c-0.9,0-2,0.2-2.8,0.6c0-0.2,0.1-0.3,0.2-0.5c0.5-0.6,1.7-0.8,2.6-0.8c0.9,0,2.1,0.2,2.6,0.8c0.1,0.1,0.2,0.3,0.2,0.5
			C23.7,10.7,22.6,10.5,21.7,10.5L21.7,10.5z"/>
		<path class="st0" d="M15,25.3c0.1-1.1,0-1.2-0.4-1.4c-0.3-0.2-0.7-0.3-1.2-0.6c-0.3-0.2-0.4-0.5-0.8-1c0.1-1.1,1.3-2.5,1.7-2.3
			l0-0.5c-0.5-0.2-1.4,0.3-2.2,2.2c-0.1-0.1-0.2-0.1-0.3-0.2c0.1-0.4-0.1-0.8-0.4-1.1c0.3-0.2,1.1-0.6,1.5-0.9
			c0.5-0.4,0.6-0.5,1.3-0.4c0,0,0.1-0.1,0.2-0.3c-0.5-0.6-1.1-0.4-1.6,0.1c-0.4,0.3-1.2,0.8-1.8,1c-0.8-0.7-2-1.2-2.9-2.1
			c0,0,1.2,0,1.7-0.2c0.1-0.1,0.5-0.7,0.4-1.3c-0.2-0.1-0.4-0.2-0.7-0.3c-0.3-0.2-0.6-0.4-0.8-0.5c-0.5-0.4-0.7-0.7-1.6-0.9
			c0.1-0.4,0.1-0.3,0.5-0.6c0.5-0.3,0.8-0.7,1-1.1c0.2-0.3,0-0.9-0.4-0.1c-0.1,0.3-0.5,0.7-1,0.8c0-0.3,0-0.4,0-0.5
			c1.3-0.9,1.2-1.7,1.1-2.5c-0.1-0.4-0.5-0.6-0.5-0.2c0,0.3,0.3,1.1-0.6,1.6c0-0.4-0.1-0.5-0.2-0.7c0.8-1,0.5-2,0.1-2.5
			C7.2,8.6,6.7,8.5,6.9,8.9c0.2,0.4,0.5,1.4-0.1,1.8c-0.2-0.2-0.4-0.3-0.5-0.7c0.1-1.1,0-1.8-0.2-2.2C6,7.5,5.7,7.2,5.7,7.8
			c0,0.6,0.1,1.4,0,1.5c-0.1,0-0.9-0.7-1.2-1C4.2,8.1,3.8,8.1,4.2,8.6C4.5,9,5.6,9.8,5.4,10c-0.1,0.2-0.8-0.5-1.2-0.6
			C3.8,9.3,3.7,9.5,4,9.8c0.5,0.4,0.9,0.7,1.8,1c0.9,0.3,1.3,1.5,1,3.3c0,0.1-0.2,0.1-0.3,0c0-0.7-0.2-1.5-0.3-1.8
			c-0.2-0.5-0.6-0.5-0.5,0.2c0.1,0.5,0.2,1,0.1,1.7c-0.7-0.1-1-0.3-1.3-0.5c0-0.3,0.1-0.9,0.2-1.4c0-0.5-0.3-0.8-0.4-0.2
			C4.2,12.7,4.1,13,4,13.4c-0.2-0.1-0.4-0.2-0.5-0.3c0-0.1,0-0.7-0.1-1.2c-0.1-0.5-0.3-0.5-0.4-0.1c-0.1,0.2-0.1,0.5-0.2,0.9
			c-0.3-0.2-0.4-0.5-0.5-0.7c0-0.6,0.1-1.2,0.2-1.6c0-0.3-0.1-0.8-0.3-0.2c-0.2,0.5-0.2,0.9-0.3,1.2c-0.2,0-0.4-1.1-0.6-1.8
			C1.3,9.4,1.1,9.1,1,9.8c-0.1,0.8,0.1,1.6,0.3,1.9c-0.4,0-0.7-0.7-1-1.1c-0.2-0.4-0.3,0-0.3,0.2c0.2,1.4,1.3,1.9,1.8,2
			c0.8,1.1,2.2,1.6,3.5,2.1c-1.6,0-2,0.6-2.8,0.2c0,0.6,0.3,0.9,0.6,1c0.2,0.1,0.4,0.1,0.5,0.1c0.1,0.7,0.8,0.7,1.4,0.7
			c-0.2,1.4,0,3.4,1.3,4.8c0,0.7-0.1,1.7-0.1,2.3c-1,1-2,3-2.3,4.1c-0.3,0.8-0.7,1.5-1.3,1.8c0.5,0.5,1.3,0.3,1.7,0
			c0,0.5,0.1,0.8,0.2,1.1c-0.3,0.4-0.5,0.7-0.5,1.3c-0.3,0.1-0.6,0.3-0.8,0.5c-0.1,0.1,0,0.8,0.1,1.1c0.4,0.9,0.1,3,0,3.6
			c0.2,0,0.5,0,0.6-0.2c0.1,0.1,0.4,0.3,0.5,0.7c0,0.2-0.1,0.8,0.2,0.9c0.3,0.1,1.4,0,1.6-0.2c-0.1-0.1-0.3-0.4-0.4-0.8
			c0-0.3,0-0.7-0.1-0.9c-0.1-0.2-0.5-0.8-0.7-1c0-0.4-0.1-2.1,0.1-2.7c0.3-0.2,2.3-1.7,2.8-3.2c0.4,0.1,0.3,1.1,0.3,2.5
			c0,0.4,0.4,0.5,0.7,0.6c0.6,0.1,1.3,0.6,2.2,1.9c0.2-0.2,0.4-0.4,0.4-0.4c0.1,0.2,0.3,0.5,0.3,0.8c0.1,0.2,0.8,0.3,1.4,0.1
			c0.2-0.1,0.3-0.1,0.4-0.3c-0.7-1.2-1.1-2-2-2.7c-0.4-0.3-1-0.5-1.4-0.8c0.3-0.6,1.2-3.3,0.6-4.3c-0.2-0.3-0.8-0.7-1.6-0.5
			c0.7-0.8,2-2.3,2.2-2.8c0.2,0.2,0.9,0.1,1.5,0.3c0.2,0.1,0.8,0.9,0.8,1.1c0.1,0.5,0.1,1-0.3,2.4c0.2,0,0.2,0,0.4-0.1
			c0,0.4-0.1,0.6-0.4,1.2c0.1,0.5,0.3,1.2,0.5,1.3c0.3-0.9,1.4-2.1,1.4-2.9C15.4,26.6,15,25.7,15,25.3L15,25.3z M4.4,16
			c-0.2-0.2-0.2-0.4-0.3-0.5c0.6-0.4,1.4-0.1,1.8-0.5c0.3,0.2,0.7,0,0.9,0c0.6-0.1,1.4,0.6,2,1c0.2,0.2,0.5,0.3,0.6,0.3
			c-0.2,0.5-0.1,0.6,0.3,0.7c0,0.1-0.1,0.2-0.6,0.2c-0.5-0.1-1.1,0-1.3,0C6.3,18,5.9,16.8,5.9,16c0,0,0,0,0,0c0,0,0,0,0,0
			C5,16.5,4.6,16.3,4.4,16L4.4,16z M10.2,28c0.5,0.6-0.2,3.3-0.5,3.8c-0.2,0.4,0.2,0.7,0.4,0.8c1.1,0.3,2.1,1.3,2.5,2.1l-0.4,0.2
			c-0.8-1.1-1-0.7-1.2-0.5c-0.2-0.4-1.2-1.4-1.8-1.5c-0.6,0-0.6-0.4-0.5-0.7c0.1-0.6,0-1.4,0-1.9c-0.1-0.4-0.4-0.8-0.6-0.8
			c0.1-0.3,0-1.2,0.7-1.6C9.4,27.5,10.1,27.8,10.2,28L10.2,28z M14.6,28.5c-0.1,0-0.2,0-0.2-0.1c0.2-0.6,0.2-0.9,0.2-1.1
			c-0.1,0.1-0.3,0-0.3,0c0.2-1,0.1-1.6,0-2c-0.1-0.4-0.7-1-0.8-1.1c-0.3-0.2-0.6-0.3-1.1-0.4c-1.2-1-1.5-0.4-2.4-0.5
			C9.7,23.2,9.5,23,9.5,23l-0.4,0.3c0,0,0.4,0.5,0.4,0.8c0,0,0.8-0.1,1.4,0c-0.2,0.8-1.3,1.8-2.3,2.9c-1.1,1.2-1.1,1.5-1.1,2.5
			c0,1.1-1.5,2.8-2.7,3.6c-0.1,0.3-0.2,2.8-0.1,3.2c0.1,0.1,0.4,0.5,0.6,0.9c0.1,0.1,0.1,0.5,0.1,0.8c-0.2,0-0.3,0-0.4-0.1
			C5,37.5,4.7,37,4.1,36.7c0.1-1.4,0.3-2.2-0.2-3.6c0-0.1,0.6-0.5,0.6-0.5s0.2-1,0.8-1.5c-0.4-1.1-0.5-2.6-0.5-2.6s-0.3,0.3-0.7,0.6
			c1.1-3.5,1.3-2.5,2.7-5.1c0.9-4.1-1.5-5-1.1-6.4c0.8,0.8,1.3,0.5,2,0.3c0.6,0.5,1.5,1.7,2.3,2c1.3,0.5,1.3,1.7,1.1,2.3
			c0.6,0,1,0.2,1.2,0.5c0.9,1.5,1.6,1,2.1,1.6c0.2,0.3,0,1.1,0.3,1.8c0.2,0.5,0.3,1.1,0.3,1.2C15,27.8,14.6,28.2,14.6,28.5
			L14.6,28.5z"/>
		<path class="st0" d="M7.4,16.4c0.3,0,0.4-0.2,0.7-0.1c0-0.1-0.2-0.1-0.2-0.2c0,0,0-0.1,0-0.1c0-0.3-0.1-0.5-0.5-0.5
			c-0.1,0.2-0.5,0.4-0.7,0.5c0.1,0,0.1,0,0.2,0C7.1,16.1,7,16.4,7.4,16.4L7.4,16.4z"/>
		<path class="st0" d="M29,18.7h-7.3h-7.3h-0.3V19v5.2c0.1,0.1,0.2,0.1,0.3,0.3c0.2,0.3,0,1.1,0.3,1.8c0,0,0,0.1,0,0.1h6.7v10.7
			c-0.8-0.3-2.4-1.1-3.9-2.5c-1.8-1.8-2.8-3.9-2.9-6.4c-0.1,0.1-0.1,0.2-0.1,0.3c-0.1,0-0.2,0-0.2-0.1c0.2-0.6,0.2-0.9,0.2-1.1
			c-0.1,0.1-0.3,0-0.3,0c0.2-1,0.1-1.6,0-2c0-0.1,0-0.1-0.1-0.2v2.6c0,2.8,1,5.3,3.1,7.2c1.8,1.7,3.8,2.5,4.4,2.8l0.1,0l0.1,0
			c0.6-0.2,2.6-1,4.4-2.8c2-2,3.1-4.4,3.1-7.2v-0.5c-0.2,0.3-0.4,0.5-0.5,0.5c0,2.7-1,5-2.9,6.8c-1.5,1.4-3.1,2.2-3.9,2.5V26.4h6.8
			v1c0.7-0.9,0.4-3.2,0-3.5v2h-14v-6.7h7h7v4.6c0.2-0.1,0.4,0,0.5,0.3V19v-0.3H29z"/>
	</g>
</g>
</svg>
