<?xml version="1.0" encoding="utf-8"?>
<!-- Generator: Adobe Illustrator 22.1.0, SVG Export Plug-In . SVG Version: 6.00 Build 0)  -->
<svg version="1.1" id="Layer_1" xmlns="http://www.w3.org/2000/svg" xmlns:xlink="http://www.w3.org/1999/xlink" x="0px" y="0px"
	 viewBox="0 0 644.3 413.7" style="enable-background:new 0 0 644.3 413.7;" xml:space="preserve">
<style type="text/css">
	.st0{fill:#FFFFFF;}
</style>
<path class="st0" d="M18.5,9.5c0-0.9-0.2-1.2-1.3-1.2c-2.6,0-5.4,1.9-7.2,3.8c-2,2-3.3,4.4-4.9,7.5L0,17.4L5.6,1.3h38.2l5.6,16.1
	l-5.1,2.3c-1.6-3-2.9-5.4-4.9-7.5c-1.8-1.9-4.6-3.8-7.2-3.8c-1.1,0-1.3,0.2-1.3,1.2v31.9c0,1.6,0.1,3.5,0.8,4.4c1,1.5,3.4,1.9,5,1.9
	h0.8v6.4H12v-6.4h0.8c1.5-0.1,4-0.5,5-1.9c0.7-0.9,0.8-2.9,0.8-4.4v-1.2V9.5z"/>
<path class="st0" d="M87.6,40.2c1.7-4,2.3-8.9,2.3-13.2c0-8.2-2.7-19.2-11.7-19.2c-9.5,0-12.7,11.3-12.7,20.3
	c0,8.5,2.7,19.6,12.1,19.6C82.3,47.7,85.6,44.6,87.6,40.2 M59.6,48.2c-5.2-5.3-7.5-12-7.5-19.9C52.1,11.6,63.2,0,77.9,0
	c13.8,0,25.4,10.4,25.4,26.5c0,17-11.3,29-26.4,29C70.3,55.5,64.7,53.3,59.6,48.2"/>
<path class="st0" d="M128.9,24c2.4,0,4.9-0.1,7-1.2c2.5-1.3,4.6-3.6,4.6-6.8c0-2.2-1.7-4.5-3.2-5.8c-1.9-1.6-4.6-1.8-6.8-1.8
	c-1.9,0-4.4,0.2-5.4,1.2c-0.5,0.5-0.6,1.5-0.6,2.3v12H128.9z M150.7,41.7c2.7,4,3.8,5.7,8.7,6.1v6.4h-16.2l-15-22.7h-3.7v8.9
	c0,5.3,0.5,7,5.8,7.4l1,0.1v6.4h-25.2v-6.4l0.6-0.1c5.4-0.4,5.5-1.8,5.5-7.3V14.7c0-4.9-0.1-6.6-5.2-6.9l-0.8-0.1V1.3h26.4
	c4.3,0,9.3,0.2,13.4,1.8c4.8,1.9,8.1,6.4,8.1,12.2c0,7.5-5.2,13.2-11.6,14.5L150.7,41.7z"/>
<path class="st0" d="M185,24c2.4,0,4.9-0.1,7-1.2c2.5-1.3,4.6-3.6,4.6-6.8c0-2.2-1.7-4.5-3.2-5.8c-1.9-1.6-4.6-1.8-6.8-1.8
	c-1.9,0-4.4,0.2-5.4,1.2c-0.5,0.5-0.6,1.5-0.6,2.3v12H185z M206.8,41.7c2.7,4,3.8,5.7,8.7,6.1v6.4h-16.2l-15-22.7h-3.7v8.9
	c0,5.3,0.5,7,5.8,7.4l1,0.1v6.4h-25.2v-6.4l0.6-0.1c5.4-0.4,5.5-1.8,5.5-7.3V14.7c0-4.9-0.1-6.6-5.2-6.9l-0.8-0.1V1.3h26.4
	c4.3,0,9.3,0.2,13.4,1.8c4.8,1.9,8.1,6.4,8.1,12.2c0,7.5-5.2,13.2-11.6,14.5L206.8,41.7z"/>
<path class="st0" d="M250.9,37.7h-5.5c-0.2-2.2-0.7-4.7-1.8-6.5c-1.1-1.9-3.4-1.9-5.3-1.9h-2v10c0,2.1,0,5,0.3,5.8
	c0.6,1.9,3.7,1.9,5.2,1.9c9.9,0,15.4-5.1,20.9-13.8l4.9,2.6l-7.7,18.3h-41.5v-6.4l1.2-0.2c4.3-0.9,4.4-2.6,4.4-7.4v-27
	c0-3-0.3-4.5-4-5.2l-1.6-0.3V1.3h40.3l6.9,16.1l-4.8,2.6c-4.2-6.9-9.8-11.5-17.6-11.5c-1.3,0-5.3,0.1-6.2,1.4
	c-0.6,0.9-0.7,2.9-0.7,4.7v7.6h3.5c1.7,0,3.4-0.2,4.4-1.6c1-1.6,1.2-4.8,1.2-6.8h5.5V37.7z"/>
<path class="st0" d="M301.8,1.3h4.2l4.6,15.8l-5,2.1l-0.6-1c-1.6-2.5-3.6-5.4-5.9-7.1c-2.5-1.9-5.5-3.2-8.6-3.2
	c-3.1,0-7.7,1.3-7.7,5.6c0,3.8,5.2,4.7,7.7,5.4l2.6,0.6l4.7,1.4c3.5,1.1,7.8,2.2,10.8,4.3c3.4,2.4,5,6.9,5,11.3
	c0,12.2-9.6,19.1-19.7,19.1c-4.1,0-9.3-1.4-12.5-4.3l-1,3.6h-4.2l-5.8-19.6l5.3-1.9c3.6,7.8,9.7,14.4,18.1,14.4
	c3.8,0,8.9-1.7,8.9-6.8c0-4.3-4.6-5-7.5-5.8l-7.9-2.2c-3.4-0.9-7.9-2.1-10.8-4.3c-3.3-2.6-4.8-6.9-4.8-11.3
	c0-10.9,8.8-17.2,17.8-17.2c3.8,0,8.1,1.4,11.3,3.8L301.8,1.3z"/>
<path class="st0" d="M371.7,1.3h4.2l4.6,15.8l-5,2.1l-0.6-1c-1.6-2.5-3.6-5.4-5.9-7.1c-2.5-1.9-5.5-3.2-8.6-3.2
	c-3.1,0-7.7,1.3-7.7,5.6c0,3.8,5.2,4.7,7.7,5.4l2.6,0.6l4.7,1.4c3.5,1.1,7.8,2.2,10.8,4.3c3.4,2.4,5,6.9,5,11.3
	c0,12.2-9.6,19.1-19.7,19.1c-4.1,0-9.3-1.4-12.5-4.3l-1,3.6h-4.2l-5.8-19.6l5.3-1.9c3.6,7.8,9.7,14.4,18.1,14.4
	c3.8,0,8.9-1.7,8.9-6.8c0-4.3-4.6-5-7.5-5.8l-7.9-2.2c-3.4-0.9-7.9-2.1-10.8-4.3c-3.3-2.6-4.8-6.9-4.8-11.3
	c0-10.9,8.8-17.2,17.8-17.2c3.8,0,8.1,1.4,11.3,3.8L371.7,1.3z"/>
<path class="st0" d="M403.4,9.5c0-0.9-0.2-1.2-1.3-1.2c-2.6,0-5.4,1.9-7.2,3.8c-2,2-3.3,4.4-4.9,7.5l-5.1-2.3l5.6-16.1h38.2
	l5.6,16.1l-5.1,2.3c-1.6-3-2.9-5.4-4.9-7.5c-1.8-1.9-4.6-3.8-7.2-3.8c-1.1,0-1.3,0.2-1.3,1.2v31.9c0,1.6,0.1,3.5,0.8,4.4
	c1,1.5,3.4,1.9,5,1.9h0.8v6.4h-25.5v-6.4h0.8c1.5-0.1,4-0.5,5-1.9c0.7-0.9,0.8-2.9,0.8-4.4v-1.2V9.5z"/>
<path class="st0" d="M458.3,24c2.4,0,4.9-0.1,7-1.2c2.5-1.3,4.6-3.6,4.6-6.8c0-2.2-1.7-4.5-3.2-5.8c-1.9-1.6-4.6-1.8-6.9-1.8
	c-1.9,0-4.4,0.2-5.4,1.2c-0.5,0.5-0.6,1.5-0.6,2.3v12H458.3z M480.1,41.7c2.7,4,3.8,5.7,8.7,6.1v6.4h-16.2l-15-22.7h-3.7v8.9
	c0,5.3,0.5,7,5.8,7.4l1,0.1v6.4h-25.2v-6.4l0.6-0.1c5.4-0.4,5.5-1.8,5.5-7.3V14.7c0-4.9-0.1-6.6-5.2-6.9l-0.8-0.1V1.3h26.4
	c4.3,0,9.3,0.2,13.4,1.8c4.8,1.9,8.1,6.4,8.1,12.2c0,7.5-5.2,13.2-11.6,14.5L480.1,41.7z"/>
<path class="st0" d="M520.8,28.6l-5.2-15.1l-5.4,15.1H520.8z M538,40.4c1.8,5,2,6.3,6.8,7.3l0.8,0.1v6.4h-25.4v-6.4
	c1.5-0.2,5.8-0.1,5.8-2.5c0-1.1-0.7-3.1-1-4.2l-1.9-5.7h-15l-2,5.7c-0.3,1-0.8,2.6-0.8,3.6c0,2.7,3.8,2.7,5.5,3l0.7,0.1v6.4h-21.6
	v-6.4c6.2-0.7,7.5-5,9.6-10.5l13.6-36h10.8L538,40.4z"/>
<path class="st0" d="M572.1,54.2H547v-6.4c1.7-0.1,4.2-0.5,5.2-1.6c0.9-1,1-2.9,1-4.5V14c0-1.5-0.1-3.4-0.8-4.4
	c-0.9-1.3-3.5-1.8-5-1.9L547,7.7V1.3h25.1v6.4c-2,0.1-4.4,0.4-5.5,1.6c-0.9,0.9-1,2.8-1,4.4V42c0,1.5,0.1,3,0.7,3.9
	c1,1.4,3.6,1.9,5.2,1.9h0.6V54.2z"/>
<path class="st0" d="M591.8,9.5c0-0.9-0.2-1.2-1.3-1.2c-2.6,0-5.4,1.9-7.2,3.8c-2,2-3.3,4.4-4.9,7.5l-5.1-2.3l5.6-16.1h38.2
	l5.6,16.1l-5.1,2.3c-1.6-3-2.9-5.4-4.9-7.5c-1.8-1.9-4.6-3.8-7.2-3.8c-1.1,0-1.3,0.2-1.3,1.2v31.9c0,1.6,0.1,3.5,0.8,4.4
	c1,1.5,3.4,1.9,5,1.9h0.8v6.4h-25.5v-6.4h0.8c1.5-0.1,4-0.5,5-1.9c0.7-0.9,0.8-2.9,0.8-4.4v-1.2V9.5z"/>
<path class="st0" d="M73.3,163.1h4.6c19.4,0,28.3-8.4,28.3-27.1c0-24.4-14.6-25.6-23.5-25.6c-6.6,0-9.4,0.8-9.4,9.6V163.1z
	 M4.8,231.9c13.7-1.8,16.4-5.3,16.4-15v-93.1c0-9.6-2.7-13.2-16.4-15V84h89c45,0,67.1,20.6,67.1,52c0,31.5-22.1,52-67.1,52H73.3
	v28.9c0,9.6,2.7,13.2,16.4,15v24.9H4.8V231.9z"/>
<path class="st0" d="M165,236.2l83.8-126.6c-3.7-0.5-6.4-0.8-9.6-0.8c-29.5,0-43.4,16.2-54.3,36.3l-18-6.8L186.7,84h121.9l5.9,18.8
	l-82,125.3c4.6,1.5,8.7,2.3,13.9,2.3c18,0,42.2-7.1,55.9-39.8l18.7,7.1l-20.1,59.1H170.2L165,236.2z"/>
<path class="st0" d="M402.7,123.6c0-9.4-2.7-12.9-20.1-14.7V84h88.6v24.9c-13.7,1.8-16.4,5.3-16.4,14.7v83.7
	c0,40.6-33.6,52.8-70.1,52.8c-33.6,0-60.7-20.3-60.7-50.2c0-15.5,6.6-31.2,26.9-31.2c11.9,0,22.4,5.8,22.4,22.1
	c0,14.7-7.8,15.5-7.8,20.3c0,6.1,7.5,9.6,16,9.6c14.4,0,21.2-5.1,21.2-27.7V123.6z"/>
<path class="st0" d="M524.2,174.3h32.2l-16.2-48.7h-0.5L524.2,174.3z M462.1,231.9c8.7-1,16.9-4.8,22.6-20.3L531.3,84h46.6l47,129.9
	c5,13.7,7.5,16.7,19.4,18v24.9H553v-24.9c14.4,0,18.3-3.8,18.3-8.6c0-3.3-0.9-7.1-1.8-9.9l-4.6-14.2H516l-4.8,15.2
	c-0.9,3.3-1.6,6.1-1.6,9.1c0,5.3,2.7,6.9,16,8.4v24.9h-63.5V231.9z"/>
<path class="st0" d="M24,321.3c3,0,5.6-0.2,7.7-2.5c1.8-2,2.4-4.2,2.4-6.8c0-2.6-0.9-5.1-2.8-6.8c-1.9-1.7-4.7-2.1-7.1-2.1
	c-1.5,0-5.4,0.2-6.7,1.1c-0.8,0.5-0.8,1.8-0.8,2.9v14.3H24z M16.6,333.4c0,1.4,0.1,2.9,0.5,4c0.8,1.8,2.7,2,4.5,2.1l1.2,0.1v1.8H5.5
	v-1.8l0.5-0.1c1.6-0.1,3.3-0.4,4-1.9c0.6-1.3,0.7-3.3,0.7-4.9v-24.3c0-3.2-0.3-5.5-4.4-5.8l-0.8-0.1v-1.8h19.5c3.5,0,7,0.4,10,2.1
	c3.3,2,5.2,5.3,5.2,9.1c0,3.5-1.5,6.8-4.3,8.9c-3,2.3-7.3,2.7-10.9,2.7h-8.2V333.4z"/>
<path class="st0" d="M62.3,319.6c2.7,0,5.4-0.1,7.7-1.7c2.3-1.5,3.4-4.1,3.4-6.8c0-6.7-6-8.1-11.5-8.1c-1.7,0-5.5,0.2-7,1.1
	c-1.4,0.8-1.5,1.8-1.5,3.3v12.2H62.3z M78.2,335c1.8,2.6,3.6,3.9,6.7,4.5v1.8H75l-13.3-19.2h-8.3v11.3c0,3.3,0.3,5.8,4.6,6.1h1.2
	v1.8H41.7v-1.8l0.8-0.1c1.7-0.1,3.4-0.2,4.3-1.9c0.5-1.1,0.6-2.8,0.6-4.2v-24.9c0-3.3-0.3-5.5-4.6-5.8l-1.1-0.1v-1.8h23.7
	c6.8,0,14.2,2.1,14.2,10.4c0,6.2-5.2,9.9-11,10.4L78.2,335z"/>
<path class="st0" d="M91.9,321.3c0,8.7,4.2,18,14.2,18c9.9,0,14-9,14-17.7c0-10.4-4.5-18.9-13.7-18.9h-0.4
	C96.8,302.9,91.9,310.1,91.9,321.3 M127.2,321.3c0,12-9.4,20.9-21.3,20.9c-11.9,0-21.2-9.3-21.2-21.2c0-12.1,9.3-21.4,21.4-21.4
	C118.6,299.7,127.2,309,127.2,321.3"/>
<path class="st0" d="M170.3,311.2l-2.1,0.7c-2.6-5-7.3-8.9-13.2-8.9c-2.2,0-2.3,1-2.3,2.7v27.1c0,1.5,0.1,3.3,0.5,4.5
	c0.8,1.9,2.8,2,4.5,2.1h1.2v1.8h-18.4v-1.8l1.1-0.1c1.7-0.1,3.6-0.2,4.4-1.9c0.6-1.3,0.7-3.3,0.7-4.8v-26.6c0-2-0.1-3-2.5-3
	c-6.1,0-10.5,3.7-13.2,8.9l-2-0.7l3.3-10.5H167L170.3,311.2z"/>
<path class="st0" d="M209.7,311.4l-1.9,0.8c-4.8-6.1-9.8-8.9-17.6-8.9c-1.7,0-4.5,0.1-5.8,1.1c-1.5,1.1-1.5,2.9-1.5,4.6v9.2h4
	c6,0,7.1-1.4,7.9-7.3h2v17.8h-2c-0.2-1.8-0.5-3.6-1.5-5.2c-1.5-2.4-3.8-2.5-6.4-2.5h-3.9v11.8c0,1.2,0.1,3.2,0.9,4.2
	c1.2,1.7,4.2,1.8,6.1,1.8c9.2,0,14.6-3.7,19.9-11l1.9,0.8l-5.4,12.7h-34.7v-1.8l0.6-0.1c1.6-0.2,3.3-0.2,4.2-1.9
	c0.5-1,0.6-2.7,0.6-4.2v-24.9c0-3.1-0.3-5.5-4.5-5.8l-0.9-0.1v-1.8h34.1L209.7,311.4z"/>
<path class="st0" d="M253.3,315.6h-1.9l-0.2-0.5c-1.4-2.6-3.2-6.1-5.2-8.3c-2.6-2.8-6-4.1-9.9-4.1c-4.6,0-8.2,2.1-10.5,5.8
	c-2.3,3.8-3,8.5-3,12.9c0,4.1,0.8,8.9,3.3,12.3c2.6,3.6,7,5.6,11.4,5.6c6.1,0,11.7-3.7,14.7-8.9l2.6,1.4
	c-3.9,6.8-10.4,10.5-18.2,10.5c-12.3,0-20.9-8.9-20.9-21.2c0-11.4,8.3-21.4,20-21.4c4.3,0,8.6,1.3,11.8,4.3l1.3-2.7h1.9L253.3,315.6
	z"/>
<path class="st0" d="M297.4,311.2l-2.1,0.7c-2.6-5-7.3-8.9-13.2-8.9c-2.2,0-2.3,1-2.3,2.7v27.1c0,1.5,0.1,3.3,0.5,4.5
	c0.8,1.9,2.8,2,4.5,2.1h1.2v1.8h-18.4v-1.8l1.1-0.1c1.7-0.1,3.6-0.2,4.4-1.9c0.6-1.3,0.7-3.3,0.7-4.8v-26.6c0-2-0.1-3-2.5-3
	c-6.1,0-10.5,3.7-13.2,8.9l-2-0.7l3.3-10.5h34.6L297.4,311.2z"/>
<path class="st0" d="M336.7,311.4l-1.9,0.8c-4.8-6.1-9.8-8.9-17.6-8.9c-1.7,0-4.5,0.1-5.8,1.1c-1.5,1.1-1.5,2.9-1.5,4.6v9.2h4
	c6,0,7.1-1.4,7.9-7.3h2v17.8h-2c-0.2-1.8-0.5-3.6-1.5-5.2c-1.5-2.4-3.8-2.5-6.4-2.5h-3.9v11.8c0,1.2,0.1,3.2,0.9,4.2
	c1.2,1.7,4.2,1.8,6.1,1.8c9.2,0,14.6-3.7,19.9-11l1.9,0.8l-5.4,12.7h-34.7v-1.8l0.6-0.1c1.6-0.2,3.3-0.2,4.2-1.9
	c0.5-1,0.6-2.7,0.6-4.2v-24.9c0-3.1-0.3-5.5-4.5-5.8l-0.9-0.1v-1.8h34.1L336.7,311.4z"/>
<path class="st0" d="M352,332.9c0,1.4,0.1,3.7,1.2,4.7c1.2,1,4.8,1.2,6.2,1.2c11.3,0,17.1-6.9,17.1-18c0-4.7-1.1-9.9-4.6-13.3
	c-3.2-3.2-8.2-4.3-12.6-4.3c-1.6,0-5.5,0.2-6.5,1.6c-0.7,1-0.8,3.5-0.8,4.7V332.9z M340.7,339.5l0.5-0.1c1.6-0.2,3.2-0.4,4.1-1.9
	c0.6-1.1,0.7-2.8,0.7-4.3v-24.8c0-3.2-0.3-5.5-4.5-5.8l-0.8-0.1v-1.8h17.6c5.9,0,12.4,0.5,17.4,4c5.1,3.7,7.9,10.4,7.9,16.5
	c0,6.1-2.6,12.3-7.6,16c-5.2,3.9-11.5,4-17.7,4h-17.6V339.5z"/>
<path class="st0" d="M440.2,341.3h-33l-1.1-1.8l28.3-35.5c-2.2-0.5-4.5-0.7-6.8-0.7c-8,0-13,2.3-17.6,9l-2-0.7l4.3-10.8h29.8
	l0.6,2.2l-28.1,35.3l7.7,0.7c8.9,0,16.4-1.8,20.4-10.5l1.8,0.7L440.2,341.3z"/>
<path class="st0" d="M454.5,321.3c0,8.7,4.2,18,14.2,18c9.9,0,14-9,14-17.7c0-10.4-4.5-18.9-13.7-18.9h-0.4
	C459.4,302.9,454.5,310.1,454.5,321.3 M489.8,321.3c0,12-9.4,20.9-21.3,20.9c-11.9,0-21.2-9.3-21.2-21.2c0-12.1,9.3-21.4,21.4-21.4
	C481.2,299.7,489.8,309,489.8,321.3"/>
<path class="st0" d="M501.5,333.5c0,3.3,0.3,5.7,4.6,6l1.2,0.1v1.8h-14.5v-1.8h0.6c1.6-0.1,3.3-0.4,4.1-2c0.5-1.1,0.6-2.8,0.6-4.2
	v-24.9c0-3.2-0.3-5.5-4.4-5.8l-0.9-0.1v-1.8H506l19.4,32.3h0.1v-24.6c0-3.3-0.3-5.6-4.6-5.8l-1.2-0.1v-1.8h14.6v1.8l-0.7,0.1
	c-1.6,0.1-3.3,0.3-4.2,1.9c-0.5,1.1-0.6,2.8-0.6,4.2v32.6h-5.1l-22.1-36.1h-0.1V333.5z"/>
<path class="st0" d="M576.5,311.4l-1.9,0.8c-4.8-6.1-9.8-8.9-17.6-8.9c-1.7,0-4.5,0.1-5.8,1.1c-1.5,1.1-1.6,2.9-1.6,4.6v9.2h4
	c6,0,7.1-1.4,7.9-7.3h2v17.8h-2c-0.2-1.8-0.5-3.6-1.5-5.2c-1.6-2.4-3.8-2.5-6.4-2.5h-3.9v11.8c0,1.2,0.1,3.2,0.9,4.2
	c1.2,1.7,4.2,1.8,6.1,1.8c9.2,0,14.6-3.7,19.9-11l1.9,0.8l-5.4,12.7h-34.7v-1.8l0.6-0.1c1.6-0.2,3.3-0.2,4.2-1.9
	c0.5-1,0.6-2.7,0.6-4.2v-24.9c0-3.1-0.3-5.5-4.5-5.8l-0.9-0.1v-1.8h34.1L576.5,311.4z"/>
<path class="st0" d="M32.1,396.5c0,2.3,0,6-0.4,8.2c-1.4,6.4-8.6,9-14.5,9c-3.5,0-7.2-0.8-10.1-2.9c-2.9-2.1-4.9-5.7-4.9-9.2
	c0-2.9,1.7-5.2,4.6-5.2c1.9,0,3.2,1.2,3.2,3.1c0,2.9-2.5,2.6-2.5,5.2c0,1.5,1,3,2.1,3.9c1.8,1.5,4.5,2.3,6.8,2.3
	c4.2,0,7.4-2,8.7-6.1c0.9-2.7,0.9-8.2,0.9-11.2v-13.4c0-3.2-0.2-5.7-4.5-5.9l-0.8-0.1v-1.8h16.5v1.8l-0.5,0.1
	c-1.6,0.1-3.3,0.3-4.1,1.9c-0.5,1-0.6,2.7-0.6,4.2v1.3V396.5z"/>
<path class="st0" d="M47.3,392.7c0,8.7,4.2,18,14.2,18c9.9,0,14-9,14-17.7c0-10.4-4.5-18.9-13.7-18.9h-0.4
	C52.2,374.3,47.3,381.5,47.3,392.7 M82.7,392.7c0,12-9.4,20.9-21.3,20.9c-11.9,0-21.2-9.3-21.2-21.2c0-12.1,9.3-21.4,21.4-21.4
	C74,371.1,82.7,380.4,82.7,392.7"/>
<path class="st0" d="M91.1,380.3c0-3.4-0.2-6-4.3-6.4h-0.7v-1.8h16.1v1.8h-0.7c-4.2,0.4-4.3,3-4.3,6.4v24.8c0,3.1,0.3,5.4,4.2,5.7
	l0.9,0.1v1.8H86.1v-1.8l0.9-0.1c3.9-0.4,4.2-2.6,4.2-5.7v-1.7V380.3z"/>
<path class="st0" d="M115.2,404.9c0,3.3,0.3,5.7,4.6,6l1.2,0.1v1.8h-14.5v-1.8h0.6c1.6-0.1,3.3-0.4,4.1-2c0.5-1.1,0.6-2.8,0.6-4.2
	v-24.9c0-3.2-0.3-5.5-4.4-5.8l-0.9-0.1v-1.8h13.2l19.4,32.3h0.1v-24.6c0-3.3-0.3-5.6-4.6-5.8l-1.2-0.1v-1.8h14.6v1.8l-0.7,0.1
	c-1.6,0.1-3.3,0.3-4.2,1.9c-0.5,1.1-0.6,2.8-0.6,4.2v32.6h-5.1l-22.1-36.1h-0.1V404.9z"/>
<path class="st0" d="M189.9,382.6l-2.1,0.7c-2.6-5-7.3-8.9-13.2-8.9c-2.2,0-2.3,1-2.3,2.7v27.1c0,1.5,0.1,3.3,0.5,4.5
	c0.8,1.9,2.8,2,4.5,2.1h1.3v1.8h-18.5v-1.8l1.1-0.1c1.7-0.1,3.6-0.2,4.4-1.9c0.6-1.3,0.7-3.3,0.7-4.8v-26.6c0-2-0.1-3-2.5-3
	c-6.1,0-10.5,3.7-13.2,8.9l-2-0.7l3.3-10.5h34.6L189.9,382.6z"/>
<path class="st0" d="M232.6,394.9l-6.8-17.7l-6.6,17.7H232.6z M242.2,403.4c1.5,3.7,2.4,7.3,7.1,7.5v1.8h-16.7v-1.8
	c2-0.2,4.6-0.7,4.6-3c0-1-0.5-2.4-0.9-3.3l-2.7-7h-15.3l-1.7,4.5c-0.5,1.2-1.4,3.6-1.4,4.9c0,3,2.4,3.6,5.2,3.9v1.8h-15.9v-1.8
	l0.7-0.1c2.9-0.7,3.9-1.4,5.4-4c1.4-2.4,2.9-6.4,3.9-9.1l9.9-25.5h5.5L242.2,403.4z"/>
<path class="st0" d="M290.6,372.1v1.8H290c-1.6,0.1-3.3,0.4-4.1,2c-0.6,1.2-0.7,3.3-0.7,4.8v19.1c0,4.6-0.4,7.8-4.2,10.8
	c-3.2,2.5-7.7,3-11.7,3c-4.1,0-8.3-0.4-11.8-2.7c-4.4-2.9-5-6.1-5-11v-20c0-3.3-0.2-5.7-4.5-5.9l-1-0.1v-1.8h17.3v1.8l-0.8,0.1
	c-1.7,0.1-3.6,0.1-4.5,1.9c-0.5,1-0.6,2.7-0.6,4.2v15.8c0,1-0.1,2.2-0.1,3.4c0,2.6,0.2,5.4,1.5,7.3c2.2,3.3,6.5,4.1,10.2,4.1
	c3.5,0,7.8-0.9,9.9-4c1.7-2.4,1.8-6.2,1.8-9.3v-17.4c0-3.3-0.3-5.7-4.7-5.9l-1.2-0.1v-1.8H290.6z"/>
<path class="st0" d="M332.8,382.6l-2.1,0.7c-2.6-5-7.3-8.9-13.2-8.9c-2.2,0-2.3,1-2.3,2.7v27.1c0,1.5,0.1,3.3,0.5,4.5
	c0.8,1.9,2.8,2,4.5,2.1h1.3v1.8h-18.5v-1.8l1.1-0.1c1.7-0.1,3.6-0.2,4.4-1.9c0.6-1.3,0.7-3.3,0.7-4.8v-26.6c0-2-0.1-3-2.5-3
	c-6.1,0-10.5,3.7-13.2,8.9l-2-0.7l3.3-10.5h34.6L332.8,382.6z"/>
<path class="st0" d="M339.2,379.8c0-3.2-0.3-5.5-4.4-5.8l-0.9-0.1v-1.8h16.8v1.8h-0.7c-1.7,0.1-3.4,0.3-4.2,2
	c-0.6,1.2-0.7,3.3-0.7,4.9v8.9h21.4v-9.8c0-3.2-0.3-5.5-4.5-5.8l-0.9-0.1v-1.8h16.7v1.8h-0.6c-1.6,0.2-3.3,0.4-4.1,2
	c-0.6,1.1-0.7,2.9-0.7,4.3v24.9c0,3.1,0.3,5.5,4.5,5.8l0.9,0.1v1.8h-16.7v-1.8h0.6c1.6-0.1,3.3-0.4,4.1-2c0.6-1.3,0.7-3.3,0.7-4.8
	v-12h-21.4v12.7c0,3.3,0.2,5.7,4.5,6l1,0.1v1.8h-16.8v-1.8h0.6c1.6-0.2,3.3-0.4,4.1-2c0.5-1.1,0.6-2.8,0.6-4.2v-1.3V379.8z"/>
<path class="st0" d="M388.2,392.7c0,8.7,4.2,18,14.2,18c9.9,0,14-9,14-17.7c0-10.4-4.5-18.9-13.7-18.9h-0.4
	C393.1,374.3,388.2,381.5,388.2,392.7 M423.6,392.7c0,12-9.4,20.9-21.3,20.9c-11.9,0-21.2-9.3-21.2-21.2c0-12.1,9.3-21.4,21.4-21.4
	C415,371.1,423.6,380.4,423.6,392.7"/>
<path class="st0" d="M447.3,391c2.7,0,5.4-0.1,7.7-1.7c2.3-1.5,3.4-4.1,3.4-6.8c0-6.7-6-8.1-11.5-8.1c-1.7,0-5.5,0.2-7,1.1
	c-1.4,0.8-1.5,1.8-1.5,3.3V391H447.3z M463.2,406.4c1.8,2.6,3.6,3.9,6.7,4.5v1.8H460l-13.3-19.2h-8.3v11.3c0,3.3,0.3,5.8,4.6,6.1
	h1.2v1.8h-17.6v-1.8l0.8-0.1c1.7-0.1,3.4-0.2,4.3-1.9c0.5-1.1,0.6-2.8,0.6-4.2v-24.9c0-3.3-0.3-5.5-4.6-5.8l-1.1-0.1v-1.8h23.7
	c6.8,0,14.2,2.1,14.2,10.4c0,6.2-5.2,9.9-11,10.4L463.2,406.4z"/>
<path class="st0" d="M477.4,380.3c0-3.4-0.2-6-4.3-6.4h-0.7v-1.8h16.1v1.8h-0.7c-4.2,0.4-4.3,3-4.3,6.4v24.8c0,3.1,0.3,5.4,4.2,5.7
	l0.9,0.1v1.8h-16.1v-1.8l0.9-0.1c3.9-0.4,4.2-2.6,4.2-5.7v-1.7V380.3z"/>
<path class="st0" d="M530.9,382.6l-2.1,0.7c-2.6-5-7.3-8.9-13.2-8.9c-2.2,0-2.3,1-2.3,2.7v27.1c0,1.5,0.1,3.3,0.5,4.5
	c0.8,1.9,2.8,2,4.5,2.1h1.2v1.8h-18.4v-1.8l1.1-0.1c1.7-0.1,3.6-0.2,4.4-1.9c0.6-1.3,0.7-3.3,0.7-4.8v-26.6c0-2-0.1-3-2.5-3
	c-6.1,0-10.5,3.7-13.2,8.9l-2-0.7l3.3-10.5h34.6L530.9,382.6z"/>
<path class="st0" d="M553.1,403.9c0,3.9,0.1,7,4.9,7h1.2v1.8h-18.5v-1.8h1.2c1.7-0.1,3.6-0.2,4.5-2c0.6-1.1,0.7-2.8,0.7-4.3v-8.9
	l-9.5-15.2c-2.1-3.5-3.2-5.8-7.4-6.6v-1.8h16.9v1.8c-1.5,0.2-4.6,0.4-4.6,2.5c0,1,0.7,2,1.2,2.8l8.2,12.9l7.9-12.4
	c0.6-1,1.2-2,1.2-3.2c0-2.1-2.7-2.3-4.2-2.7v-1.8h14.8v1.8c-5.1,0.8-6.4,3.3-9.2,7.3l-9.4,14.8V403.9z"/>
</svg>
