<?xml version="1.0" encoding="utf-8"?>
<!-- Generator: Adobe Illustrator 22.1.0, SVG Export Plug-In . SVG Version: 6.00 Build 0)  -->
<svg version="1.1" id="Layer_1" xmlns="http://www.w3.org/2000/svg" xmlns:xlink="http://www.w3.org/1999/xlink" x="0px" y="0px"
	 viewBox="0 0 194.5 33.6" style="enable-background:new 0 0 194.5 33.6;" xml:space="preserve">
<style type="text/css">
	.st0{fill:none;}
	.st1{fill:#005890;}
	.st2{fill:#FFFFFF;}
</style>
<line class="st0" x1="907.5" y1="-24.2" x2="-292.5" y2="-24.2"/>
<line class="st0" x1="907.5" y1="-24.2" x2="-292.5" y2="-24.2"/>
<line class="st0" x1="907.5" y1="-24.2" x2="-292.5" y2="-24.2"/>
<line class="st1" x1="908.4" y1="-32.3" x2="-291.6" y2="-32.3"/>
<line class="st0" x1="907.5" y1="-24.2" x2="-292.5" y2="-24.2"/>
<line class="st0" x1="907.5" y1="-24.2" x2="-292.5" y2="-24.2"/>
<line class="st0" x1="907.5" y1="-24.2" x2="-292.5" y2="-24.2"/>
<line class="st0" x1="907.5" y1="-24.2" x2="-292.5" y2="-24.2"/>
<line class="st0" x1="907.5" y1="-24.2" x2="-292.5" y2="-24.2"/>
<line class="st0" x1="907.5" y1="-24.2" x2="-292.5" y2="-24.2"/>
<path class="st2" d="M52,14.5l-0.9-2.1l-0.9,2.1H52z M52.2,14.8H50l-0.3,0.6c-0.1,0.2-0.1,0.4-0.1,0.5c0,0.2,0.1,0.3,0.2,0.4
	c0.1,0,0.3,0.1,0.6,0.1v0.2h-2v-0.2c0.2,0,0.4-0.1,0.5-0.3c0.1-0.2,0.3-0.5,0.5-0.9l2.2-4.9h0.1l2.2,5c0.2,0.5,0.4,0.8,0.5,0.9
	c0.1,0.1,0.2,0.1,0.4,0.2v0.2h-2.9v-0.2h0.1c0.2,0,0.4,0,0.5-0.1c0.1,0,0.1-0.1,0.1-0.2c0-0.1,0-0.1,0-0.2c0,0,0-0.1-0.1-0.3
	L52.2,14.8z"/>
<path class="st2" d="M58.5,12.3v3.3c0,0.3,0,0.5,0.1,0.6c0.1,0.1,0.2,0.1,0.4,0.2v0.2h-1.7V16c-0.2,0.2-0.4,0.4-0.6,0.5
	c-0.2,0.1-0.4,0.2-0.7,0.2c-0.2,0-0.4-0.1-0.6-0.2c-0.2-0.1-0.3-0.3-0.4-0.5c-0.1-0.2-0.1-0.5-0.1-1v-1.7c0-0.3,0-0.5-0.1-0.6
	c-0.1-0.1-0.2-0.1-0.4-0.2v-0.2h1.7v2.9c0,0.3,0,0.5,0,0.6c0,0.1,0.1,0.2,0.1,0.2c0.1,0,0.1,0.1,0.2,0.1c0.1,0,0.2,0,0.3-0.1
	c0.1-0.1,0.3-0.2,0.4-0.5v-2.3c0-0.3,0-0.5-0.1-0.6c-0.1-0.1-0.2-0.1-0.4-0.2v-0.2H58.5z"/>
<path class="st2" d="M61.9,12.2l0.1,1.4h-0.1c-0.2-0.4-0.4-0.7-0.6-0.9c-0.2-0.2-0.4-0.2-0.6-0.2c-0.1,0-0.2,0-0.3,0.1
	c-0.1,0.1-0.1,0.2-0.1,0.3c0,0.1,0,0.2,0.1,0.2c0.1,0.1,0.4,0.3,0.8,0.6c0.4,0.3,0.7,0.6,0.9,0.8c0.1,0.2,0.2,0.4,0.2,0.7
	c0,0.2-0.1,0.5-0.2,0.7c-0.1,0.2-0.3,0.4-0.5,0.5c-0.2,0.1-0.4,0.2-0.7,0.2c-0.2,0-0.5-0.1-0.8-0.2c-0.1,0-0.1-0.1-0.2-0.1
	c-0.1,0-0.2,0.1-0.2,0.2h-0.1l-0.1-1.5h0.1c0.1,0.4,0.3,0.7,0.5,0.9c0.2,0.2,0.5,0.3,0.7,0.3c0.1,0,0.3,0,0.3-0.1
	c0.1-0.1,0.1-0.2,0.1-0.3c0-0.1,0-0.3-0.1-0.4c-0.1-0.1-0.3-0.3-0.6-0.5c-0.5-0.3-0.7-0.6-0.9-0.7c-0.2-0.2-0.3-0.5-0.3-0.8
	c0-0.3,0.1-0.6,0.3-0.9c0.2-0.3,0.5-0.4,1-0.4c0.2,0,0.4,0.1,0.7,0.2c0.1,0,0.1,0.1,0.2,0.1c0.1,0,0.1,0,0.1,0c0,0,0.1-0.1,0.2-0.2
	H61.9z"/>
<path class="st2" d="M64.1,10.8v1.6h1v0.4h-1v2.6c0,0.2,0,0.4,0,0.5c0,0.1,0.1,0.1,0.1,0.2c0.1,0,0.1,0.1,0.2,0.1
	c0.2,0,0.4-0.1,0.5-0.4l0.1,0.1c-0.2,0.6-0.6,0.9-1.2,0.9c-0.3,0-0.5-0.1-0.7-0.2c-0.2-0.2-0.3-0.3-0.3-0.5c0-0.1,0-0.4,0-0.8v-2.3
	h-0.5v-0.2c0.4-0.3,0.7-0.6,0.9-0.8c0.3-0.3,0.5-0.6,0.7-1H64.1z"/>
<path class="st2" d="M67.1,12.3v1c0.3-0.4,0.5-0.7,0.7-0.9c0.2-0.1,0.4-0.2,0.6-0.2c0.2,0,0.3,0.1,0.4,0.2c0.1,0.1,0.1,0.2,0.1,0.4
	c0,0.2,0,0.4-0.1,0.5c-0.1,0.1-0.2,0.2-0.3,0.2c-0.2,0-0.3-0.1-0.4-0.2c-0.1-0.1-0.2-0.2-0.2-0.2l-0.1,0c-0.1,0-0.2,0-0.2,0.1
	c-0.1,0.1-0.2,0.2-0.3,0.4c-0.1,0.3-0.1,0.6-0.1,1v1l0,0.3c0,0.2,0,0.3,0,0.3c0,0.1,0.1,0.1,0.2,0.2c0.1,0,0.2,0.1,0.4,0.1v0.2h-2.2
	v-0.2c0.2,0,0.3-0.1,0.4-0.2c0.1-0.1,0.1-0.3,0.1-0.7v-2.3c0-0.2,0-0.4,0-0.5c0-0.1-0.1-0.1-0.1-0.2c-0.1,0-0.2-0.1-0.3-0.1v-0.2
	H67.1z"/>
<path class="st2" d="M71.2,15.6v-1.4c-0.4,0.2-0.6,0.4-0.8,0.7c-0.1,0.2-0.2,0.3-0.2,0.5c0,0.1,0,0.3,0.1,0.4
	c0.1,0.1,0.2,0.1,0.3,0.1C70.9,15.8,71,15.8,71.2,15.6 M71.2,15.9c-0.5,0.5-1,0.7-1.4,0.7c-0.2,0-0.4-0.1-0.6-0.2
	C69.1,16.2,69,16,69,15.8c0-0.3,0.1-0.6,0.4-0.9c0.3-0.3,0.9-0.6,1.8-1v-0.4c0-0.3,0-0.5-0.1-0.6c0-0.1-0.1-0.2-0.2-0.2
	c-0.1-0.1-0.2-0.1-0.3-0.1c-0.2,0-0.4,0-0.5,0.1c-0.1,0.1-0.1,0.1-0.1,0.2c0,0.1,0,0.1,0.1,0.2c0.1,0.1,0.2,0.3,0.2,0.4
	c0,0.1-0.1,0.3-0.2,0.4C70.1,13.9,70,14,69.8,14c-0.2,0-0.3-0.1-0.5-0.2c-0.1-0.1-0.2-0.2-0.2-0.4c0-0.2,0.1-0.4,0.3-0.6
	c0.2-0.2,0.4-0.4,0.7-0.5c0.3-0.1,0.6-0.2,0.9-0.2c0.4,0,0.7,0.1,0.9,0.3c0.2,0.2,0.4,0.4,0.4,0.6c0,0.1,0.1,0.4,0.1,0.9v1.6
	c0,0.2,0,0.3,0,0.4c0,0,0,0.1,0.1,0.1l0.1,0c0.1,0,0.2-0.1,0.2-0.2L73,16c-0.1,0.2-0.3,0.4-0.5,0.5c-0.2,0.1-0.3,0.1-0.5,0.1
	c-0.2,0-0.4-0.1-0.6-0.2C71.3,16.3,71.3,16.2,71.2,15.9"/>
<path class="st2" d="M74.8,10.4v5.3c0,0.3,0,0.5,0.1,0.6c0.1,0.1,0.2,0.1,0.4,0.1v0.2h-2.2v-0.2c0.2,0,0.3-0.1,0.4-0.2
	c0.1-0.1,0.1-0.3,0.1-0.6v-4.4c0-0.3,0-0.5-0.1-0.6c-0.1-0.1-0.2-0.1-0.4-0.1v-0.2H74.8z"/>
<path class="st2" d="M77.4,12.3v3.4c0,0.3,0,0.5,0.1,0.6c0.1,0.1,0.2,0.1,0.4,0.1v0.2h-2.2v-0.2c0.2,0,0.3-0.1,0.4-0.2
	c0.1-0.1,0.1-0.3,0.1-0.6v-2.5c0-0.3,0-0.5-0.1-0.6c-0.1-0.1-0.2-0.1-0.4-0.1v-0.2H77.4z M76.7,10.3c0.2,0,0.4,0.1,0.5,0.2
	c0.1,0.1,0.2,0.3,0.2,0.5c0,0.2-0.1,0.4-0.2,0.5c-0.1,0.1-0.3,0.2-0.5,0.2c-0.2,0-0.4-0.1-0.5-0.2C76.1,11.3,76,11.1,76,11
	c0-0.2,0.1-0.4,0.2-0.5C76.4,10.3,76.5,10.3,76.7,10.3"/>
<path class="st2" d="M80.3,15.6v-1.4c-0.4,0.2-0.6,0.4-0.8,0.7c-0.1,0.2-0.2,0.3-0.2,0.5c0,0.1,0.1,0.3,0.1,0.4
	c0.1,0.1,0.2,0.1,0.3,0.1C79.9,15.8,80.1,15.8,80.3,15.6 M80.3,15.9c-0.5,0.5-1,0.7-1.4,0.7c-0.2,0-0.4-0.1-0.6-0.2
	c-0.2-0.2-0.2-0.4-0.2-0.6c0-0.3,0.1-0.6,0.4-0.9c0.3-0.3,0.9-0.6,1.8-1v-0.4c0-0.3,0-0.5-0.1-0.6c0-0.1-0.1-0.2-0.2-0.2
	c-0.1-0.1-0.2-0.1-0.3-0.1c-0.2,0-0.3,0-0.5,0.1c-0.1,0.1-0.1,0.1-0.1,0.2c0,0.1,0,0.1,0.1,0.2c0.1,0.1,0.2,0.3,0.2,0.4
	c0,0.1-0.1,0.3-0.2,0.4C79.1,13.9,79,14,78.8,14c-0.2,0-0.3-0.1-0.5-0.2c-0.1-0.1-0.2-0.2-0.2-0.4c0-0.2,0.1-0.4,0.3-0.6
	c0.2-0.2,0.4-0.4,0.7-0.5c0.3-0.1,0.6-0.2,0.9-0.2c0.4,0,0.7,0.1,0.9,0.3c0.2,0.2,0.4,0.4,0.4,0.6c0,0.1,0.1,0.4,0.1,0.9v1.6
	c0,0.2,0,0.3,0,0.4c0,0,0,0.1,0.1,0.1l0.1,0c0.1,0,0.2-0.1,0.2-0.2l0.1,0.1c-0.1,0.2-0.3,0.4-0.5,0.5c-0.2,0.1-0.3,0.1-0.5,0.1
	c-0.2,0-0.4-0.1-0.6-0.2C80.4,16.3,80.3,16.2,80.3,15.9"/>
<path class="st2" d="M83.9,12.3v0.5c0.2-0.2,0.4-0.4,0.6-0.5c0.2-0.1,0.4-0.2,0.6-0.2c0.3,0,0.5,0.1,0.7,0.2
	c0.2,0.2,0.3,0.3,0.4,0.6c0,0.2,0.1,0.5,0.1,1v1.7c0,0.3,0,0.5,0.1,0.6c0.1,0.1,0.2,0.1,0.4,0.2v0.2h-2.1v-0.2
	c0.2,0,0.3-0.1,0.3-0.2c0-0.1,0.1-0.3,0.1-0.6v-1.9c0-0.3,0-0.6,0-0.7c0-0.1-0.1-0.2-0.1-0.2c-0.1,0-0.1-0.1-0.2-0.1
	c-0.3,0-0.5,0.2-0.7,0.6v2.3c0,0.3,0,0.5,0.1,0.6c0.1,0.1,0.2,0.1,0.3,0.2v0.2h-2.1v-0.2c0.2,0,0.3-0.1,0.4-0.2
	c0-0.1,0.1-0.3,0.1-0.6v-2.4c0-0.3,0-0.5-0.1-0.6c-0.1-0.1-0.2-0.1-0.4-0.2v-0.2H83.9z"/>
<path class="st2" d="M94.8,10.3v2.2h-0.2c-0.2-0.6-0.5-1-0.9-1.4c-0.4-0.3-0.8-0.5-1.3-0.5c-0.5,0-0.8,0.1-1.1,0.4
	c-0.3,0.3-0.5,0.6-0.6,1.1c-0.1,0.5-0.2,0.9-0.2,1.4c0,0.6,0.1,1.1,0.2,1.6c0.1,0.4,0.4,0.8,0.7,1c0.3,0.2,0.7,0.3,1.1,0.3
	c0.1,0,0.3,0,0.4,0c0.2,0,0.3-0.1,0.5-0.1v-1.3c0-0.2,0-0.4,0-0.5c0-0.1-0.1-0.1-0.2-0.2c-0.1-0.1-0.2-0.1-0.4-0.1h-0.2V14h2.9v0.2
	c-0.2,0-0.4,0-0.5,0.1c-0.1,0-0.2,0.1-0.2,0.2c0,0.1,0,0.2,0,0.4v1.3c-0.4,0.2-0.8,0.3-1.2,0.4c-0.4,0.1-0.8,0.1-1.3,0.1
	c-0.6,0-1-0.1-1.4-0.2c-0.4-0.2-0.7-0.4-1-0.6c-0.3-0.3-0.5-0.6-0.7-0.9c-0.2-0.4-0.3-0.9-0.3-1.4c0-0.9,0.3-1.7,1-2.3
	c0.6-0.6,1.4-1,2.4-1c0.3,0,0.6,0,0.8,0.1c0.1,0,0.3,0.1,0.6,0.2c0.3,0.1,0.5,0.2,0.5,0.2c0.1,0,0.2,0,0.2-0.1
	c0.1-0.1,0.1-0.2,0.2-0.4H94.8z"/>
<path class="st2" d="M97.7,12.5c-0.2,0-0.3,0.1-0.4,0.2c-0.1,0.1-0.2,0.3-0.2,0.7c0,0.3,0,0.8,0,1.4c0,0.3,0,0.6,0.1,0.9
	c0,0.2,0.1,0.4,0.2,0.5c0.1,0.1,0.2,0.2,0.4,0.2c0.1,0,0.2,0,0.3-0.1c0.1-0.1,0.2-0.2,0.2-0.4c0.1-0.3,0.1-0.9,0.1-1.7
	c0-0.5,0-0.9-0.1-1.1c-0.1-0.2-0.1-0.3-0.2-0.4C97.9,12.5,97.8,12.5,97.7,12.5 M97.7,12.2c0.4,0,0.7,0.1,1,0.3
	c0.3,0.2,0.5,0.5,0.7,0.8c0.2,0.3,0.2,0.7,0.2,1.2c0,0.6-0.1,1.1-0.4,1.5c-0.4,0.5-0.9,0.7-1.5,0.7c-0.6,0-1.1-0.2-1.4-0.7
	c-0.3-0.4-0.5-1-0.5-1.6c0-0.6,0.2-1.1,0.5-1.6C96.6,12.4,97.1,12.2,97.7,12.2"/>
<path class="st2" d="M101.6,16.7l-1.4-3.3c-0.2-0.4-0.3-0.6-0.4-0.8c-0.1-0.1-0.2-0.1-0.3-0.2v-0.2h2.2v0.2c-0.1,0-0.2,0-0.3,0.1
	c-0.1,0.1-0.1,0.1-0.1,0.2c0,0.1,0.1,0.3,0.2,0.6l0.7,1.6l0.5-1.4c0.2-0.4,0.2-0.7,0.2-0.8c0-0.1,0-0.2-0.1-0.2
	c-0.1-0.1-0.2-0.1-0.4-0.1v-0.2h1.4v0.2c-0.1,0-0.2,0.1-0.3,0.1c-0.1,0.1-0.2,0.3-0.4,0.7l-1.4,3.3H101.6z"/>
<path class="st2" d="M106.1,14c0-0.5,0-0.8-0.1-1c0-0.2-0.1-0.3-0.2-0.4c-0.1-0.1-0.1-0.1-0.2-0.1c-0.2,0-0.3,0.1-0.4,0.2
	c-0.2,0.3-0.3,0.6-0.3,1.1V14H106.1z M107.1,14.3h-2.3c0,0.6,0.2,1,0.4,1.3c0.2,0.3,0.4,0.4,0.7,0.4c0.2,0,0.3-0.1,0.5-0.2
	c0.1-0.1,0.3-0.3,0.5-0.5l0.2,0.1c-0.2,0.5-0.5,0.8-0.7,1c-0.3,0.2-0.6,0.3-0.9,0.3c-0.6,0-1.1-0.2-1.4-0.7
	c-0.3-0.4-0.4-0.9-0.4-1.5c0-0.7,0.2-1.3,0.6-1.7c0.4-0.4,0.8-0.6,1.3-0.6c0.4,0,0.8,0.2,1.1,0.5C107,13.1,107.1,13.6,107.1,14.3"/>
<path class="st2" d="M109.1,12.3v1c0.3-0.4,0.5-0.7,0.7-0.9c0.2-0.1,0.4-0.2,0.6-0.2c0.2,0,0.3,0.1,0.4,0.2c0.1,0.1,0.2,0.2,0.2,0.4
	c0,0.2,0,0.4-0.1,0.5c-0.1,0.1-0.2,0.2-0.3,0.2c-0.2,0-0.3-0.1-0.4-0.2c-0.1-0.1-0.2-0.2-0.2-0.2l-0.1,0c-0.1,0-0.2,0-0.2,0.1
	c-0.1,0.1-0.2,0.2-0.3,0.4c-0.1,0.3-0.1,0.6-0.1,1v1l0,0.3c0,0.2,0,0.3,0,0.3c0,0.1,0.1,0.1,0.2,0.2c0.1,0,0.2,0.1,0.4,0.1v0.2h-2.2
	v-0.2c0.2,0,0.3-0.1,0.4-0.2c0.1-0.1,0.1-0.3,0.1-0.7v-2.3c0-0.2,0-0.4,0-0.5c0-0.1-0.1-0.1-0.1-0.2c-0.1,0-0.2-0.1-0.3-0.1v-0.2
	H109.1z"/>
<path class="st2" d="M112.9,12.3v0.5c0.2-0.2,0.4-0.4,0.6-0.5c0.2-0.1,0.4-0.2,0.6-0.2c0.3,0,0.5,0.1,0.7,0.2
	c0.2,0.2,0.3,0.3,0.4,0.6c0,0.2,0.1,0.5,0.1,1v1.7c0,0.3,0,0.5,0.1,0.6c0.1,0.1,0.2,0.1,0.4,0.2v0.2h-2.1v-0.2
	c0.2,0,0.3-0.1,0.3-0.2c0-0.1,0.1-0.3,0.1-0.6v-1.9c0-0.3,0-0.6,0-0.7c0-0.1-0.1-0.2-0.1-0.2c-0.1,0-0.1-0.1-0.2-0.1
	c-0.3,0-0.5,0.2-0.7,0.6v2.3c0,0.3,0,0.5,0.1,0.6c0.1,0.1,0.2,0.1,0.3,0.2v0.2h-2.1v-0.2c0.2,0,0.3-0.1,0.4-0.2
	c0-0.1,0.1-0.3,0.1-0.6v-2.4c0-0.3,0-0.5-0.1-0.6c-0.1-0.1-0.2-0.1-0.4-0.2v-0.2H112.9z"/>
<path class="st2" d="M117.7,12.3v0.6c0.2-0.3,0.4-0.4,0.6-0.5c0.2-0.1,0.4-0.2,0.6-0.2c0.3,0,0.5,0.1,0.7,0.2
	c0.2,0.1,0.3,0.3,0.4,0.6c0.2-0.3,0.5-0.5,0.7-0.6c0.2-0.1,0.4-0.2,0.7-0.2c0.3,0,0.5,0.1,0.7,0.2c0.2,0.1,0.3,0.3,0.4,0.5
	c0.1,0.2,0.1,0.5,0.1,1v1.7c0,0.3,0,0.5,0.1,0.6c0.1,0.1,0.2,0.1,0.4,0.2v0.2h-2.1v-0.2c0.2,0,0.3-0.1,0.4-0.2
	c0.1-0.1,0.1-0.3,0.1-0.6v-1.8c0-0.4,0-0.6,0-0.7c0-0.1-0.1-0.2-0.1-0.2c-0.1-0.1-0.1-0.1-0.2-0.1c-0.1,0-0.3,0-0.4,0.1
	c-0.1,0.1-0.3,0.2-0.4,0.4v2.3c0,0.3,0,0.5,0.1,0.6c0.1,0.1,0.2,0.2,0.4,0.2v0.2h-2.1v-0.2c0.1,0,0.2,0,0.3-0.1
	c0.1-0.1,0.1-0.1,0.1-0.2c0-0.1,0-0.2,0-0.5v-1.8c0-0.4,0-0.6,0-0.7c0-0.1-0.1-0.2-0.1-0.2c-0.1-0.1-0.1-0.1-0.2-0.1
	c-0.1,0-0.2,0-0.3,0.1c-0.1,0.1-0.3,0.3-0.4,0.5v2.3c0,0.3,0,0.5,0.1,0.6c0.1,0.1,0.2,0.2,0.4,0.2v0.2H116v-0.2
	c0.2,0,0.3-0.1,0.4-0.2c0-0.1,0.1-0.3,0.1-0.6v-2.4c0-0.3,0-0.5-0.1-0.6c-0.1-0.1-0.2-0.1-0.4-0.2v-0.2H117.7z"/>
<path class="st2" d="M125.6,14c0-0.5,0-0.8-0.1-1c0-0.2-0.1-0.3-0.2-0.4c-0.1-0.1-0.1-0.1-0.3-0.1c-0.2,0-0.3,0.1-0.4,0.2
	c-0.2,0.3-0.3,0.6-0.3,1.1V14H125.6z M126.7,14.3h-2.3c0,0.6,0.2,1,0.4,1.3c0.2,0.3,0.4,0.4,0.7,0.4c0.2,0,0.3-0.1,0.5-0.2
	c0.1-0.1,0.3-0.3,0.5-0.5l0.2,0.1c-0.2,0.5-0.5,0.8-0.7,1c-0.3,0.2-0.6,0.3-0.9,0.3c-0.6,0-1.1-0.2-1.4-0.7
	c-0.3-0.4-0.4-0.9-0.4-1.5c0-0.7,0.2-1.3,0.6-1.7c0.4-0.4,0.8-0.6,1.3-0.6c0.4,0,0.8,0.2,1.1,0.5C126.5,13.1,126.7,13.6,126.7,14.3"
	/>
<path class="st2" d="M128.6,12.3v0.5c0.2-0.2,0.4-0.4,0.6-0.5c0.2-0.1,0.4-0.2,0.6-0.2c0.3,0,0.5,0.1,0.7,0.2
	c0.2,0.2,0.3,0.3,0.4,0.6c0,0.2,0.1,0.5,0.1,1v1.7c0,0.3,0,0.5,0.1,0.6c0.1,0.1,0.2,0.1,0.4,0.2v0.2h-2.1v-0.2
	c0.2,0,0.3-0.1,0.3-0.2c0-0.1,0.1-0.3,0.1-0.6v-1.9c0-0.3,0-0.6,0-0.7c0-0.1-0.1-0.2-0.1-0.2c-0.1,0-0.1-0.1-0.2-0.1
	c-0.3,0-0.5,0.2-0.7,0.6v2.3c0,0.3,0,0.5,0.1,0.6c0.1,0.1,0.2,0.1,0.3,0.2v0.2h-2.1v-0.2c0.2,0,0.3-0.1,0.4-0.2
	c0.1-0.1,0.1-0.3,0.1-0.6v-2.4c0-0.3,0-0.5-0.1-0.6c-0.1-0.1-0.2-0.1-0.4-0.2v-0.2H128.6z"/>
<path class="st2" d="M133.1,10.8v1.6h1v0.4h-1v2.6c0,0.2,0,0.4,0,0.5c0,0.1,0.1,0.1,0.1,0.2c0.1,0,0.1,0.1,0.2,0.1
	c0.2,0,0.4-0.1,0.5-0.4l0.1,0.1c-0.2,0.6-0.6,0.9-1.2,0.9c-0.3,0-0.5-0.1-0.7-0.2c-0.2-0.2-0.3-0.3-0.3-0.5c0-0.1,0-0.4,0-0.8v-2.3
	h-0.5v-0.2c0.4-0.3,0.7-0.6,1-0.8c0.3-0.3,0.5-0.6,0.7-1H133.1z"/>
<path class="st2" d="M15.1,26.9c0,0.1-0.1,0.1-0.1,0.1"/>
<path class="st2" d="M16.1,18.5c0.1,0,0.2-0.1,0.2-0.2c0-0.1-0.1-0.2-0.2-0.2c-0.1,0-0.2,0.1-0.2,0.2C15.9,18.4,16,18.5,16.1,18.5"
	/>
<path class="st2" d="M26.1,13.6h-2.4V9.3h2.4V13.6z M26.1,15.6c0,0.5-0.2,0.9-0.5,1.1l-1.9,1.2v-4.1h2.4V15.6z M23.4,13.6h-2.2V9.3
	h2.2V13.6z M23.4,18l-0.9,0.5h0c-0.1,0.1-0.1,0.1-0.2,0.1c-0.1,0-0.2,0-0.2-0.1L21.2,18v-4.2h2.2V18z M20.3,12H21v1.6h-0.7V12z
	 M21,17.9l-1.9-1.2c-0.3-0.2-0.5-0.6-0.5-1.1v-1.8H21V17.9z M19.4,10.9h-0.8V9.3h0.8V10.9z M19.6,9.9l0.1-0.1l-0.1-0.1l0.1,0
	l0.1-0.1L20,9.7l0.1,0L20,9.8l0.1,0.1l-0.1,0v0.1L19.9,10l-0.1,0.1V9.9L19.6,9.9z M20.2,11.6L20.2,11.6c-0.2-0.1-0.2,0.1-0.2,0.1
	c0,0-0.1,0-0.1-0.1l0.1-0.1c-0.5,0-0.5,0.2-0.6,0.2c-0.1,0,0.1-0.3,0.2-0.3c-0.1,0-0.2-0.1-0.3-0.2c0.1-0.1,0.1,0,0.2,0
	c0-0.1,0-0.1,0.2-0.1c0.2,0,0.2,0.2,0.2,0.2c0,0,0-0.2,0.1-0.2c0.2,0,0.5,0.6,0.3,0.6C20.1,11.7,20.2,11.7,20.2,11.6 M19.7,12.9
	l0.1,0l0.1-0.1l0.1,0.1l0.1,0L20,13l0.1,0.1l-0.1,0v0.1l-0.1-0.1l-0.1,0.1v-0.1l-0.1,0l0.1-0.1L19.7,12.9z M18.7,11.3l0.1,0l0.1-0.1
	l0.1,0.1l0.1,0l-0.1,0.1l0.1,0.1l-0.1,0v0.1L19,11.6l-0.1,0.1v-0.1l-0.1,0l0.1-0.1L18.7,11.3z M18.6,12h0.8v1.6h-0.8V12z M20.5,11.5
	l0.1-0.1l-0.1-0.1l0.1,0l0.1-0.1l0.1,0.1l0.1,0l-0.1,0.1l0.1,0.1l-0.1,0v0.1l-0.1-0.1l-0.1,0.1v-0.1L20.5,11.5z M21,10.9h-0.7V9.3
	H21V10.9z M26.3,9L26.3,9l-7.9,0v0h0l0,6.5c0,0.6,0.3,1.2,0.6,1.3l3,1.9c0.1,0.1,0.2,0.1,0.3,0.1c0.1,0,0.2,0,0.2-0.1l3.1-1.9
	c0.4-0.2,0.6-0.7,0.6-1.3L26.3,9L26.3,9z"/>
<path class="st2" d="M20.9,15.3c0,0-0.3,0.1-0.2,0.1c0-0.1,0.2-0.3,0.2-0.3c0-0.1-0.1,0-0.3,0.1c0.4-0.7,0.2-0.4-0.1-0.3
	c0.4-0.4,0.3-0.4,0-0.3c0.2-0.2,0.3-0.4,0.2-0.5c-0.2,0.3-0.4,0.3-0.4,0.5c0,0.2-0.1,0.5-0.2,0.6c-0.1,0.1,0-0.5-0.3-0.5
	c-0.1,0-0.3,0-0.4,0.1c0.1,0,0.2,0.2,0.2,0.2c0,0.1,0.1,0.2,0,0.2c-0.1,0-0.2-0.2-0.2-0.3c0-0.1,0-0.1,0-0.2c0-0.3-0.4-0.6-0.6-0.6
	c0,0.2,0.2,0.2,0.2,0.5c-0.1,0-0.2-0.2-0.2-0.1c0,0.1,0.1,0.1,0.1,0.2c0,0.1-0.2,0-0.2,0.1c0,0.1,0.1,0.1,0.1,0.2
	c-0.1,0-0.1,0-0.1,0c0,0,0,0.1,0.1,0.1c0,0,0,0.1,0,0.2c0,0.5,0.3,0.8,0.5,0.8c0.2,0,0.1-0.1,0.2-0.2c0,0.1,0.1,0,0.1,0.1
	c0,0.2-0.2,0.1-0.2,0.2c0,0.2,0.3,0,0.3,0.2c0,0.2,0,0.2,0,0.3c0,0.1,0.3-0.1,0.2-0.1c0.1,0,0.1,0.2,0.2,0.2c0.1,0,0.1-0.2,0.2-0.2
	c0,0,0.2,0.2,0.2,0.1c0-0.2-0.1-0.1-0.1-0.3c0-0.2,0.3-0.1,0.3-0.2c0-0.1-0.1,0-0.1-0.1c0,0-0.3-0.4,0.1-0.2
	C20.9,16.1,20.9,15.3,20.9,15.3"/>
<path class="st2" d="M29.3,17c0.1,0,0.3-0.1,0.3-0.2c0-0.1-0.1-0.2-0.3-0.2c-0.1,0-0.3,0.1-0.3,0.2C29,16.9,29.2,17,29.3,17"/>
<path class="st2" d="M28.3,17.7c0.1,0,0.3-0.1,0.3-0.2c0-0.1-0.1-0.2-0.3-0.2c-0.1,0-0.3,0.1-0.3,0.2C28,17.5,28.1,17.7,28.3,17.7"
	/>
<path class="st2" d="M15.8,19.1c0.1,0,0.3-0.1,0.3-0.2c0-0.1-0.1-0.2-0.3-0.2c-0.1,0-0.3,0.1-0.3,0.2C15.5,19,15.6,19.1,15.8,19.1"
	/>
<path class="st2" d="M16.6,19.2c0.1,0,0.3-0.1,0.3-0.2c0-0.1-0.1-0.2-0.3-0.2c-0.1,0-0.3,0.1-0.3,0.2C16.3,19.1,16.4,19.2,16.6,19.2
	"/>
<path class="st2" d="M39,8.1c0.4,0.5,0.5,1.2,0.2,1.8c-0.1,0-0.1-0.2-0.1-0.3c-0.3-0.5-0.5-1.2-0.2-1.8C39,7.7,38.9,8,39,8.1"/>
<path class="st2" d="M6.1,8.7C6,9,6,9.5,6.1,9.8C6,9.9,6,9.7,6,9.8C5.4,9.4,5.7,8.6,5.5,8l0.1,0C5.9,8.2,6,8.4,6.1,8.7"/>
<path class="st2" d="M40.2,8.7c0.1,0.2-0.1,0.3-0.2,0.4c-0.1,0-0.3,0-0.3-0.2c0-0.2,0-0.3,0.2-0.4C40,8.6,40.1,8.6,40.2,8.7"/>
<path class="st2" d="M5.2,9.4c0,0.1-0.1,0.3-0.2,0.3c-0.1,0-0.2,0-0.3-0.1C4.7,9.5,4.7,9.4,4.8,9.3C4.8,9.2,4.9,9.2,5,9.2
	C5.1,9.2,5.2,9.2,5.2,9.4"/>
<path class="st2" d="M40.8,9.6c0,0.1,0,0.1,0,0.2C40.7,10,40.5,10,40.4,10c-0.1-0.1-0.1-0.2-0.2-0.2c0-0.1,0.1-0.2,0.2-0.3
	C40.6,9.5,40.7,9.5,40.8,9.6"/>
<path class="st2" d="M40,9.6c0.1,0.1,0,0.2,0,0.3c-0.1,0.1-0.2,0.2-0.3,0.1c-0.1-0.1-0.2-0.1-0.2-0.2c0-0.1,0.1-0.3,0.2-0.3
	C39.8,9.5,39.9,9.6,40,9.6"/>
<path class="st2" d="M39,9.8c0,0.2,0,0.4-0.2,0.4c-0.2,0.1-0.3-0.1-0.3-0.2c0-0.1,0.1-0.3,0.2-0.3C38.8,9.7,38.9,9.7,39,9.8"/>
<path class="st2" d="M6.8,9.9c0,0.1-0.1,0.2-0.2,0.3c-0.1,0-0.2-0.1-0.3-0.2c-0.1-0.1,0-0.2,0.1-0.3C6.5,9.6,6.7,9.7,6.8,9.9"/>
<path class="st2" d="M5.9,9.9c0,0.1-0.1,0.2-0.2,0.3c-0.1,0-0.2,0-0.3-0.1c-0.1-0.1,0-0.3,0.1-0.3C5.8,9.7,5.9,9.8,5.9,9.9"/>
<path class="st2" d="M35.6,10c0.1,0.3,0.2,0.7,0.3,1c-0.1,0.3,0,0.6-0.2,0.8c-0.2-0.1-0.2-0.3-0.3-0.4c-0.2-0.5,0-1.1,0.1-1.6
	C35.6,9.8,35.6,9.9,35.6,10"/>
<path class="st2" d="M5.3,10.2c0,0.2-0.1,0.3-0.2,0.4c-0.2,0-0.3-0.1-0.3-0.2c0-0.1,0.1-0.3,0.2-0.3C5.1,10,5.2,10,5.3,10.2"/>
<path class="st2" d="M37.8,10.6c0.2,0.4,0.2,0.9,0.1,1.4L37.8,12c-0.2-0.4-0.5-0.7-0.6-1.1c0-0.3,0.1-0.6,0.2-0.8
	c0.1-0.1,0.2,0,0.2,0.1C37.6,10.3,37.7,10.5,37.8,10.6"/>
<path class="st2" d="M39.6,10.3c0,0.1-0.1,0.3-0.2,0.3c-0.1,0-0.3,0-0.3-0.2c0-0.1,0-0.3,0.1-0.3C39.3,10.1,39.5,10.2,39.6,10.3"/>
<path class="st2" d="M5.9,10.8c0,0.1-0.1,0.2-0.2,0.3c-0.1,0.1-0.2-0.1-0.3-0.1c0-0.1-0.1-0.2,0-0.3c0-0.1,0.1-0.1,0.2-0.1
	C5.8,10.6,5.9,10.6,5.9,10.8"/>
<path class="st2" d="M6.5,10.7c0.1,0.1-0.1,0.2-0.2,0.3c-0.2,0.1-0.2-0.1-0.3-0.2c0-0.1,0.1-0.2,0.2-0.3C6.4,10.5,6.5,10.6,6.5,10.7
	"/>
<path class="st2" d="M39.9,10.7c0,0.2-0.3,0.4-0.3,0.6c-0.2,0.4-0.5,0.7-0.9,0.8c-0.1,0.1-0.2,0.2-0.3,0.2c0-0.3,0.2-0.5,0.4-0.8
	C39.1,11,39.5,10.8,39.9,10.7"/>
<path class="st2" d="M5.7,11.2c0.2,0.2,0.3,0.5,0.6,0.7c0,0.1,0,0.1-0.1,0.1c-0.7,0-1.1-0.8-1.5-1.2c0-0.2,0.2,0,0.3,0
	C5.2,11,5.5,11,5.7,11.2"/>
<path class="st2" d="M40.1,11.4c0,0.6-0.3,1.2-0.9,1.5c-0.2,0.1-0.3,0.2-0.5,0.1c0.3-0.6,0.7-1.1,1.2-1.6H40.1z"/>
<path class="st2" d="M37.5,11.9c0,0.2-0.1,0.3-0.2,0.4c-0.2,0-0.2-0.1-0.3-0.2c0-0.1,0.1-0.3,0.2-0.3c0,0,0.1,0,0.2,0
	C37.4,11.7,37.4,11.8,37.5,11.9"/>
<path class="st2" d="M4.9,12c0.3,0.2,0.5,0.4,0.7,0.7c-0.2,0.1-0.4,0-0.6,0c-0.5-0.2-0.8-0.6-1.3-0.7c0-0.2,0.2-0.1,0.3-0.1
	C4.4,11.8,4.6,11.9,4.9,12"/>
<path class="st2" d="M19.6,7.8c-0.8-0.3-1.3,0.5-2.1,0.4c-0.1,0.1-0.1,0.2-0.1,0.2l-0.2,0c0-0.3-0.2-0.7-0.2-1C17,7.3,17.1,7.1,17,7
	c-0.4-1.2,1.1-0.3,1.4-1c0.3-0.6-0.5-0.7-0.7-1.1V4.6C17.4,4.4,17.2,4.3,17,4c0.1-0.4,0.1-0.7,0-1.1c0-0.1-0.1-0.2-0.2-0.2
	c-0.3,0.4-0.5,0.7-0.7,1c-0.3-0.2-0.5-0.5-0.8-0.6c-0.2,0-0.4-0.2-0.6-0.2c0,0.1,0,0.2,0,0.2c0,0.6,0.3,1,0.7,1.4l0,0.2
	c-0.2,0.6-0.2,1.2-0.2,1.9c-0.6,1.6-1.6,3.2-3,4.3c-0.8,0.9-1.7,1.8-1.8,3c0,0.2,0,0.4-0.1,0.6c-0.5-0.2-0.9-0.4-1.3-0.7
	c-0.6-0.5-1.5-0.4-2-1.2c-0.2-0.3,0-0.7,0.2-0.9c0.5-0.5,0.4-1.3,0.2-1.8c-0.1,0-0.1,0.1-0.1,0.1c0,0.8-0.7,1.4-0.4,2.3
	c0.1,0.3,0.2,0.4,0.3,0.7c-0.1,0-0.2,0-0.3-0.1c-0.3,0-0.6-0.2-0.9-0.1c-0.6,0.3-1.5-0.1-2,0.5c-0.1,0-0.2,0-0.2,0.2
	c0.3,0,0.6,0.1,0.9,0.1c0.5,0.1,0.8-0.3,1.1-0.5h0.1C6,13,6.2,13.1,6.4,13c0.9,0.1,1.5,0.5,2.3,1v0.1c-0.3,0.1-0.6,0.2-0.9,0.4
	c-0.3,0.2-0.7,0.6-0.8,1c-0.2,0.4,0.1,0.7,0.2,1c0,0.1,0,0.3,0.2,0.4c0.4-0.5,0-1.1,0.1-1.6c0.1-0.4,0.5-0.6,0.9-0.7
	c0.8-0.3,1.3,0.3,2,0.7c0,0.7,0.1,1.3-0.1,1.9c-0.2,0.1-0.4,0.1-0.6,0.1c-1.1,0.1-1.9,0.7-2.9,1c-0.4,0.2-1,0.1-1.4,0.3
	c0.3,0.1,0.7,0,1.1,0c1.3-0.2,2.4-1.3,3.8-1.1l0,0C10,17.7,9.8,18,9.6,18.2c0-0.2-0.1-0.3-0.2-0.4c-0.1-0.1-0.2,0-0.3,0.1
	c0,0.1,0,0.2,0,0.2c0.1,0.1,0.2,0.2,0.3,0.2c0,0.1-0.2,0.2-0.3,0.3c-0.4,0.7-1.2,0.4-1.6,0.9c-0.1,0.1-0.3,0.2-0.2,0.3
	c0.5,0.1,1-0.1,1.4-0.4c0.5-0.6,1-1.1,1.6-1.7c0.1,0.5,0,0.9-0.3,1.3c-0.1-0.1-0.2-0.2-0.4-0.2c-0.1,0-0.2,0.2-0.2,0.3
	c0.1,0.1,0.1,0.2,0.2,0.3C9,19.8,8.5,19.8,7.9,20c-1,0.1-2,0.2-3,0.2c-0.5,0-1,0.1-1.5,0c-0.5,0.1-1.1-0.1-1.5,0.2
	c-0.1,0.1,0,0.1,0,0.2c0.6,0.4,1.5,0.1,2.2,0.2h5.4c0.4,0,0.8,0,1.1-0.2c0.7-0.4,1.1-1.1,1.4-1.9c0.1-0.3,0.2-0.6,0.3-0.9
	c0.1-0.5,0.6-0.8,1-0.9c0.1,0.7-0.1,1.5-0.2,2.2c-0.1,0.5-0.4,0.9-0.2,1.4c0,0.2,0.3,0.2,0.5,0.3c1.7,0,3.3-0.1,5.1,0
	c0.3,0.1,0.6,0.2,0.9,0.1c0,0,0.1-0.1,0.1-0.1c0-0.2-0.2-0.4-0.3-0.4c0-0.1-0.2-0.1-0.2-0.1c-0.9-0.5-1.9-0.2-3-0.2
	c-0.5,0.1-1.1,0.2-1.5-0.2c-0.2-0.3-0.1-1.1-0.1-1.1c0-0.3,0.8-2.6,0.9-2.7c0-0.2,0.1-0.4,0.1-0.7c0.1-0.3,0.1-0.7,0.1-1
	c0.1-0.5,0.3-0.9,0.4-1.3c0.1-0.2,0.2-0.4,0.2-0.7c0.1-0.3,0.1-0.5,0.3-0.7c0.4,0.3,0.9,0.3,1.1,0.8l0.2,1.2c0,0.1,0.1,0.2,0.2,0.1
	c0.4-0.2,0.2-0.8,0.2-1.1c0.1-0.4-0.2-0.7-0.3-1c-0.1-0.1-0.3-0.4-0.3-0.4c-0.1-0.3-0.7-0.5-0.6-0.9c0.1-0.3,0.2-0.6,0.5-0.8
	c0,0,0.1,0.1,0.1,0.1l0.2-0.1l0-1.2c0.4,0,1.1,0.1,1.6,0.1c0.1,0,0.2,0.1,0.4,0.2l0.1-0.2l1.1-0.2C20.4,8.3,20.1,7.8,19.6,7.8"/>
<line class="st0" x1="907.5" y1="-24.2" x2="-292.5" y2="-24.2"/>
<path class="st2" d="M20.9,8.3l0.1,0L20.9,8.3z"/>
<path class="st2" d="M8.9,12.2c0,0.2-0.1,0.3-0.2,0.3c-0.1,0-0.2-0.1-0.3-0.2c-0.1-0.2,0.1-0.3,0.2-0.3C8.7,12.1,8.8,12.1,8.9,12.2"
	/>
<path class="st2" d="M8,12.2c0.1,0.1,0.1,0.2,0.1,0.3c-0.1,0.1-0.2,0.2-0.3,0c-0.1-0.1-0.2-0.2-0.1-0.3C7.7,12.2,7.9,12.1,8,12.2"/>
<path class="st2" d="M37.6,12.6c0.1,0.2-0.1,0.3-0.2,0.3c-0.1,0-0.3-0.1-0.3-0.3c0-0.1,0.1-0.2,0.2-0.2
	C37.5,12.5,37.6,12.6,37.6,12.6"/>
<path class="st2" d="M38.4,12.6c0,0.1,0.1,0.2,0,0.3c-0.1,0-0.1,0.1-0.1,0.1c-0.2,0-0.3,0-0.3-0.2c0-0.2,0.1-0.2,0.2-0.3
	C38.2,12.5,38.3,12.6,38.4,12.6"/>
<path class="st2" d="M4.5,12.8C4.5,13,4.3,13,4.1,13c0,0-0.1-0.1-0.1-0.2c0-0.1,0-0.2,0.2-0.2C4.4,12.6,4.5,12.6,4.5,12.8"/>
<path class="st2" d="M9.2,13c0,0.1-0.1,0.2-0.2,0.3c-0.1,0-0.2-0.1-0.3-0.2c0-0.1,0.1-0.3,0.2-0.3C8.9,12.8,9.1,12.9,9.2,13"/>
<path class="st2" d="M8.3,12.9c0,0,0.1,0.2,0,0.2c-0.1,0.1-0.2,0.2-0.3,0.1C8,13.2,7.9,13.1,7.9,13c0.1-0.1,0.1-0.1,0.2-0.2
	C8.2,12.8,8.3,12.9,8.3,12.9"/>
<path class="st2" d="M40.5,13.1c0,0.1-0.1,0.2-0.2,0.3c-0.1,0-0.2,0-0.3-0.1c-0.1,0-0.1-0.1-0.1-0.2c0.1-0.1,0.2-0.2,0.3-0.2
	C40.3,12.9,40.4,13,40.5,13.1"/>
<path class="st2" d="M41.3,13.2c0,0.1-0.1,0.2-0.3,0.3c-0.1,0-0.2,0-0.2-0.2c0-0.1,0.1-0.2,0.1-0.2C41.1,13,41.3,13.1,41.3,13.2"/>
<path class="st2" d="M6.1,13.4c0,0.2,0,0.3-0.2,0.3c-0.1,0.1-0.2,0-0.3-0.1c-0.1-0.1-0.1-0.2-0.1-0.3c0-0.1,0.2-0.1,0.2-0.2
	C6,13.3,6,13.3,6.1,13.4"/>
<path class="st2" d="M6.8,13.5c0,0.1-0.1,0.2-0.1,0.2c-0.1,0-0.2,0.1-0.2,0c-0.1-0.1-0.2-0.2-0.1-0.3C6.4,13.3,6.7,13.4,6.8,13.5"/>
<path class="st2" d="M39.6,13.5c0,0.1-0.1,0.2-0.2,0.3c-0.1,0-0.2-0.1-0.3-0.2c0-0.1,0.1-0.2,0.2-0.3C39.5,13.3,39.6,13.4,39.6,13.5
	"/>
<path class="st2" d="M40.8,13.7c0,0.1,0,0.3-0.2,0.4c-0.1,0-0.2,0-0.3-0.1c-0.1-0.1-0.1-0.2-0.1-0.3c0.1-0.1,0.2-0.2,0.3-0.2
	C40.7,13.6,40.7,13.7,40.8,13.7"/>
<path class="st2" d="M5.6,14c0.1,0.1-0.1,0.1-0.1,0.2c-0.1,0.1-0.2,0-0.3,0c-0.1-0.1-0.1-0.2,0-0.3C5.3,13.7,5.5,13.8,5.6,14"/>
<path class="st2" d="M39.9,14.3c0.1,0,0,0.1,0,0.1c-0.3,0.2-0.8,0.2-1.1-0.1c-0.2-0.1-0.4-0.2-0.5-0.3c0.1-0.2,0.3-0.2,0.5-0.2
	C39.2,13.9,39.5,14.3,39.9,14.3"/>
<path class="st2" d="M6.2,14.1c0,0.1-0.1,0.2-0.1,0.2c-0.1,0.1-0.2,0.1-0.2,0c-0.1-0.1-0.2-0.2-0.1-0.4C6,13.9,6.1,14,6.2,14.1"/>
<path class="st2" d="M7.4,14.2c0.1,0.1,0,0.2-0.1,0.3c-0.1,0.1-0.2,0-0.3,0C7,14.4,6.8,14.3,7,14.2C7.1,14,7.3,14.1,7.4,14.2"/>
<path class="st2" d="M23.4,14.8c0,0.3-0.5,0-0.4,0.3c0.1,0.3,0.1,0.6,0.3,0.8c0.1,0.2,0.1,0.5,0.1,0.7c-0.1,0.2-0.3,0.4-0.5,0.5
	c-0.4,0-1,0.2-1.2-0.3c-0.1-0.2-0.2-0.4-0.2-0.7l0.1-0.1c0-0.1-0.1-0.1-0.1-0.2c0.4-0.1-0.2-0.5,0.2-0.5c0.3,0.3,0.8,0.2,1.1,0.6
	c0.1,0.1,0.1,0.1,0.2,0.2c-0.1-0.3-0.2-0.7-0.3-1c0-0.2,0-0.4,0.2-0.5C23,14.4,23.2,14.7,23.4,14.8"/>
<path class="st2" d="M8.7,14.7c0,0.1-0.1,0.2-0.2,0.3c-0.1,0.1-0.2-0.1-0.2-0.2c0-0.1,0.1-0.2,0.1-0.3C8.5,14.6,8.6,14.6,8.7,14.7"
	/>
<path class="st2" d="M17.1,14.9c0.2,0.6,0.1,1.1-0.2,1.6c0,0.1,0,0.3-0.1,0.3c-0.4-0.5-0.1-1.3,0.1-1.8
	C16.9,14.8,17.1,14.7,17.1,14.9"/>
<path class="st2" d="M28.9,15.2c0.2,0.4,0.2,0.9,0,1.3l-0.1,0.1c-0.1-0.3-0.3-0.7-0.3-1c0.1-0.3,0.2-0.5,0.2-0.8
	C28.9,14.8,28.9,15,28.9,15.2"/>
<path class="st2" d="M9.7,15.3c-0.1,0.2-0.3,0.2-0.5,0.3c-0.3,0.3-0.8,0.3-1.2,0.2c0.4-0.5,0.9-0.8,1.6-0.7
	C9.6,15.3,9.7,15.2,9.7,15.3"/>
<path class="st2" d="M4.1,15.8c0.5,0.4,0.6,0.9,0.9,1.4c0,0.1,0.2,0.1,0.1,0.2c-0.1,0.1-0.2-0.1-0.4-0.1c-0.5-0.2-0.9-0.8-0.8-1.5
	C3.9,15.8,4,15.8,4.1,15.8"/>
<path class="st2" d="M28.4,16.3c0,0.1,0,0.3-0.1,0.3c-0.2,0-0.3,0-0.3-0.2c0-0.1,0-0.2,0.1-0.2C28.1,16.1,28.3,16.1,28.4,16.3"/>
<path class="st2" d="M34.2,17c0-0.3,0.1-0.5,0.1-0.8c0-0.1,0.1-0.2,0.1-0.3c0.3-0.5,1-0.3,1.5-0.3c0.2,0.1,0.5,0.1,0.7,0.2
	c0.1-0.1,0.2-0.1,0.3-0.1c0.4-0.2,0.2-0.8,0.2-1.2l-0.2-0.4c0-0.1-0.1-0.2-0.1-0.3c-0.1-0.1-0.1-0.3-0.2-0.4c-0.2-0.6-0.7-1-1.1-1.5
	c-0.7-0.9-1.8-1.5-2.9-1.8c-1.1-0.4-2.2,0.1-3.2,0.5c-0.3-0.1-0.5-0.3-0.5-0.6C28.9,9.5,29,9,29.2,8.5c0-0.4,0.3-0.6,0.4-1
	c0.2-0.8,0.5-1.6,0.6-2.4c0-0.5-0.4-0.9-0.7-1.1C29.1,4,28.8,4,28.6,4.2C28.4,4.6,28,4.8,27.7,5c0,0.2,0.3,0.1,0.4,0.2
	c0.3,0.1,0.6,0,0.9,0.2c0,0.6-0.3,1-0.6,1.5c-0.5,0.7-1,1.4-1.3,2.2L27.1,9l0.1,3.5c0.4,0.7,1,1.6,1.8,1.9c0.4,0.4,1,0.8,1.6,0.5
	c0.3-0.1,0.3,0.4,0.5,0.5c0.2,0.5-0.2,0.9-0.2,1.4l-0.4,0.8c-0.4,0.8-0.8,1.7-1.4,2.4c-0.2,0-0.3,0.2-0.5,0.2
	c-0.1,0.2-0.3,0-0.5,0.1c-0.4,0.2-1,0.1-1.3,0.5l0.1,0.1c0.8,0,1.8,0.1,2.7,0c0.1,0,0.2-0.1,0.2-0.3c-0.1-0.2,0-0.5,0.2-0.6
	c0.1-0.3,0.3-0.6,0.4-0.9c0.3-0.6,0.6-1.1,0.9-1.7l0.4-0.7c0.1-0.2,0.3-0.5,0.4-0.8c0.1-0.1,0.2-0.2,0.2-0.4c0-0.1-0.1-0.2-0.1-0.3
	c0.1-0.1,0.2-0.1,0.4-0.1c0.3,0.2,0.7,0.6,0.8,0.9l0.1,0.4l0.1,0.2l0,0.5l0.1,0.4c0.1,0.7-0.1,1.4-0.1,2.1c-0.2,0.8-1.2,0.7-1.8,0.9
	c-0.2,0.1-0.5,0.1-0.5,0.3c0.8,0.2,1.7,0.1,2.6,0.1c0.1-0.1,0.2-0.2,0.2-0.3c0-0.2,0.2-0.3,0.2-0.5c-0.2-0.2,0-0.5-0.1-0.8
	c0-0.1,0-0.2,0-0.3c0.1-0.4,0.1-0.9,0.2-1.3L34.2,17z"/>
<path class="st2" d="M41,16.5c-0.4,0.6-0.9,1.4-1.7,1.6c-0.1,0-0.1,0-0.1,0c0.5-0.5,0.7-1.3,1.4-1.5C40.7,16.5,40.9,16.4,41,16.5"/>
<path class="st2" d="M3.4,17.1c-0.1,0.1,0,0.2-0.1,0.2c-0.1,0.1-0.2,0-0.3-0.1c-0.1-0.1,0.1-0.3,0.2-0.3C3.3,17,3.4,17,3.4,17.1"/>
<path class="st2" d="M7.4,17.3c0,0.1-0.1,0.1-0.2,0.2c-0.6,0.2-1.2,0-1.6-0.4c0-0.1,0-0.1,0.1-0.1C6.2,17.1,6.9,17,7.4,17.3"/>
<path class="st2" d="M4.1,17.2c0,0.1,0,0.2,0,0.2c-0.1,0.1-0.2,0.2-0.3,0.1c-0.1,0-0.1-0.1-0.2-0.2c0-0.1,0.1-0.2,0.2-0.3
	C4,17.1,4.1,17.1,4.1,17.2"/>
<path class="st2" d="M17,17.2c0,0.1-0.1,0.2-0.2,0.3c-0.1,0-0.2,0-0.3-0.1c0-0.1,0-0.2,0.1-0.3C16.8,17.1,17,17.1,17,17.2"/>
<path class="st2" d="M41.5,17.3c0,0.1-0.1,0.2-0.2,0.3c-0.1,0-0.2,0-0.3,0c0-0.1-0.1-0.1-0.1-0.2c0.1-0.1,0.2-0.2,0.3-0.2
	C41.4,17.2,41.4,17.2,41.5,17.3"/>
<path class="st2" d="M42.4,17.2c0.1,0.1,0,0.2-0.1,0.3c-0.1,0.1-0.2,0.1-0.2,0.1c-0.1-0.1-0.2-0.1-0.2-0.3c0-0.1,0.1-0.2,0.2-0.2
	C42.2,17.1,42.3,17.2,42.4,17.2"/>
<path class="st2" d="M2.8,17.6c0,0.1-0.1,0.2-0.1,0.2c-0.1,0-0.1,0.1-0.2,0.1c-0.1,0-0.2-0.1-0.2-0.2c0-0.1,0.1-0.2,0.2-0.3
	C2.6,17.5,2.8,17.5,2.8,17.6"/>
<path class="st2" d="M31.8,17.6c0,0.1,0,0.1,0,0.2c-0.1,0.1-0.2,0.2-0.3,0.1c-0.1-0.1-0.2-0.2-0.1-0.3
	C31.5,17.5,31.7,17.5,31.8,17.6"/>
<path class="st2" d="M5,17.9C5,18,5,18.1,4.8,18.1c-0.1,0-0.2-0.1-0.2-0.2c0-0.1,0-0.3,0.1-0.3C4.9,17.5,5,17.7,5,17.9"/>
<path class="st2" d="M3.7,17.9c0,0.1-0.1,0.2-0.1,0.3c-0.2,0.1-0.3-0.1-0.4-0.2c0-0.1,0.1-0.3,0.2-0.3C3.6,17.7,3.6,17.8,3.7,17.9"
	/>
<path class="st2" d="M32.7,17.9c0,0.1,0,0.3-0.2,0.3c-0.2,0.1-0.3-0.1-0.4-0.2c0.1-0.1,0.1-0.3,0.2-0.3
	C32.6,17.7,32.6,17.8,32.7,17.9"/>
<path class="st2" d="M4.4,17.9c0,0.1,0,0.1-0.1,0.2c-0.1,0-0.1,0.1-0.2,0.1C4,18.1,3.9,18.1,3.9,18c0-0.1,0.1-0.2,0.2-0.3
	C4.2,17.7,4.3,17.8,4.4,17.9"/>
<path class="st2" d="M40.7,18c0,0.1-0.1,0.2-0.2,0.2c-0.1,0-0.2-0.1-0.3-0.1c-0.1-0.1,0-0.2,0-0.3C40.4,17.6,40.7,17.8,40.7,18"/>
<path class="st2" d="M41.8,18.1c0,0.2-0.2,0.2-0.3,0.2c-0.1-0.1-0.3-0.2-0.2-0.3c0.1-0.1,0.1-0.1,0.2-0.1
	C41.6,17.8,41.7,17.9,41.8,18.1"/>
<path class="st2" d="M35.2,18.2c0.1,0.2-0.1,0.2-0.2,0.3c-0.1,0-0.2-0.1-0.3-0.1c0-0.2,0-0.3,0.2-0.4C35.1,18,35.2,18.1,35.2,18.2"
	/>
<path class="st2" d="M31.5,18.4c0.1,0,0,0.1,0,0.2c-0.1,0.1-0.2,0.2-0.3,0.1c-0.1-0.1-0.2-0.1-0.1-0.3
	C31.1,18.2,31.4,18.2,31.5,18.4"/>
<path class="st2" d="M32.2,18.5c0,0.1,0,0.2-0.1,0.2c-0.1,0.1-0.2,0-0.3,0c0-0.1-0.1-0.1,0-0.2c0-0.1,0.1-0.1,0.2-0.1
	C32.1,18.3,32.2,18.3,32.2,18.5"/>
<path class="st2" d="M8.9,18.5c0.1,0.1,0,0.2,0,0.3c-0.1,0.1-0.2,0.2-0.3,0.1c-0.1-0.1-0.1-0.2-0.1-0.4c0.1,0,0.1-0.1,0.2-0.1
	C8.7,18.3,8.8,18.4,8.9,18.5"/>
<path class="st2" d="M36.7,18.5c0,0.1-0.1,0.2-0.2,0.2c-0.2,0.1-0.2-0.1-0.3-0.2c0-0.1,0.1-0.1,0.1-0.2
	C36.5,18.3,36.6,18.4,36.7,18.5"/>
<path class="st2" d="M36,18.5c0.1,0.1-0.1,0.2-0.2,0.3c-0.1,0-0.2,0-0.3-0.1c-0.1,0-0.1-0.1-0.1-0.2c0.1-0.1,0.1-0.2,0.2-0.2
	C35.8,18.4,35.9,18.4,36,18.5"/>
<path class="st2" d="M42.2,18.7c0,0.2-0.2,0.1-0.3,0.2c-0.6,0.4-1.3,0.1-1.9-0.1c0-0.2,0.2-0.1,0.4-0.2
	C40.9,18.2,41.5,18.6,42.2,18.7L42.2,18.7z"/>
<path class="st2" d="M4.5,18.5L4.5,18.5c-0.6,0.4-1.2,0.6-1.8,0.4l-0.1-0.1C3.1,18.5,3.8,18.4,4.5,18.5L4.5,18.5z"/>
<path class="st2" d="M38.1,18.6c0,0.1-0.1,0.2-0.1,0.3c-0.1,0-0.3,0-0.4-0.2c0-0.1,0.1-0.2,0.2-0.3C37.9,18.5,38.1,18.5,38.1,18.6"
	/>
<path class="st2" d="M7,18.7c-0.1,0.1,0,0.2-0.2,0.3c-0.1,0.1-0.3-0.1-0.3-0.2c0-0.2,0.1-0.2,0.1-0.3C6.8,18.4,6.9,18.6,7,18.7"/>
<path class="st2" d="M6,18.8c0,0.1,0,0.2-0.1,0.2c-0.1,0.1-0.2,0.1-0.3,0c-0.1-0.1-0.2-0.2-0.2-0.3c0.1-0.1,0.1-0.1,0.2-0.2
	C5.8,18.6,6,18.6,6,18.8"/>
<path class="st2" d="M39.1,19.1c0,0.1-0.1,0.2-0.2,0.3c-0.1,0-0.2-0.1-0.3-0.1c0-0.1,0-0.2,0.1-0.3c0,0,0.1,0,0.2-0.1
	C39,18.9,39.1,19,39.1,19.1"/>
<path class="st2" d="M5,18.9c0,0.1-0.1,0.2-0.1,0.2c0,0.2-0.2,0.4-0.3,0.6c-0.3,0.3-0.6,0.3-1,0.4l-0.1-0.1
	C3.9,19.6,4.4,19.2,5,18.9L5,18.9z"/>
<path class="st2" d="M38.4,19.2c0,0.2-0.1,0.2-0.2,0.3c-0.1,0-0.2-0.1-0.3-0.2c0-0.2,0.1-0.2,0.2-0.3C38.2,19,38.4,19.1,38.4,19.2"
	/>
<path class="st2" d="M6.6,19.2L6.6,19.2c0,0.2-0.1,0.3-0.2,0.3c-0.1,0-0.2,0-0.3-0.1c-0.1-0.1,0-0.3,0.1-0.3
	C6.4,19.1,6.5,19.1,6.6,19.2"/>
<path class="st2" d="M40.9,19.7c0.1,0,0.2-0.2,0.3-0.2c0.1,0,0.3,0.1,0.3,0.2c0.1,0.2-0.1,0.3-0.2,0.3c-0.1,0.1-0.3-0.1-0.3,0.1
	c0.1,0.1,0.2,0.2,0.2,0.3c0,0.1-0.1,0-0.2,0c-0.4-0.2-0.8-0.5-1-0.9c-0.1-0.1-0.3-0.2-0.2-0.3C40.4,19.1,40.7,19.4,40.9,19.7"/>
<path class="st2" d="M42.3,19.2c0.1,0.1,0,0.2,0,0.3c-0.1,0.1-0.3,0.1-0.4,0.1c-0.1-0.1-0.1-0.1-0.1-0.3c0.1-0.1,0.1-0.1,0.2-0.2
	C42.1,19.1,42.2,19.2,42.3,19.2"/>
<path class="st2" d="M37.3,20c0.1,0.2,0.2,0.4,0.3,0.6c0,0-0.1,0-0.1,0c-0.5-0.3-1.1-0.6-1.3-1.1c0-0.1-0.2-0.1-0.1-0.2
	c0.4-0.1,0.7,0.2,1,0.4C37.1,19.8,37.2,19.8,37.3,20"/>
<path class="st2" d="M5.8,19.4c0.1,0.1-0.1,0.2-0.1,0.3c-0.2,0-0.2,0-0.3-0.1c-0.1-0.2,0.1-0.3,0.2-0.3C5.6,19.3,5.7,19.4,5.8,19.4"
	/>
<path class="st2" d="M39,19.8c0,0.1-0.1,0.1-0.1,0.2c-0.1,0-0.2,0.1-0.3,0c0-0.1-0.1-0.2,0-0.3C38.7,19.5,38.9,19.6,39,19.8"/>
<path class="st2" d="M42.4,20c0,0.2-0.1,0.3-0.2,0.4c-0.1,0-0.2-0.1-0.3-0.1c-0.1-0.1,0-0.2,0-0.3c0.1-0.1,0.2-0.2,0.4-0.1
	C42.3,19.9,42.3,19.9,42.4,20"/>
<path class="st2" d="M32.9,21.9c0,0.2-0.3,0.1-0.4,0.3c-0.4,0.2-0.9,0.2-1.4,0.2v-0.1C31.5,21.9,32.2,21.7,32.9,21.9"/>
<path class="st2" d="M12.8,22.5c0,0.1-0.1,0.2-0.2,0.2c-0.1,0-0.2-0.1-0.2-0.1c-0.1-0.2,0.1-0.2,0.2-0.3
	C12.7,22.3,12.8,22.4,12.8,22.5"/>
<path class="st2" d="M32.6,22.7c0,0.1-0.1,0.3-0.2,0.3c-0.1,0-0.2,0-0.3-0.1c-0.1-0.1,0-0.2,0-0.2C32.2,22.4,32.5,22.4,32.6,22.7"/>
<path class="st2" d="M35.4,22.8c-0.3,0.2-0.7,0.5-1.2,0.5l-0.7,0l-0.1-0.1C33.8,22.6,34.7,22.6,35.4,22.8L35.4,22.8z"/>
<path class="st2" d="M9,23.1c0,0.1-0.1,0.2-0.2,0.3c-0.1,0-0.2,0-0.3-0.1c-0.1-0.1,0-0.3,0.1-0.3C8.8,22.8,9,23,9,23.1"/>
<path class="st2" d="M9.7,23.2c0,0.1,0,0.1-0.1,0.2c-0.1,0-0.2,0.1-0.3,0c-0.1-0.1-0.1-0.2-0.1-0.2c0-0.1,0.1-0.1,0.2-0.1
	C9.6,23.1,9.7,23.1,9.7,23.2"/>
<path class="st2" d="M4.4,24.7c-0.1,0.2-0.4,0-0.5-0.1c-0.5-0.3-0.5-0.8-1-1.2c0.1-0.2,0.2,0,0.3,0c0.1,0.1,0.2,0.1,0.3,0.2
	C4,23.8,4.1,24.2,4.4,24.7"/>
<path class="st2" d="M22.7,24.4c-0.1,0.2-0.2,0.3-0.1,0.5l-0.1,0c0-0.2-0.2-0.3-0.1-0.6c-0.1-0.2-0.1-0.4-0.2-0.6
	c-0.1-0.2,0.1-0.3,0.2-0.5c0.2,0.1,0.3,0.3,0.4,0.4C22.8,24,22.7,24.2,22.7,24.4 M44.6,19.2c-0.2-0.4-0.6-0.6-1-0.6
	c-0.4,0-0.6,0.3-0.8,0.6c-0.1,0.3,0,0.6,0.3,0.8c0.1,0,0.2,0,0.3-0.1c0.1-0.2-0.1-0.2-0.1-0.3c-0.1-0.2,0-0.4,0.1-0.5
	c0.1-0.1,0.4-0.1,0.5-0.1c0.2,0.1,0.3,0.2,0.4,0.4c0.1,0.2,0.1,0.5,0,0.8c-0.2,0.4-0.5,0.6-0.9,0.7C42.3,21,29.7,21,29.7,21
	c-1.5,0.1-3.2-0.3-4.4,0.5c-0.6,0.3-0.9,0.9-1,1.5c-0.4,0.3-0.8,0.7-1.1,1.1l0,0c0.1-0.3,0.2-0.6,0.3-1c0.2-0.3,0.2-0.7,0.4-1
	c0.5-0.9,1-1.7,1.8-2.4c0.3-0.5,0.9-0.4,1.5-0.4c0.6,0.3,1.2,0.4,1.9,0.3l0-0.1c-0.2-0.2-0.5-0.3-0.7-0.4c-0.5-0.3-1.1,0.1-1.7,0
	l0-0.1c0.5-0.4,1.1-0.7,1.7-0.9c0.5-0.3,1-0.4,1.5-0.6c0.2,0,0.4-0.2,0.6-0.1l0.7-0.2c0,0,0.1,0.1,0.1,0c0.6-0.2,1.4,0,2.1,0
	l0.1,0.1l0.7,0.2c0.2,0,0.4,0.3,0.6,0.3c0.1-0.2-0.2-0.3-0.2-0.4c0.3-0.1,0.6,0,0.9,0.1l-0.1,0.2c-0.1,0.2,0,0.3,0.2,0.3
	c0.1,0,0.2,0,0.2-0.1c0.2-0.1,0-0.3,0-0.4c1,0.2,2,0.4,2.9,0.9c0.3,0.1,0.5,0.3,0.8,0.3c-0.3-0.3-0.7-0.4-1-0.6
	c-0.2-0.1-0.6-0.2-0.7-0.4c0-0.1,0.1,0,0.2-0.1c0.5-0.1,0.9-0.4,1.2-0.8c0-0.1,0.2-0.1,0.2-0.2c-0.1-0.1-0.3,0-0.5,0
	c-0.6,0.1-0.8,0.8-1.4,0.9c-0.7-0.2-1.4-0.3-2.1-0.5c-0.3-0.1-0.7-0.1-1-0.2l-0.8-0.1H32l0-0.1c0.5-0.1,0.9-0.4,1.4-0.6l3.7-1.7
	c0.4-0.4,0.7-0.8,1-1.2c0-0.1-0.1-0.2-0.1-0.3c-0.1,0-0.2,0-0.3,0.1c-0.2,0.1,0,0.3,0,0.4c-0.2,0.2-0.4,0.4-0.6,0.6
	c-0.1,0-3.8,1.7-3.8,1.7c-0.5,0.2-1.1,0.5-1.7,0.6l-0.8,0.1c-0.1,0.2-0.2,0.3-0.3,0.3c-0.2,0-0.4,0.2-0.6,0.2
	c-1.8,0.7-3.6,1.5-5.1,2.9c0.1-0.2,0.1-0.4,0.1-0.6c0-0.2,0-0.5-0.2-0.6c0-0.1-0.1-0.3-0.1-0.4l-0.2,0.1c-0.1,0.3-0.2,0.9-0.1,1.2
	c0,0.3,0.2,0.6,0.1,0.8c-0.7,0.8-1,1.8-1.5,2.8c-0.2,0-0.2-0.2-0.3-0.3c0.5-0.6,0.8-1.3,1-2.1c0.1-0.1,0-0.3,0.1-0.3
	c0-0.2,0.1-0.5,0-0.6c0.1-0.3-0.4-0.6-0.1-0.8l-0.3,0.1c-0.6,0.8,0.3,2-0.4,2.8v0.1c-0.2,0.3-0.3,0.5-0.6,0.7
	c-0.3-0.1-0.5-0.5-0.6-0.8c-0.3-0.3-0.3-0.9-0.1-1.3c0.1-0.4-0.1-0.8-0.1-1.1l-0.1-0.1c-0.3,0.4-0.5,1.1-0.2,1.7
	c0.1,0.3,0.2,0.6,0.4,0.8c0.1,0.4,0.4,0.7,0.6,1c0.1,0.1-0.1,0.2-0.2,0.2c-0.2-0.1-0.1-0.3-0.3-0.4c-0.5-1-1-1.8-1.8-2.6
	c0-0.1-0.2-0.2-0.1-0.4c0.3-0.3,0.3-0.8,0.2-1.1c0-0.1-0.1-0.2-0.1-0.2l-0.2-0.2c0,0.5-0.3,0.9-0.2,1.5v0c-1.4-1.1-3-2.1-4.6-2.8
	l-0.1,0.4c0.4,0.1,1.5,0.8,1.5,0.8c0.5,0.2,0.9,0.5,1.4,0.8c1.9,1.1,3.1,2.8,4,4.8c0,0.2,0.2,0.3,0.1,0.5c-0.3-0.5-0.7-0.7-1-1.1
	c-0.1-0.7-0.5-1.3-1-1.6c-0.2-0.3-0.6-0.3-1-0.4l-5,0C9.6,21,5.9,21.2,1.9,21.1c-0.6-0.1-1.3-0.3-1.4-0.9c-0.1-0.2-0.1-0.6,0-0.8
	c0.2-0.3,0.4-0.4,0.7-0.4c0.2,0,0.4,0.2,0.5,0.4c0,0.2-0.2,0.4-0.2,0.5c0,0.1,0.1,0.2,0.2,0.1c0.2-0.1,0.3-0.3,0.4-0.5
	c0-0.1,0.1-0.2,0-0.3c-0.1-0.3-0.4-0.5-0.6-0.6c-0.3,0-0.7,0.1-0.9,0.3C0,19.4,0,19.9,0.1,20.3c0.2,0.6,0.9,1,1.5,1.1l13.4,0.1
	c1.3,0.1,2.8-0.2,4.1,0.1c0.5,0.2,1,0.5,1.1,1.1l-0.1,0c-1.1-0.7-2.5-1-3.9-0.8c-0.6,0-1,0.2-1.5,0.3c-0.3,0.1-0.5-0.1-0.7-0.2
	c-0.5-0.5-1.4-0.4-2-0.3l0,0.1c0.7-0.1,1.1,0.5,1.7,0.6c0.1,0,0.2-0.1,0.4,0c-0.6,0.3-1.2,0.7-1.9,0.9c-0.2,0-0.3-0.2-0.5-0.4
	c-0.3-0.3-0.7-0.2-1.1-0.2c-0.1,0-0.2-0.1-0.3,0c0.1,0.2,0.4,0.4,0.6,0.5c0.3,0.2,0.7,0,1.1,0.2c-0.1,0.1-0.2,0.1-0.3,0.2
	c-0.6,0.3-1.2,0.9-1.9,0.8c-0.8,0.1-1.5-0.1-2-0.7c-0.2-0.6-0.8-0.8-1.4-0.8c0,0-0.1,0-0.1,0.1c0.3,0.2,0.5,0.6,0.8,0.8
	c0.2,0.2,0.6,0,0.7,0.3c0.3,0.2,0.6,0.3,0.9,0.4c0.2,0.1,0.5,0.1,0.7,0.2l-0.1,0.1c-1.3,0.4-2.7,0.5-4.1,0.4c-0.4,0-0.8-0.1-1.2-0.1
	C4,25,4.1,25.1,4.2,25.2c-0.1,0.1-0.2,0.1-0.4,0.1c-0.2,0-0.4,0.1-0.5,0.1c-0.2,0-0.4,0.1-0.6,0.1c-0.2,0.3-0.5,0.5-0.8,0.7
	c0,0.1,0,0.1,0.1,0.1c0.3-0.1,0.6,0,0.9-0.1c0.5,0,0.7-0.6,1.1-0.8c0.4-0.3,0.9-0.2,1.4-0.2c0.3,0.1,0,0.2,0.1,0.4
	c0.1,0.1,0.2,0.2,0.4,0.2l0.1-0.1c0.1-0.1,0.1-0.2,0-0.4c0.2-0.1,0.5,0,0.7-0.1c0.5,0,1-0.1,1.6-0.1c0.1,0,0.2-0.1,0.3,0
	c0,0.1-0.2,0.1-0.1,0.3c0,0.1,0.2,0.2,0.3,0.2c0.1-0.1,0.3-0.2,0.2-0.3c0-0.1-0.1-0.1-0.2-0.2C8.8,25,9.1,25,9.4,24.8
	c0.2,0,0.4-0.1,0.6-0.2c0.2,0,0.3-0.2,0.5-0.1c-0.1,0.2-0.2,0.5-0.3,0.7c-0.2,0.8-0.4,1.7,0,2.5l0.1,0c-0.3-0.8-0.1-1.6,0.1-2.3
	c0.2-1.2,1.4-1.6,2.3-2l0,0.1c-0.2,0.6-0.6,1.2-0.5,2c0,0.1-0.1,0.3,0,0.3c0.2-0.1,0.4-0.4,0.5-0.7c0.1-0.6-0.3-1.4,0.4-1.9
	c1.1-0.5,2.2-1,3.5-1.1c0,0,0.1,0,0.2,0.1c-0.3,0.3-0.7,0.6-0.8,1c-0.4,0.6-0.4,1.7-0.2,2.5c0.1,0.4-0.2,0.7-0.4,1
	c-0.1,0.1-0.1,0.3-0.2,0.5l0.3,0c0.2-0.3,0.5-0.6,0.5-0.9c0,0.1,0.2,0.3,0.3,0.3c0.1-0.2-0.1-0.3-0.1-0.4c0.2-0.1,0.3,0.2,0.5,0.2
	c0.3,0.1,0.5,0.2,0.8,0.2l0.1-0.1c-0.3-0.5-0.9-0.6-1.4-0.6c-0.3-0.5-0.3-1.1-0.2-1.6c0.1-0.3,0.1-0.6,0.3-0.9
	c0.1-0.2,0.3-0.4,0.4-0.5c0.2-0.2,0.6-0.4,0.9-0.5h0l0,0c-0.4,0.3-0.4,0.7-0.6,1.1c-0.2,0.4-0.3,0.8-0.1,1.2c0.1,0.2,0,0.5,0.2,0.6
	c0.2-0.3,0.2-0.6,0.3-0.9c0-0.5-0.3-0.9-0.1-1.4c0.1-0.4,0.4-0.5,0.7-0.6c0.8-0.1,1.4,0.3,2.1,0.6c0.1,0.1,0.4,0.2,0.4,0.4
	c0,0.4-0.2,0.8-0.5,1c-0.4,0.2-0.9,0.3-1.3,0c-0.2-0.2-0.3-0.6-0.2-0.9c0.2-0.2,0.4-0.3,0.6-0.2c0.1,0.1,0.3,0.2,0.4,0.1
	c0.1,0,0.1-0.2,0.1-0.2c-0.2-0.1-0.2-0.3-0.4-0.3c-0.3,0-0.6,0-0.8,0.2c-0.3,0.3-0.4,0.6-0.3,1c0.1,0.5,0.4,0.8,0.9,0.9
	c0.6,0.2,1.3,0,1.7-0.6c0.2-0.2,0.2-0.4,0.3-0.6c0.7,0.4,1.2,1.1,1.4,1.9c0,0.2,0.1,0.5,0,0.7l0.5,0c0-0.1,0-0.2,0-0.3
	c0.2-0.9,0.7-1.7,1.4-2.3c0.2-0.1,0.2,0.2,0.2,0.3c0.2,0.5,0.7,0.9,1.2,1.1c0.6,0.1,1.1,0,1.5-0.5c0.2-0.3,0.4-0.8,0.1-1.2
	c-0.2-0.2-0.5-0.4-0.8-0.4c-0.4,0-0.6,0.3-0.8,0.5c0,0.1,0,0.2,0.1,0.3c0.1,0,0.2,0,0.2-0.1c0-0.2,0.2-0.3,0.4-0.4
	c0.2-0.1,0.3,0,0.4,0.1c0.2,0.1,0.2,0.3,0.2,0.6c0,0.3-0.2,0.6-0.5,0.7c-0.4,0.2-1,0.1-1.3-0.1c-0.2-0.2-0.3-0.4-0.4-0.6
	c0-0.2-0.1-0.4,0-0.7c0.6-0.4,1.2-0.6,2-0.7c0.3,0.1,0.5,0.3,0.7,0.5c0.6,0.7-0.1,1.6,0.3,2.4c0.2,0,0.2-0.3,0.2-0.4
	c0.2-0.5-0.1-1.1-0.2-1.6c-0.2-0.3-0.3-0.6-0.5-0.8c0.1,0,0.1,0,0.2,0c0.3,0.2,0.6,0.4,0.8,0.7c0.4,0.7,0.6,1.5,0.5,2.3
	c-0.1,0.4-0.5,0.6-0.9,0.8c-0.1,0.1-0.3,0.3-0.4,0.5c0.2,0.1,0.4,0,0.6-0.1c0.3-0.1,0.4-0.4,0.6-0.6l0,0.1c0,0.2-0.1,0.4,0.1,0.4
	c0.1-0.2,0.1-0.5,0.1-0.7c0.2,0.2,0.2,0.5,0.3,0.7c0.1,0.3,0.3,0.6,0.7,0.6c0.1-0.1,0-0.3,0-0.4c0-0.4-0.3-0.5-0.5-0.8
	c-0.5-0.7-0.3-1.7-0.6-2.5c-0.1-0.4-0.4-0.7-0.7-1.1l0.1-0.1c0.7,0,1.2,0.2,1.9,0.3C30.6,23,31.7,23,32,24c0.2,0.6,0.4,1.1,0.8,1.5
	l0,0c0.1-0.1,0.1-0.4,0-0.5c-0.1-0.7-0.7-0.9-1-1.5l0-0.1c0.3,0.1,0.7,0.2,1,0.3c1.1,0.3,1.9,1.4,2,2.6c0,0.9-0.2,1.7-0.5,2.4
	c0,0.1-0.2,0.2-0.1,0.3c0.2-0.1,0.2-0.3,0.3-0.4c0.5-0.8,0.7-1.9,0.5-2.9c0-0.2-0.2-0.3-0.1-0.5c0.1,0.1,0.2,0.1,0.2,0.1
	c0.1-0.1,0.2-0.1,0.3-0.2c0-0.1,0.1-0.2,0-0.3c-0.1-0.1-0.3-0.1-0.4-0.1c-0.1,0.1-0.2,0.2-0.2,0.3c-0.1-0.2-0.3-0.6-0.5-0.8l0,0
	c0.6,0.2,1.2,0.5,1.8,0.7c0.1,0.1,0.3,0.2,0.5,0.2c0.5,0.2,1.1,0.3,1.7,0.4c0.4,0,0.8,0.2,1.2,0.1v0l0,0c-0.2-0.2-0.5,0-0.7-0.2
	c-1-0.1-1.9-0.4-2.7-0.7l0.1,0c0.1-0.1,0.2-0.2,0.2-0.4c-0.1-0.1-0.2-0.2-0.3-0.2c-0.1,0-0.2,0.1-0.2,0.2c0,0.1,0.1,0.2,0.2,0.3
	l-0.1,0c-0.4-0.2-0.8-0.4-1.3-0.6c-0.2,0-0.3-0.2-0.4-0.2c-0.3-0.2-0.6-0.3-1-0.4c-0.9-0.5-1.9-0.7-2.8-1.1
	c-0.2-0.1-0.4-0.1-0.6-0.2c-0.3-0.1-0.7-0.2-1-0.3c-1.2-0.3-2.7-0.3-3.8,0.3c-0.2-0.1-0.3,0.2-0.3,0c0.3-0.8,1.1-1,1.9-1.1
	c5.5-0.1,10.7-0.1,16.1-0.2c0.6,0,1.3-0.2,1.6-0.8C44.7,20.1,44.7,19.5,44.6,19.2"/>
<path class="st2" d="M37.6,23.5c0,0,0.1,0.1,0.1,0.1c-0.5,0.4-1.2,0.6-1.8,0.6c-0.1,0-0.1,0.1-0.2,0l0-0.1
	C36.1,23.6,36.9,23.3,37.6,23.5"/>
<path class="st2" d="M35.4,23.7c0.1,0.2-0.1,0.3-0.2,0.4c-0.2,0-0.2-0.1-0.3-0.2c0-0.1,0.1-0.2,0.1-0.2
	C35.1,23.5,35.3,23.5,35.4,23.7"/>
<path class="st2" d="M9.2,23.8c0,0.1,0,0.2-0.1,0.3c-0.1,0.1-0.2,0.1-0.2,0.1c-0.1,0-0.2-0.1-0.2-0.2c0-0.1,0.1-0.2,0.2-0.3
	C9,23.6,9.1,23.6,9.2,23.8"/>
<path class="st2" d="M6.8,24.7L6.8,24.7c-0.3,0.2-0.6,0.1-0.9-0.1c-0.2-0.3-0.4-0.6-0.7-0.7c0,0-0.1-0.1,0-0.1
	C5.8,23.7,6.2,24.3,6.8,24.7"/>
<path class="st2" d="M39.7,23.7c-0.3,0.5-0.6,1.1-1.2,1.3c-0.1,0-0.2,0.1-0.3,0c0.2-0.5,0.7-1.1,1.2-1.3
	C39.6,23.7,39.6,23.7,39.7,23.7"/>
<path class="st2" d="M10,23.9c0,0.2-0.1,0.2-0.2,0.3c-0.1,0-0.2-0.1-0.2-0.2c-0.1-0.1,0.1-0.2,0.1-0.3C9.8,23.7,10,23.8,10,23.9"/>
<path class="st2" d="M41.4,24c-0.1,0.2-0.1,0.5-0.2,0.7c-0.3,0.3-0.5,0.7-1,0.8c-0.1-0.1,0.1-0.3,0.2-0.4
	C40.7,24.6,40.9,24.1,41.4,24L41.4,24z"/>
<path class="st2" d="M2.5,24.1c0,0.1,0.1,0.2,0,0.3c-0.1,0.1-0.2,0.1-0.3,0.1c-0.1-0.1-0.2-0.2-0.1-0.3C2.2,24,2.4,24,2.5,24.1"/>
<path class="st2" d="M1.7,24.3c0,0.1,0.1,0.1,0,0.2c0,0.1-0.1,0.2-0.2,0.2c-0.2,0-0.2-0.1-0.3-0.2c0-0.1,0-0.2,0.1-0.3
	C1.5,24.1,1.6,24.2,1.7,24.3"/>
<path class="st2" d="M3.3,24.4c0,0.1,0.1,0.3-0.1,0.3c-0.2,0.1-0.3-0.1-0.4-0.2c0-0.1,0.1-0.2,0.2-0.3C3.1,24.3,3.2,24.3,3.3,24.4"
	/>
<path class="st2" d="M5.6,24.6c0,0.1,0,0.2-0.1,0.3c-0.1,0.1-0.2,0-0.3,0c0-0.1-0.2-0.2-0.1-0.3c0.1-0.1,0.1-0.1,0.2-0.2
	C5.4,24.5,5.5,24.5,5.6,24.6"/>
<path class="st2" d="M42.8,24.7c0,0.1-0.1,0.2-0.2,0.2c-0.1,0-0.2,0-0.3-0.2c-0.1-0.2,0.1-0.2,0.2-0.3
	C42.6,24.5,42.7,24.5,42.8,24.7"/>
<path class="st2" d="M40.2,24.7c0,0.1-0.1,0.2-0.2,0.2c-0.2,0.1-0.4-0.1-0.4-0.2c0-0.1,0.1-0.2,0.2-0.3
	C40.1,24.5,40.2,24.6,40.2,24.7"/>
<path class="st2" d="M41.9,24.7c0,0.1-0.1,0.2-0.1,0.2c-0.1,0-0.2,0-0.3-0.1c-0.1-0.1,0-0.2,0.1-0.3C41.7,24.5,41.9,24.5,41.9,24.7"
	/>
<path class="st2" d="M2.1,25c0,0.2,0,0.3-0.2,0.4c-0.1,0-0.3-0.1-0.3-0.2c0-0.1,0-0.3,0.1-0.3C1.9,24.8,2.1,24.9,2.1,25"/>
<path class="st2" d="M39.6,25.1c0,0.2,0,0.3-0.2,0.4c-0.1,0-0.2,0-0.3-0.1c-0.1-0.1-0.1-0.2,0-0.3C39.2,24.9,39.5,25,39.6,25.1"/>
<path class="st2" d="M9.5,25.3c0.1,0.2-0.1,0.2-0.2,0.3c-0.1,0-0.2,0-0.2,0c-0.1-0.1-0.2-0.2-0.1-0.3c0.1-0.1,0.1-0.1,0.2-0.1
	C9.4,25,9.5,25.2,9.5,25.3"/>
<path class="st2" d="M42.5,25.4c0,0.1-0.1,0.1-0.1,0.2c-0.1,0.1-0.2,0.1-0.3,0.1C42,25.6,42,25.4,42,25.3c0.1-0.1,0.1-0.1,0.2-0.2
	C42.3,25.2,42.5,25.2,42.5,25.4"/>
<path class="st2" d="M41.7,25.4c0.1,0.2-0.1,0.3-0.2,0.3c-0.1,0-0.1,0-0.2,0.1c0.4,0.2,0.6,0.5,0.9,0.8v0.1c-0.5,0-1-0.1-1.4-0.5
	c-0.1-0.1-0.3-0.1-0.4-0.2c0.2-0.2,0.5-0.1,0.8-0.1c0.2-0.2-0.2-0.3,0-0.5c0.1,0,0.1-0.1,0.2-0.1C41.5,25.2,41.6,25.3,41.7,25.4"/>
<path class="st2" d="M36,25.4c0,0.1-0.1,0.2-0.1,0.2c-0.1,0.1-0.2,0.1-0.3,0.1c-0.1-0.1-0.2-0.2-0.1-0.3C35.6,25.2,36,25.2,36,25.4"
	/>
<path class="st2" d="M5.2,25.9c0,0.1-0.1,0.2-0.2,0.2c-0.1,0-0.2-0.1-0.2-0.2c0-0.1,0.1-0.2,0.1-0.2C5,25.6,5.3,25.7,5.2,25.9"/>
<path class="st2" d="M6.4,25.7c0,0.2-0.2,0.3-0.3,0.5c-0.2,0.5-0.6,0.9-1.1,0.9c-0.1-0.1,0.2-0.3,0.2-0.4C5.4,26.3,5.9,26,6.4,25.7
	L6.4,25.7z"/>
<path class="st2" d="M35.7,25.9c0,0.2-0.1,0.3-0.2,0.3c-0.1,0-0.2-0.1-0.3-0.1c-0.1-0.1,0-0.2,0-0.3C35.4,25.6,35.6,25.8,35.7,25.9"
	/>
<path class="st2" d="M36.6,26c0,0.2-0.1,0.3-0.2,0.3l-0.1,0c-0.1-0.1-0.2-0.1-0.2-0.3c0.1-0.1,0.1-0.2,0.2-0.2
	C36.3,25.8,36.5,25.9,36.6,26"/>
<path class="st2" d="M8.5,26c0,0.2-0.1,0.2-0.2,0.3c-0.1,0-0.2-0.1-0.3-0.2c0-0.1,0.1-0.2,0.2-0.3C8.4,25.8,8.4,25.9,8.5,26"/>
<path class="st2" d="M9.4,26.1c0,0.1-0.1,0.2-0.3,0.2c-0.1,0-0.2-0.1-0.2-0.2c0-0.1,0.1-0.2,0.2-0.3C9.3,25.9,9.4,25.9,9.4,26.1"/>
<path class="st2" d="M39.5,27.1c0.1,0.1,0.2,0.1,0.2,0.2c-0.2,0.1-0.4-0.2-0.6-0.2c-0.3-0.3-0.6-0.7-0.7-1.1c0.1-0.1,0.3,0,0.4,0.1
	C39,26.3,39.3,26.7,39.5,27.1"/>
<path class="st2" d="M40,26.1c0,0.1,0,0.2,0,0.3c-0.1,0.1-0.3,0.1-0.4,0.1c-0.1-0.1-0.2-0.2-0.1-0.3c0-0.1,0.2-0.1,0.3-0.2
	C39.9,25.9,39.9,26,40,26.1"/>
<path class="st2" d="M10.7,26.4c0,0.1,0,0.3-0.1,0.4c-0.1,0-0.3,0-0.3-0.2c-0.1-0.2,0.1-0.2,0.2-0.3C10.6,26.3,10.6,26.4,10.7,26.4"
	/>
<path class="st2" d="M36.5,27.4c0.2,0.3,0.3,0.6,0.4,1c0,0.1,0.1,0.2,0,0.3h-0.1c-0.6-0.5-0.8-1.1-1-1.7c-0.1,0-0.1-0.1-0.1-0.1
	c0.1-0.1,0.2,0.1,0.4,0.2L36.5,27.4z"/>
<path class="st2" d="M12.5,26.9L12.5,26.9c-0.5,0.4-1.3,0.7-1.9,0.3c0,0,0-0.1,0.1-0.1c0.4-0.1,0.8-0.3,1.2-0.3L12.5,26.9z"/>
<path class="st2" d="M9.4,27c-0.5,0.3-0.9,0.9-1.5,1c-0.1,0-0.2,0.2-0.3,0.1c0.2-0.8,1.1-1.2,1.8-1.2V27z"/>
<path class="st2" d="M35.7,27.6c0,0.1,0,0.3-0.1,0.3c-0.1,0.1-0.2,0.1-0.3,0c-0.1-0.1-0.1-0.2-0.1-0.3c0-0.1,0.1-0.1,0.2-0.2
	C35.5,27.5,35.6,27.5,35.7,27.6"/>
<path class="st2" d="M34.6,27.7c-0.1,0.2-0.3,0.3-0.5,0.4c-0.5,0.2-0.9-0.1-1.3-0.2c0-0.1,0.2-0.1,0.2-0.1c0.5-0.1,0.9-0.2,1.4-0.1
	C34.4,27.6,34.5,27.6,34.6,27.7"/>
<path class="st2" d="M9.4,28.1c0,0.1-0.1,0.2-0.2,0.2c-0.1,0-0.2,0-0.3-0.1c0-0.1-0.1-0.2-0.1-0.3c0-0.1,0.1-0.1,0.2-0.2
	C9.2,27.8,9.3,27.9,9.4,28.1"/>
<path class="st2" d="M10.2,28.2c0,0.1-0.1,0.2-0.2,0.3c-0.1,0-0.2,0-0.3-0.1c0-0.1-0.1-0.2,0-0.3C9.7,28,9.8,28,9.9,28
	C10,27.9,10.1,28.1,10.2,28.2"/>
<path class="st2" d="M35.4,28.3c0,0.1,0,0.2-0.1,0.3c-0.1,0.1-0.2,0.1-0.3,0.1c-0.1,0-0.1-0.1-0.2-0.2c-0.1-0.1,0.1-0.2,0.1-0.3
	C35.1,28.1,35.4,28.1,35.4,28.3"/>
<path class="st2" d="M36,28.3c0,0.1,0.1,0.1,0,0.2c-0.1,0.1-0.1,0.3-0.3,0.2c-0.1,0-0.1-0.1-0.2-0.1c-0.1-0.1,0-0.4,0.2-0.4
	C35.9,28.2,36,28.3,36,28.3"/>
<path class="st2" d="M9.7,28.7c0,0.2,0,0.3-0.1,0.4c-0.2,0-0.3,0-0.4-0.2c0-0.1,0-0.3,0.2-0.4C9.4,28.5,9.6,28.6,9.7,28.7"/>
<path class="st2" d="M10.5,28.7c0,0.4-0.1,0.9-0.5,1.1c-0.2,0-0.4,0.3-0.7,0.1v-0.1C9.6,29.4,10.1,29.1,10.5,28.7"/>
<path class="st2" d="M33.3,29c0.1,0.1,0,0.2-0.1,0.2c-0.1,0.1-0.2,0.1-0.3,0c-0.1,0-0.1-0.2-0.1-0.3c0-0.1,0.1-0.1,0.2-0.2
	C33.1,28.8,33.2,28.9,33.3,29"/>
<path class="st2" d="M11.8,29.6c0.2,0.3,0.1,0.8,0.2,1.1c-0.2,0-0.3-0.2-0.5-0.4c-0.3-0.4-0.3-1-0.4-1.5c0,0,0.1,0,0.1,0
	c0.2,0.1,0.4,0.4,0.5,0.6C11.7,29.6,11.9,29.6,11.8,29.6"/>
<path class="st2" d="M34,29.1c0,0.1-0.1,0.1-0.2,0.2c-0.1,0-0.2-0.1-0.3-0.1c0-0.1,0.1-0.2,0.1-0.3C33.8,28.9,33.9,29,34,29.1"/>
<path class="st2" d="M35.6,30.4C35.6,30.4,35.6,30.5,35.6,30.4l-0.1,0.1c-0.4-0.4-0.8-0.8-0.7-1.3l0.1,0
	C35.2,29.4,35.6,29.8,35.6,30.4"/>
<path class="st2" d="M34.6,29.9c0,0.1-0.1,0.2-0.1,0.3c-0.2,0-0.4,0-0.4-0.2c0-0.1,0.1-0.2,0.2-0.3C34.4,29.7,34.5,29.8,34.6,29.9"
	/>
<path class="st2" d="M33.7,30.2c-0.2,0.5-0.7,0.8-1.1,1.2c-0.1,0,0-0.2,0-0.2c0.1-0.5,0.6-1.1,1.1-1.3
	C33.8,29.9,33.6,30.1,33.7,30.2"/>
<path class="st2" d="M34.7,30.6c0,0.1-0.1,0.2-0.2,0.3c-0.1,0-0.2,0-0.3-0.2c0-0.1,0.1-0.2,0.2-0.3C34.5,30.5,34.6,30.5,34.7,30.6"
	/>
<path class="st2" d="M24.5,5h-0.2c-0.4,0-0.1,0.5,0.2,0.5C24.7,5.5,24.8,5,24.5,5 M23.2,5.5c0.4,0,0-0.5-0.2-0.5h-0.4
	c-0.4,0,0,0.5,0.2,0.5H23.2z M21.6,5.5c0.4,0,0-0.5-0.2-0.5H21c-0.4,0,0,0.5,0.2,0.5H21.6z M24.5,4.9c0.2,0,0.3,0.2,0.3,0.4
	c0,0.2-0.2,0.4-0.3,0.4h-4.1c-0.2,0-0.3-0.2-0.3-0.4c0-0.2,0.2-0.4,0.3-0.4H24.5z"/>
<path class="st2" d="M24.5,11.4c0,0.2,0.2,0.1,0.4,0.1c0.2,0,0.4,0.1,0.4-0.1c0-0.3-0.2-0.2-0.4-0.2C24.7,11.2,24.5,11.1,24.5,11.4
	 M25.2,11.8c0.2,0,0.2-0.2,0.2-0.5c0-0.5-0.4,0-0.6-0.5c-0.1,0.4-0.5,0-0.5,0.4c0,0.3,0,0.5,0.3,0.5H25.2z M24.1,9.7l0.8,0.3
	l0.8-0.3l-0.3,1.2l0.6-0.1l-0.2,0.7l0.2,0.7L25.4,12l0.2,1.3l-0.8-0.3l-0.8,0.3l0.3-1.3l-0.6,0.2l0.2-0.7l-0.2-0.7l0.6,0.1L24.1,9.7
	z"/>
<line class="st0" x1="907.5" y1="-24.2" x2="-292.5" y2="-24.2"/>
<polygon class="st2" points="22.3,11 22.2,11 22.2,11.1 22.1,11.2 22.3,11.3 22.3,11.4 22.4,11.3 22.5,11.4 22.5,11.3 22.6,11.2 
	22.5,11.1 22.6,11 22.5,11 22.4,10.9 "/>
<polygon class="st2" points="21.7,11.8 21.6,11.8 21.6,11.9 21.5,12 21.7,12.1 21.7,12.2 21.8,12.1 21.9,12.2 21.9,12.1 22,12 
	21.9,11.9 22,11.8 21.9,11.8 21.8,11.7 "/>
<polygon class="st2" points="22.7,11.7 22.6,11.7 22.7,11.8 22.6,11.9 22.7,12 22.7,12.1 22.8,12 22.9,12.1 22.9,12 23.1,11.9 
	23,11.8 23,11.7 22.9,11.7 22.8,11.6 "/>
<polygon class="st2" points="22.8,12.5 22.8,12.5 22.8,12.5 22.7,12.6 22.8,12.6 22.8,12.7 22.9,12.6 23,12.7 23,12.6 23,12.6 
	23,12.5 23,12.5 22.9,12.5 22.9,12.4 "/>
<polygon class="st2" points="21.9,12.7 21.7,12.7 21.8,12.9 21.6,13.1 21.9,13.1 21.9,13.4 22.1,13.2 22.3,13.4 22.3,13.1 
	22.5,13.1 22.3,12.9 22.4,12.7 22.2,12.7 22.1,12.5 "/>
<polyline class="st2" points="22.3,0 22.8,1.2 24.1,0.9 23.4,2 24.5,2.8 23.2,3 23.3,4.3 22.3,3.4 21.4,4.3 21.5,3 20.2,2.8 21.3,2 
	20.6,0.8 21.9,1.2 "/>
<path class="st2" d="M17.9,27.4c-0.1,0.1-0.2,0.1-0.2,0.3l0.2,0.7c0,0.1,0,0.4,0,0.5c-0.1,0.2-0.3,0.3-0.5,0.3c-0.1,0-0.4,0.1-0.6,0
	c-0.1-0.1-0.2-0.1-0.3-0.4L16.3,28c0-0.2-0.1-0.2-0.3-0.2l0-0.1l0.9-0.2l0,0.1c-0.2,0.1-0.3,0.1-0.2,0.3l0.2,0.8
	c0,0.1,0.1,0.5,0.5,0.4c0.5-0.1,0.4-0.5,0.4-0.6l-0.2-0.7c0-0.1-0.1-0.2-0.3-0.2l0-0.1L17.9,27.4L17.9,27.4z"/>
<path class="st2" d="M19.3,27.5c-0.1-0.2-0.3-0.4-0.6-0.3c-0.1,0-0.3,0.1-0.2,0.3c0,0.1,0.1,0.2,0.3,0.2l0.4,0.1
	c0.1,0,0.3,0.1,0.4,0.4c0,0.2-0.1,0.5-0.6,0.6c-0.3,0.1-0.4,0-0.5,0c-0.1,0-0.1,0.1-0.1,0.1l-0.1,0l-0.1-0.6l0.1,0
	c0.1,0.2,0.3,0.5,0.7,0.4c0.3-0.1,0.3-0.3,0.3-0.3c0-0.2-0.2-0.2-0.4-0.2l-0.2,0c-0.5-0.1-0.6-0.3-0.6-0.4c0-0.1,0-0.5,0.5-0.6
	c0.2,0,0.4,0,0.4,0c0.1,0,0.1-0.1,0.1-0.1l0.1,0L19.3,27.5L19.3,27.5z"/>
<path class="st2" d="M21.1,28.4l-1,0.1l0-0.1c0.2,0,0.3,0,0.3-0.2L20.2,27c-0.2,0-0.5,0.1-0.5,0.5l-0.1,0l0-0.5l1.7-0.2l0,0.5
	l-0.1,0c-0.1-0.4-0.4-0.4-0.6-0.4l0.1,1.3C20.8,28.4,20.9,28.4,21.1,28.4L21.1,28.4z"/>
<path class="st2" d="M22.2,27.6c0.4,0,0.5,0,0.5-0.4c0-0.2-0.1-0.3-0.3-0.4c-0.2,0-0.2,0-0.2,0.1L22.2,27.6z M23.4,28.4l-0.6,0
	l-0.6-0.8l-0.1,0l0,0.5c0,0.2,0.1,0.2,0.2,0.2l0,0.1l-0.9,0l0-0.1c0.2,0,0.2,0,0.3-0.2l0-1.1c0-0.2-0.1-0.2-0.2-0.2l0-0.1l0.9,0
	c0.2,0,0.8,0,0.8,0.4c0,0.3-0.3,0.4-0.4,0.4l0.5,0.7C23.3,28.4,23.4,28.4,23.4,28.4L23.4,28.4z"/>
<path class="st2" d="M24.5,28l-0.2-0.6l-0.3,0.5L24.5,28z M25.3,28.7l-0.9-0.1l0-0.1c0.2,0,0.2,0,0.2-0.1c0-0.1-0.1-0.3-0.1-0.3
	L23.9,28c-0.1,0.2-0.2,0.3-0.2,0.3c0,0.1,0.1,0.1,0.2,0.1l0,0.1l-0.6-0.1l0-0.1c0.2,0,0.2-0.1,0.3-0.2l0.8-1.2l0.1,0l0.5,1.3
	C25.1,28.5,25.1,28.6,25.3,28.7L25.3,28.7z"/>
<path class="st2" d="M26.9,29l-1.6-0.3l0-0.1c0.2,0,0.2,0,0.3-0.1l0.2-1.1c0-0.2-0.1-0.2-0.2-0.2l0-0.1l1,0.2l0,0.1
	c-0.2,0-0.3,0-0.3,0.2L26,28.6c0,0.1,0,0.1,0.2,0.2c0.4,0.1,0.6-0.1,0.8-0.3l0.1,0L26.9,29z"/>
<path class="st2" d="M28,29.3l-1-0.2l0-0.1c0.2,0,0.3,0,0.3-0.1l0.2-1.1c0-0.2-0.1-0.2-0.2-0.2l0-0.1l1,0.2l0,0.1
	c-0.1,0-0.3,0-0.3,0.1L27.7,29C27.7,29.1,27.8,29.2,28,29.3L28,29.3z"/>
<path class="st2" d="M29.1,28.9l-0.2-0.6l-0.3,0.6L29.1,28.9z M29.9,29.5L29,29.4l0-0.1c0.2,0,0.2,0,0.2-0.1c0-0.1-0.1-0.3-0.1-0.3
	l-0.6-0.1c-0.1,0.2-0.1,0.3-0.2,0.3c0,0.1,0.1,0.1,0.2,0.1l0,0.1L28,29.3l0-0.1c0.2,0,0.2-0.1,0.3-0.2l0.8-1.2l0.1,0l0.5,1.3
	C29.7,29.4,29.8,29.5,29.9,29.5L29.9,29.5z"/>
<path class="st2" d="M22.2,10.2c-0.2,0-0.4,0.1-0.4-0.1c0-0.3,0.2-0.2,0.4-0.2c0.2,0,0.4-0.1,0.4,0.2C22.6,10.3,22.4,10.2,22.2,10.2
	 M22.7,10.1c0-0.6-0.3,0-0.5-0.5c-0.1,0.4-0.5,0.1-0.5,0.5c0,0.2,0,0.3,0.1,0.3v0.2c0,0,0,0.1,0.1,0.1h0.6l0.1-0.1v-0.2
	C22.7,10.3,22.7,10.2,22.7,10.1"/>
<path class="st2" d="M27.7,17.2c0.1,0,0.3-0.1,0.3-0.2c0-0.1-0.1-0.2-0.3-0.2c-0.1,0-0.3,0.1-0.3,0.2C27.4,17.1,27.5,17.2,27.7,17.2
	"/>
<path class="st2" d="M26.4,8.6l-0.1,0.2c0,0.1,0.1,0.1,0.1,0.1c0.1,0,0.1-0.1,0.1-0.1L26.4,8.6z"/>
<path class="st2" d="M18.1,8.6L18,8.8C18,8.9,18.1,9,18.1,9c0.1,0,0.1-0.1,0.1-0.1L18.1,8.6z"/>
<path class="st2" d="M20.2,8.6l-0.1,0.2c0,0.1,0.1,0.1,0.1,0.1c0.1,0,0.1-0.1,0.1-0.1L20.2,8.6z"/>
<path class="st2" d="M22.3,8.6l-0.1,0.2c0,0.1,0.1,0.1,0.1,0.1c0.1,0,0.1-0.1,0.1-0.1L22.3,8.6z"/>
<path class="st2" d="M24.4,8.6l-0.1,0.2c0,0.1,0.1,0.1,0.1,0.1c0.1,0,0.1-0.1,0.1-0.1L24.4,8.6z"/>
<path class="st2" d="M18.1,11.5l0.1,0.2c0,0.1-0.1,0.1-0.1,0.1c-0.1,0-0.1-0.1-0.1-0.1L18.1,11.5z"/>
<path class="st2" d="M18.1,14.4l0.1,0.2c0,0.1-0.1,0.1-0.1,0.1c-0.1,0-0.1-0.1-0.1-0.1L18.1,14.4z"/>
<path class="st2" d="M18.5,16.6l0.1,0.2c0,0.1-0.1,0.1-0.1,0.1c-0.1,0-0.1-0.1-0.1-0.1L18.5,16.6z"/>
<path class="st2" d="M20.2,17.8l0.1,0.2c0,0.1-0.1,0.1-0.1,0.1c-0.1,0-0.1-0.1-0.1-0.1L20.2,17.8z"/>
<path class="st2" d="M26.5,11.5l-0.1,0.2c0,0.1,0.1,0.1,0.1,0.1c0.1,0,0.1-0.1,0.1-0.1L26.5,11.5z"/>
<path class="st2" d="M26.5,14.4l-0.1,0.2c0,0.1,0.1,0.1,0.1,0.1c0.1,0,0.1-0.1,0.1-0.1L26.5,14.4z"/>
<path class="st2" d="M26.2,16.6l-0.1,0.2c0,0.1,0.1,0.1,0.1,0.1c0.1,0,0.1-0.1,0.1-0.1L26.2,16.6z"/>
<path class="st2" d="M24.5,17.8L24.3,18c0,0.1,0.1,0.1,0.1,0.1c0.1,0,0.1-0.1,0.1-0.1L24.5,17.8z"/>
<path class="st2" d="M22.3,19.1l-0.1,0.2c0,0.1,0.1,0.1,0.1,0.1c0.1,0,0.1-0.1,0.1-0.1L22.3,19.1z"/>
<path class="st2" d="M25.7,14.8c0,0,0.1,0.1,0.2,0l0.1-0.2c0,0-0.1-0.1-0.1-0.1c-0.2,0.1-0.5,0.1-0.6,0.3c0,0.1,0.1,0.3,0.2,0.4
	c0.1,0,0.1,0.1,0.1,0.1c0,0.1,0,0.1-0.1,0.1c-0.2-0.2-0.4,0.1-0.6-0.1c0.1-0.2,0.2-0.4,0-0.6l0-0.1c-0.1-0.2-0.3,0-0.4,0
	c-0.2,0-0.4,0.1-0.5,0.2c0,0.1,0,0.1,0.1,0.2c0.1,0,0.1,0,0.1,0.1L24.2,15c0,0,0,0.1,0.1,0.1c-0.1,0-0.2-0.1-0.2-0.2
	c0-0.1,0-0.3-0.1-0.3l-0.1,0c0,0-0.1,0.1-0.1,0.2c0,0.1,0.1,0.2,0.1,0.2s0.4,0.3,0.5,0.5c-0.1,0.2-0.1,0.6-0.4,0.7
	c-0.1,0.1-0.1,0.1-0.1,0.2l0.1,0.1c0.2-0.1,0.5-0.1,0.5-0.4c0.1-0.1,0.1-0.3,0.2-0.4c0.1,0,0.2,0,0.3,0.1c0,0.2-0.2,0.3-0.4,0.4
	l0,0.1c0.1,0.1,0.2,0.1,0.3,0c0.2-0.1,0.3-0.4,0.5-0.5c0,0.1-0.3,0.2-0.1,0.3c0.1,0,0.3,0,0.4-0.1c-0.1-0.2,0.3-0.3,0.1-0.5
	c0-0.2,0.2-0.3,0.2-0.5c-0.1-0.2-0.3-0.2-0.4-0.4C25.5,14.8,25.6,14.8,25.7,14.8"/>
<path class="st2" d="M16.2,17.3c0.1,0,0.3-0.1,0.3-0.2c0-0.1-0.1-0.2-0.3-0.2c-0.1,0-0.3,0.1-0.3,0.2C15.9,17.2,16,17.3,16.2,17.3"
	/>
<path class="st2" d="M2.7,25.3c0.1,0,0.3-0.1,0.3-0.3c0-0.1-0.1-0.2-0.3-0.2c-0.1,0-0.3,0.1-0.3,0.2C2.4,25.2,2.6,25.3,2.7,25.3"/>
<line class="st0" x1="907.5" y1="-24.2" x2="-292.5" y2="-24.2"/>
<path class="st2" d="M11.2,27.3L11.2,27.3L11.2,27.3L11.2,27.3L11.2,27.3z M11.2,27.2L11.2,27.2L11.2,27.2L11.2,27.2L11.2,27.2
	L11.2,27.2L11.2,27.2L11.2,27.2L11.2,27.2L11.2,27.2L11.2,27.2L11.2,27.2L11.2,27.2L11.2,27.2L11.2,27.2L11.2,27.2L11.2,27.2
	L11.2,27.2L11.2,27.2z"/>
<polygon class="st2" points="11.3,27.2 11.3,27.2 11.3,27.2 11.3,27.3 11.3,27.3 11.3,27.3 11.3,27.3 11.3,27.3 11.3,27.3 
	11.3,27.3 11.3,27.3 11.3,27.3 11.3,27.3 11.3,27.3 11.3,27.3 11.3,27.3 11.3,27.3 11.3,27.3 11.3,27.2 11.3,27.3 11.3,27.3 
	11.3,27.2 "/>
<polygon class="st2" points="11.4,27.2 11.4,27.2 11.4,27.3 11.4,27.3 11.4,27.3 11.4,27.3 11.4,27.3 11.4,27.2 11.4,27.2 
	11.3,27.2 11.3,27.2 11.4,27.2 11.4,27.3 11.3,27.3 11.3,27.3 11.3,27.3 11.3,27.2 11.3,27.2 11.3,27.2 11.3,27.2 11.3,27.3 
	11.3,27.3 11.3,27.3 11.4,27.3 11.4,27.3 11.4,27.3 11.4,27.3 11.4,27.2 11.4,27.2 "/>
<path class="st2" d="M11.4,27.3L11.4,27.3L11.4,27.3L11.4,27.3L11.4,27.3L11.4,27.3z M11.4,27.3L11.4,27.3L11.4,27.3L11.4,27.3
	L11.4,27.3L11.4,27.3L11.4,27.3L11.4,27.3z"/>
<path class="st2" d="M11.4,27.3L11.4,27.3L11.4,27.3L11.4,27.3L11.4,27.3z M11.5,27.3L11.5,27.3L11.5,27.3L11.5,27.3L11.5,27.3z
	 M11.4,27.2L11.4,27.2L11.4,27.2L11.4,27.2L11.4,27.2L11.4,27.2L11.4,27.2L11.4,27.2L11.4,27.2L11.4,27.2L11.4,27.2z"/>
<path class="st2" d="M26.9,15.9c-0.1,0.6-0.2,1-0.6,1.3l-3.6,2.4h0c-0.1,0.1-0.2,0.1-0.3,0.1c-0.1,0-0.2,0-0.3-0.1l-3.6-2.3
	c-0.4-0.3-0.6-0.7-0.6-1.3V8.5h9.1V15.9z M27.1,8.3L27.1,8.3l-9.6,0v0h0l0,7.5c0,0.8,0.3,1.4,0.8,1.6l3.7,2.4
	c0.1,0.1,0.2,0.2,0.3,0.2c0.1,0,0.2,0,0.3-0.1l3.7-2.4c0.4-0.2,0.8-0.9,0.8-1.6L27.1,8.3z"/>
<path class="st2" d="M23.6,19.2l0.1-0.1C23.7,19.2,23.7,19.2,23.6,19.2"/>
<path class="st2" d="M15.5,29l-0.3-0.5L14.9,29L15.5,29z M16.4,29.4l-0.9,0.1l0-0.1c0.2,0,0.2,0,0.2-0.1c0-0.1-0.1-0.2-0.2-0.3
	l-0.6,0.1c-0.1,0.2-0.1,0.3-0.1,0.3c0,0.1,0.1,0.1,0.2,0.1l0,0.1l-0.6,0.1l0-0.1c0.1,0,0.2-0.1,0.2-0.3l0.5-1.4l0.1,0l0.8,1.2
	C16.2,29.3,16.2,29.4,16.4,29.4L16.4,29.4z"/>
<path class="st2" d="M31.9,26.5c-0.1,0.3-0.3,0.4-0.6,0.5c0-0.3,0.3-0.6,0.2-1c-0.2-0.3-0.5-0.4-0.9-0.3c-0.1,0.1-0.1,0.2-0.1,0.4
	l-0.1,0.5c-0.3,0-0.3-0.3-0.4-0.5c0-0.3,0.1-0.6,0.4-0.7c0.2-0.1,0.6-0.1,0.8,0c0.2,0,0.4,0.1,0.5,0.3C32,25.9,32,26.2,31.9,26.5
	 M30.8,26.6c0.2-0.2,0-1,0.4-0.5c0,0.1,0,0.3-0.1,0.4C31,26.6,30.9,26.7,30.8,26.6 M30.9,27c0,0.2-0.2,0.2-0.3,0.3h-0.3
	c-0.1-0.1,0-0.3,0-0.4C30.5,26.9,30.7,26.9,30.9,27 M31.3,28.7c-0.1,0.1,0,0.4-0.2,0.5c0,0.3-0.2,0.4-0.4,0.5
	c-1.6,0.4-3.2-0.2-4.8-0.5c-2.2-0.5-4.8-0.6-7.1-0.1c-1.1,0.2-2.1,0.5-3.1,0.8c-0.6,0.1-1.3,0.2-1.9,0c-0.5-0.2-0.3-0.9-0.4-1.3
	c0-0.4-0.1-0.6-0.1-1c0-0.1-0.1-0.3-0.1-0.4c0.2,0,0.4,0.2,0.6,0.2c1.2,0.2,2.2-0.2,3.3-0.4c1-0.2,2.1-0.4,3.2-0.5
	c1.2,0,2.5-0.1,3.7,0.1c0.4,0,0.7,0.1,1.1,0.1c0.8,0.1,1.5,0.3,2.3,0.4c0.1,0,0.3,0,0.4,0.1c1.2,0.2,2.6,0.6,3.8,0
	C31.6,27.7,31.4,28.2,31.3,28.7 M24.3,29.7c0.1,0.2,0.2,0.4,0.1,0.6c-0.1,0.3-0.4,0.3-0.7,0.3c-0.1,0-0.2,0-0.3-0.1
	c0-0.1,0-0.1-0.1-0.1c0-0.2-0.3-0.4-0.1-0.5C23.6,29.7,24.1,29.2,24.3,29.7 M24.6,29.8c0.2,0,0.2,0.2,0.2,0.4c0,0.3-0.2,0.6-0.5,0.7
	c-0.2,0.1-0.4,0.1-0.5,0.1c0.3,0,0.7-0.1,0.8-0.5L24.6,29.8z M25,31.7L25,31.7c-0.4,0.1-0.7-0.2-1-0.4l0-0.1
	C24.4,31.2,24.7,31.5,25,31.7 M24.5,33l-0.1,0c-0.4-0.5-0.6-1.1-0.9-1.7l0.1,0C23.9,31.8,24.2,32.4,24.5,33 M23.8,32.6L23.8,32.6
	c-0.1,0-0.1-0.2-0.1-0.3C23.8,32.4,23.9,32.5,23.8,32.6 M23.4,31.8c0,0.1,0.2,0.2,0.1,0.3C23.5,32.1,23.4,31.9,23.4,31.8 M23.3,30.9
	L23.3,30.9L23.3,30.9L23.3,30.9L23.3,30.9z M22.5,32.9c-0.3,0-0.7,0.2-0.9-0.1c0-0.1-0.1-0.2-0.1-0.3c0.2-0.1,0.4,0.2,0.6,0
	c0.3,0,0.6,0,1,0c0.2,0,0.4-0.3,0.4,0C23.4,33.1,22.9,32.8,22.5,32.9 M21.9,31.2l0.1-0.1c-0.1,0.3-0.3,0.7-0.5,1
	C21.5,31.8,21.8,31.5,21.9,31.2 M22.3,31c0.2-0.2,0.3,0.1,0.4,0.3c0.2,0.3,0.7,0.6,0.5,1c-0.3,0.2-0.7,0-1,0.2c-0.2,0-0.4,0-0.5-0.1
	C22,31.9,22.1,31.4,22.3,31 M22.3,30.4L22.3,30.4L22.3,30.4L22.3,30.4z M22.6,30.5c0.1-0.1,0.1-0.2,0.2-0.2l0,0
	C22.8,30.4,22.7,30.4,22.6,30.5 M22.8,30.7h0.1H22.8z M23.2,31.1L23.2,31.1L22.8,31C23,30.9,23.1,31,23.2,31.1 M23.1,30.3L23.1,30.3
	L23.1,30.3L23.1,30.3L23.1,30.3z M23.7,29.4c-0.2,0.1-0.3,0.3-0.5,0.3C23.3,29.5,23.5,29.4,23.7,29.4 M23,29.2c0-0.1,0.1,0,0.2-0.1
	l0.4,0C23.4,29.1,23.1,29.6,23,29.2 M22,29.6c0.1-0.2,0.1-0.4,0.2-0.5c0.1,0,0.3,0,0.4,0.1c0,0.3,0.4,0.7,0,0.9
	c-0.1,0.1-0.3,0.2-0.4,0.1C22,29.9,21.9,29.8,22,29.6 M21.8,30.5c0-0.1,0-0.1,0-0.2c0.1-0.1,0.1,0.1,0.2,0.1
	C22,30.4,21.9,30.5,21.8,30.5 M21.8,29.8L21.8,29.8l0-0.2h0V29.8z M21.6,29.4c-0.2,0-0.3-0.3-0.5-0.3c0.2-0.1,0.3,0,0.5,0
	C21.8,29.2,21.6,29.3,21.6,29.4 M21.5,30.5c0-0.2,0.1-0.4,0.2-0.6C21.7,30.1,21.6,30.4,21.5,30.5 M21.2,30.5c-0.2,0-0.5-0.1-0.7-0.2
	c-0.1-0.1,0-0.3,0-0.5c0.2-0.3,0.7-0.5,1-0.2C21.5,30,21.4,30.3,21.2,30.5 M21.3,30.9L21.3,30.9L21.3,30.9L21.3,30.9L21.3,30.9
	L21.3,30.9L21.3,30.9z M21,31.7c-0.2,0.5-0.4,0.9-0.7,1.3c0,0.1-0.1,0.1-0.2,0.1c0-0.2,0.2-0.4,0.3-0.5c0.3-0.4,0.4-0.8,0.7-1.2
	C21.1,31.6,21,31.6,21,31.7 M19.6,31.6c0.3-0.1,0.7-0.4,1-0.3C20.4,31.5,20,31.6,19.6,31.6 M20.1,30.6c-0.1-0.5,0.1-0.9,0.4-1.3
	c0.2,0,0.4-0.1,0.6,0c-0.4,0.1-0.8,0.2-0.9,0.7c0,0.2,0,0.3,0,0.4c0.2,0.3,0.5,0.2,0.7,0.4c0,0.1-0.1,0.2-0.1,0.2
	C20.7,30.9,20.4,30.8,20.1,30.6 M13.7,26.1c0-0.1,0-0.3,0.2-0.3c0.1,0,0.2,0,0.3,0.1c0,0.2,0,0.3-0.1,0.5
	C13.8,26.4,13.7,26.2,13.7,26.1 M13.7,26.5c0.2,0.2,0.5,0.1,0.7,0.1c0,0.2,0,0.4-0.1,0.5c-0.2-0.1-0.5,0-0.7-0.3
	C13.8,26.8,13.7,26.7,13.7,26.5 M13.1,26.1c0-0.3,0.1-0.5,0.3-0.7c0.3-0.2,0.8-0.1,1.1,0c0.1,0.1,0.2,0.1,0.2,0.3
	c0.1,0.2,0,0.5-0.2,0.6h-0.1c0-0.2,0-0.5,0.1-0.6c0-0.2-0.2-0.2-0.3-0.3c-0.2-0.1-0.4,0-0.6,0.1c-0.1,0.2-0.3,0.4-0.2,0.6
	c0.1,0.2,0,0.4,0.1,0.5l0,0.1C13.3,26.7,13,26.5,13.1,26.1 M26,32.2c0.3,0.2,1,0.3,1.5,0.4c0,0.2-0.4,0-0.3,0.3
	c-0.4-0.2-0.9-0.3-1.2-0.6C25.9,32.2,25.9,32.2,26,32.2 M17.4,32.4l-0.2-0.2c0.1-0.1,0.3-0.1,0.5-0.1c0.4-0.1,0.8-0.3,1.2-0.2
	C18.4,32.2,17.9,32.3,17.4,32.4 M32.3,25.9c-0.2-0.4-0.5-0.7-0.9-0.9c-0.4-0.1-0.9,0-1.2,0.3C29.6,25.8,30,26.5,30,27
	c0,0.1,0,0.2-0.1,0.3c-2-0.2-3.9-0.7-5.8-0.9c-0.5-0.1-0.9-0.1-1.3-0.2l-0.6-0.1c-1.7,0.1-3.4,0.2-5.1,0.6c-0.3,0.1-0.7,0.1-1.1,0.3
	c-0.2,0-0.5,0.1-0.7,0.1l-0.5,0.1c0,0-0.1,0-0.2,0c-0.2-0.6,0.4-0.9,0.2-1.5c-0.2-0.3-0.5-0.6-0.9-0.6c-0.5-0.1-0.9,0.2-1.1,0.6
	c-0.3,0.7,0.1,1.4,0.2,2.1c0,0.2,0.2,0.5,0,0.7c-0.4-0.3-1-0.5-1.6-0.3c-0.2,0.1-0.5,0-0.6,0.2c0.6,0.3,1.3,0.3,2,0.3
	c0.1,0,0.1,0,0.2,0c0.1,0.4-0.1,0.9,0.2,1.2c0.2,0.3,0.7,0.4,1.1,0.5c1.3,0,2.4-0.4,3.6-0.7c0.2,0,0.3-0.1,0.5-0.1
	c0.6-0.1,1.3-0.3,2-0.3c-0.3,0.4-0.5,0.8-0.6,1.3c-0.2,0.4,0.3,0.4,0.4,0.7c-0.4,0.1-0.7,0.4-1.1,0.6c-0.9,0-1.6,0.3-2.5,0.4
	c0,0.2,0.3,0.1,0.3,0.3c0,0.1-0.2,0.1-0.3,0.2c0,0.1,0,0.1,0.1,0.1c0.1-0.1,0.3,0,0.3-0.1c0.3,0,0.5-0.1,0.8-0.1
	c0.2-0.1,0.5-0.1,0.7-0.3c0.3-0.1,0.5-0.3,0.8-0.4c0.4,0,0.8-0.1,1.2-0.2v0.1c-0.3,0.5-0.6,1.1-1,1.6c-0.1,0.1,0,0.2,0.1,0.2
	c0.2,0.1,0.4,0,0.5-0.1c0.3-0.5,0.6-1,0.8-1.5c0.1-0.5,0.4-0.7,0.8-1.1c0.1,0,0.1-0.1,0.2,0c-0.3,0.3-0.5,0.6-0.7,1
	c-0.1,0.4-0.1,0.9,0.2,1.2c0.2,0.1,0.4,0.1,0.6,0.1c0.5-0.3,1.2,0.2,1.6-0.4c0.2,0,0.3,0.3,0.4,0.4c0.2,0.1,0.5,0.3,0.7,0.1
	c0-0.2-0.2-0.3-0.3-0.4c-0.2-0.3-0.4-0.5-0.5-0.8c-0.1-0.2-0.2-0.3-0.2-0.5c0.2,0.1,0.5,0.3,0.7,0.3c0.2,0.1,0.5,0.1,0.7,0.2
	c0.2,0.2,0.5,0.4,0.7,0.5c0.3,0.2,0.7,0.2,1.1,0.3c0.1,0,0.3,0.1,0.4,0c-0.1-0.1-0.1-0.1-0.2-0.2c0-0.2,0.2-0.1,0.3-0.2
	c0-0.1-0.1-0.1-0.2-0.1c-0.2-0.1-0.7-0.1-0.8-0.2c-0.2,0-0.3-0.1-0.5-0.2c-0.8,0-1.3-0.8-1.9-1c0.2-0.1,0.4-0.3,0.5-0.5
	c0.1-0.2,0.2-0.5,0-0.8c-0.1-0.4-0.7-0.4-1-0.6l0,0c0.5,0,1,0.1,1.5,0.2c1.3,0.2,2.5,0.7,3.9,0.7c0.8,0,1.7,0,2.1-0.7
	c0.1-0.4,0.2-0.9,0.2-1.3C31.9,27.4,32.3,26.7,32.3,25.9"/>
<line class="st0" x1="907.5" y1="-24.2" x2="-292.5" y2="-24.2"/>
<rect x="48.6" y="20.7" class="st2" width="145.9" height="0.3"/>
<path class="st2" d="M51.6,28.6l-0.8-1.9L50,28.6H51.6z M51.7,28.9h-1.9l-0.2,0.5c-0.1,0.2-0.1,0.3-0.1,0.4c0,0.2,0.1,0.3,0.2,0.3
	c0.1,0,0.2,0.1,0.5,0.1v0.1h-1.8v-0.1c0.2,0,0.3-0.1,0.5-0.2c0.1-0.1,0.3-0.4,0.5-0.8l1.9-4.3h0.1l1.9,4.5c0.2,0.4,0.3,0.7,0.5,0.8
	c0.1,0.1,0.2,0.1,0.4,0.1v0.1h-2.6v-0.1h0.1c0.2,0,0.4,0,0.4-0.1c0.1,0,0.1-0.1,0.1-0.2c0,0,0-0.1,0-0.1c0,0,0-0.1-0.1-0.3
	L51.7,28.9z"/>
<path class="st2" d="M57.4,26.7v2.9c0,0.3,0,0.5,0.1,0.5c0.1,0.1,0.2,0.1,0.3,0.1v0.1h-1.5v-0.5c-0.2,0.2-0.4,0.4-0.5,0.5
	c-0.2,0.1-0.4,0.1-0.6,0.1c-0.2,0-0.4-0.1-0.6-0.2c-0.2-0.1-0.3-0.3-0.3-0.5c-0.1-0.2-0.1-0.5-0.1-0.9v-1.5c0-0.3,0-0.5-0.1-0.5
	c-0.1-0.1-0.2-0.1-0.3-0.1v-0.1h1.5v2.6c0,0.3,0,0.4,0,0.5c0,0.1,0.1,0.1,0.1,0.2c0.1,0,0.1,0.1,0.2,0.1c0.1,0,0.2,0,0.3-0.1
	c0.1-0.1,0.2-0.2,0.4-0.4v-2c0-0.3,0-0.5-0.1-0.5c-0.1-0.1-0.2-0.1-0.3-0.1v-0.1H57.4z"/>
<path class="st2" d="M60.5,26.6l0.1,1.3h-0.1c-0.2-0.4-0.3-0.6-0.5-0.8c-0.2-0.1-0.3-0.2-0.5-0.2c-0.1,0-0.2,0-0.3,0.1
	c-0.1,0.1-0.1,0.2-0.1,0.3c0,0.1,0,0.1,0.1,0.2c0.1,0.1,0.3,0.3,0.7,0.6c0.4,0.3,0.6,0.5,0.8,0.7c0.1,0.2,0.2,0.4,0.2,0.6
	c0,0.2,0,0.4-0.2,0.6c-0.1,0.2-0.2,0.4-0.4,0.5c-0.2,0.1-0.4,0.2-0.6,0.2c-0.2,0-0.4-0.1-0.7-0.2c-0.1,0-0.1,0-0.2,0
	c-0.1,0-0.2,0.1-0.2,0.2h-0.1l-0.1-1.3h0.1c0.1,0.4,0.3,0.6,0.5,0.8c0.2,0.2,0.4,0.3,0.6,0.3c0.1,0,0.2,0,0.3-0.1
	c0.1-0.1,0.1-0.2,0.1-0.3c0-0.1,0-0.2-0.1-0.3c-0.1-0.1-0.3-0.2-0.5-0.4c-0.4-0.3-0.7-0.5-0.8-0.7c-0.2-0.2-0.3-0.5-0.3-0.7
	c0-0.3,0.1-0.6,0.3-0.8c0.2-0.2,0.5-0.4,0.8-0.4c0.2,0,0.4,0,0.6,0.1c0.1,0,0.1,0.1,0.2,0.1c0,0,0.1,0,0.1,0c0,0,0.1-0.1,0.1-0.2
	H60.5z"/>
<path class="st2" d="M62.7,25.3v1.4h0.9v0.4h-0.9v2.3c0,0.2,0,0.4,0,0.4c0,0.1,0.1,0.1,0.1,0.2c0,0,0.1,0.1,0.1,0.1
	c0.2,0,0.3-0.1,0.5-0.4l0.1,0.1c-0.2,0.5-0.6,0.8-1,0.8c-0.2,0-0.4-0.1-0.6-0.2c-0.2-0.1-0.3-0.3-0.3-0.4c0-0.1,0-0.3,0-0.7v-2h-0.5
	v-0.1c0.3-0.2,0.6-0.5,0.8-0.8c0.2-0.3,0.4-0.6,0.6-0.9H62.7z"/>
<path class="st2" d="M65.3,26.7v0.9c0.2-0.4,0.5-0.6,0.6-0.8c0.2-0.1,0.4-0.2,0.5-0.2c0.1,0,0.3,0,0.4,0.1c0.1,0.1,0.1,0.2,0.1,0.4
	c0,0.2,0,0.3-0.1,0.4c-0.1,0.1-0.2,0.1-0.3,0.1c-0.1,0-0.3,0-0.4-0.1c-0.1-0.1-0.2-0.1-0.2-0.2l-0.1,0c-0.1,0-0.1,0-0.2,0.1
	c-0.1,0.1-0.2,0.2-0.2,0.4c-0.1,0.3-0.1,0.5-0.1,0.9v0.9l0,0.2c0,0.2,0,0.3,0,0.3c0,0.1,0.1,0.1,0.1,0.2c0.1,0,0.2,0.1,0.3,0.1v0.1
	h-2v-0.1c0.2,0,0.3-0.1,0.3-0.1c0.1-0.1,0.1-0.3,0.1-0.6v-2.1c0-0.2,0-0.4,0-0.4c0-0.1-0.1-0.1-0.1-0.2c0,0-0.1-0.1-0.3-0.1v-0.1
	H65.3z"/>
<path class="st2" d="M69.2,29.6v-1.3c-0.3,0.2-0.6,0.4-0.7,0.6c-0.1,0.1-0.2,0.3-0.2,0.4c0,0.1,0,0.2,0.1,0.3
	c0.1,0.1,0.2,0.1,0.3,0.1C68.9,29.8,69,29.7,69.2,29.6 M69.2,29.9c-0.4,0.4-0.8,0.6-1.2,0.6c-0.2,0-0.4-0.1-0.5-0.2
	c-0.1-0.1-0.2-0.3-0.2-0.5c0-0.3,0.1-0.5,0.4-0.8c0.2-0.2,0.8-0.5,1.6-0.9v-0.4c0-0.3,0-0.5,0-0.5c0-0.1-0.1-0.1-0.2-0.2
	c-0.1-0.1-0.2-0.1-0.3-0.1c-0.2,0-0.3,0-0.4,0.1c-0.1,0-0.1,0.1-0.1,0.2c0,0.1,0,0.1,0.1,0.2c0.1,0.1,0.1,0.2,0.1,0.3
	c0,0.1,0,0.2-0.1,0.3c-0.1,0.1-0.2,0.1-0.4,0.1c-0.2,0-0.3-0.1-0.4-0.2c-0.1-0.1-0.2-0.2-0.2-0.4c0-0.2,0.1-0.4,0.2-0.6
	c0.1-0.2,0.4-0.3,0.6-0.4c0.3-0.1,0.5-0.1,0.8-0.1c0.3,0,0.6,0.1,0.8,0.2c0.2,0.2,0.3,0.3,0.4,0.5c0,0.1,0.1,0.4,0.1,0.8v1.5
	c0,0.2,0,0.3,0,0.3c0,0,0,0.1,0.1,0.1l0.1,0c0.1,0,0.1,0,0.2-0.1l0.1,0.1c-0.1,0.2-0.3,0.3-0.4,0.4c-0.1,0.1-0.3,0.1-0.5,0.1
	c-0.2,0-0.4,0-0.5-0.2C69.3,30.2,69.2,30.1,69.2,29.9"/>
<path class="st2" d="M72.5,25v4.7c0,0.3,0,0.4,0.1,0.5c0.1,0.1,0.2,0.1,0.4,0.1v0.1h-2v-0.1c0.2,0,0.3-0.1,0.4-0.1
	c0.1-0.1,0.1-0.2,0.1-0.5v-3.9c0-0.3,0-0.4-0.1-0.5c-0.1-0.1-0.2-0.1-0.3-0.1V25H72.5z"/>
<path class="st2" d="M74,24.9c0.2,0,0.3,0.1,0.4,0.2c0.1,0.1,0.2,0.3,0.2,0.4c0,0.2-0.1,0.3-0.2,0.4c-0.1,0.1-0.3,0.2-0.4,0.2
	c-0.2,0-0.3-0.1-0.4-0.2s-0.2-0.3-0.2-0.4c0-0.2,0.1-0.3,0.2-0.4C73.7,24.9,73.9,24.9,74,24.9 M74.6,26.7v3c0,0.3,0,0.4,0.1,0.5
	c0.1,0.1,0.2,0.1,0.4,0.1v0.1h-2v-0.1c0.2,0,0.3-0.1,0.4-0.1c0.1-0.1,0.1-0.2,0.1-0.5v-2.2c0-0.3,0-0.4-0.1-0.5
	c-0.1-0.1-0.2-0.1-0.4-0.1v-0.1H74.6z"/>
<path class="st2" d="M77.3,29.6v-1.3c-0.3,0.2-0.6,0.4-0.7,0.6c-0.1,0.1-0.2,0.3-0.2,0.4c0,0.1,0,0.2,0.1,0.3
	c0.1,0.1,0.2,0.1,0.3,0.1C76.9,29.8,77.1,29.7,77.3,29.6 M77.3,29.9c-0.4,0.4-0.9,0.6-1.2,0.6c-0.2,0-0.4-0.1-0.5-0.2
	s-0.2-0.3-0.2-0.5c0-0.3,0.1-0.5,0.4-0.8c0.2-0.2,0.8-0.5,1.6-0.9v-0.4c0-0.3,0-0.5,0-0.5c0-0.1-0.1-0.1-0.2-0.2
	c-0.1-0.1-0.2-0.1-0.3-0.1c-0.2,0-0.3,0-0.4,0.1c-0.1,0-0.1,0.1-0.1,0.2c0,0.1,0,0.1,0.1,0.2c0.1,0.1,0.1,0.2,0.1,0.3
	c0,0.1,0,0.2-0.1,0.3c-0.1,0.1-0.2,0.1-0.4,0.1c-0.2,0-0.3-0.1-0.4-0.2c-0.1-0.1-0.2-0.2-0.2-0.4c0-0.2,0.1-0.4,0.2-0.6
	c0.1-0.2,0.4-0.3,0.6-0.4c0.3-0.1,0.5-0.1,0.8-0.1c0.3,0,0.6,0.1,0.8,0.2s0.3,0.3,0.4,0.5c0,0.1,0.1,0.4,0.1,0.8v1.5
	c0,0.2,0,0.3,0,0.3c0,0,0,0.1,0.1,0.1l0.1,0c0.1,0,0.1,0,0.2-0.1l0.1,0.1c-0.1,0.2-0.3,0.3-0.4,0.4c-0.1,0.1-0.3,0.1-0.5,0.1
	c-0.2,0-0.4,0-0.5-0.2C77.4,30.2,77.3,30.1,77.3,29.9"/>
<path class="st2" d="M80.6,26.7v0.5c0.2-0.2,0.4-0.4,0.5-0.5c0.2-0.1,0.4-0.1,0.6-0.1c0.2,0,0.4,0.1,0.6,0.2
	c0.2,0.1,0.3,0.3,0.3,0.5c0,0.2,0.1,0.4,0.1,0.9v1.5c0,0.3,0,0.5,0.1,0.5c0.1,0.1,0.2,0.1,0.3,0.1v0.1h-1.9v-0.1
	c0.1,0,0.2-0.1,0.3-0.2c0-0.1,0.1-0.2,0.1-0.5v-1.7c0-0.3,0-0.5,0-0.6c0-0.1-0.1-0.1-0.1-0.2c-0.1,0-0.1-0.1-0.2-0.1
	c-0.2,0-0.4,0.2-0.6,0.5v2c0,0.3,0,0.5,0.1,0.5c0.1,0.1,0.1,0.1,0.3,0.1v0.1h-1.9v-0.1c0.2,0,0.3-0.1,0.3-0.2c0-0.1,0.1-0.2,0.1-0.5
	v-2.1c0-0.3,0-0.5-0.1-0.5c-0.1-0.1-0.2-0.1-0.3-0.1v-0.1H80.6z"/>
<path class="st2" d="M87.3,25.3v2.2h0.2c0.2,0,0.4,0,0.6-0.1c0.1-0.1,0.3-0.2,0.4-0.4c0.1-0.2,0.2-0.4,0.2-0.7h0.1v2.7h-0.1
	c0-0.5-0.2-0.9-0.4-1c-0.2-0.2-0.5-0.2-0.8-0.2h-0.2v1.7c0,0.3,0,0.5,0,0.5c0,0.1,0.1,0.1,0.2,0.2s0.2,0.1,0.4,0.1H88v0.1h-2.8v-0.1
	h0.2c0.2,0,0.3,0,0.4-0.1c0.1,0,0.1-0.1,0.2-0.2c0-0.1,0-0.2,0-0.5v-3.6c0-0.3,0-0.5,0-0.5c0-0.1-0.1-0.1-0.2-0.2
	c-0.1-0.1-0.2-0.1-0.4-0.1h-0.2V25h4.5v1.6h-0.2c0-0.4-0.1-0.6-0.3-0.8c-0.1-0.2-0.4-0.3-0.7-0.4c-0.2,0-0.4-0.1-0.9-0.1H87.3z"/>
<path class="st2" d="M91,24.9c0.2,0,0.3,0.1,0.4,0.2c0.1,0.1,0.2,0.3,0.2,0.4c0,0.2-0.1,0.3-0.2,0.4c-0.1,0.1-0.3,0.2-0.4,0.2
	c-0.2,0-0.3-0.1-0.4-0.2s-0.2-0.3-0.2-0.4c0-0.2,0.1-0.3,0.2-0.4C90.7,24.9,90.8,24.9,91,24.9 M91.5,26.7v3c0,0.3,0,0.4,0.1,0.5
	c0.1,0.1,0.2,0.1,0.4,0.1v0.1h-2v-0.1c0.2,0,0.3-0.1,0.4-0.1c0.1-0.1,0.1-0.2,0.1-0.5v-2.2c0-0.3,0-0.4-0.1-0.5
	c-0.1-0.1-0.2-0.1-0.4-0.1v-0.1H91.5z"/>
<path class="st2" d="M94.5,26.6l0.1,1.3h-0.1c-0.2-0.4-0.3-0.6-0.5-0.8c-0.2-0.1-0.3-0.2-0.5-0.2c-0.1,0-0.2,0-0.3,0.1
	c-0.1,0.1-0.1,0.2-0.1,0.3c0,0.1,0,0.1,0.1,0.2c0.1,0.1,0.3,0.3,0.7,0.6c0.4,0.3,0.6,0.5,0.8,0.7c0.1,0.2,0.2,0.4,0.2,0.6
	c0,0.2,0,0.4-0.2,0.6c-0.1,0.2-0.2,0.4-0.4,0.5c-0.2,0.1-0.4,0.2-0.6,0.2c-0.2,0-0.4-0.1-0.7-0.2c-0.1,0-0.1,0-0.2,0
	c-0.1,0-0.2,0.1-0.2,0.2h-0.1l-0.1-1.3h0.1c0.1,0.4,0.3,0.6,0.5,0.8c0.2,0.2,0.4,0.3,0.6,0.3c0.1,0,0.2,0,0.3-0.1
	c0.1-0.1,0.1-0.2,0.1-0.3c0-0.1,0-0.2-0.1-0.3c-0.1-0.1-0.3-0.2-0.5-0.4c-0.4-0.3-0.7-0.5-0.8-0.7c-0.2-0.2-0.3-0.5-0.3-0.7
	c0-0.3,0.1-0.6,0.3-0.8c0.2-0.2,0.5-0.4,0.8-0.4c0.2,0,0.4,0,0.6,0.1c0.1,0,0.1,0.1,0.2,0.1c0,0,0.1,0,0.1,0c0,0,0.1-0.1,0.1-0.2
	H94.5z"/>
<path class="st2" d="M96.7,25v2.2c0.2-0.2,0.4-0.4,0.6-0.5c0.2-0.1,0.3-0.1,0.5-0.1c0.2,0,0.4,0.1,0.6,0.2c0.2,0.1,0.3,0.3,0.3,0.5
	c0.1,0.2,0.1,0.5,0.1,0.9v1.5c0,0.3,0,0.5,0.1,0.5c0.1,0.1,0.2,0.1,0.3,0.1v0.1h-1.9v-0.1c0.1,0,0.2-0.1,0.3-0.2
	c0-0.1,0.1-0.2,0.1-0.5v-1.7c0-0.3,0-0.5,0-0.6c0-0.1-0.1-0.1-0.1-0.2c-0.1,0-0.1-0.1-0.2-0.1c-0.1,0-0.2,0-0.3,0.1
	c-0.1,0.1-0.2,0.2-0.3,0.4v2c0,0.3,0,0.4,0.1,0.5c0,0.1,0.2,0.1,0.3,0.2v0.1h-1.9v-0.1c0.2,0,0.3-0.1,0.3-0.2c0-0.1,0.1-0.2,0.1-0.5
	v-3.8c0-0.3,0-0.5-0.1-0.5c-0.1-0.1-0.2-0.1-0.3-0.1V25H96.7z"/>
<path class="st2" d="M101.6,28.2c0-0.4,0-0.7-0.1-0.9c0-0.2-0.1-0.3-0.2-0.4c-0.1,0-0.1-0.1-0.2-0.1c-0.1,0-0.2,0.1-0.3,0.2
	c-0.2,0.2-0.2,0.6-0.2,1v0.1H101.6z M102.6,28.4h-2c0,0.5,0.2,0.9,0.4,1.2c0.2,0.2,0.4,0.3,0.7,0.3c0.2,0,0.3,0,0.4-0.1
	c0.1-0.1,0.3-0.3,0.4-0.5l0.1,0.1c-0.2,0.4-0.4,0.7-0.7,0.9c-0.2,0.2-0.5,0.3-0.8,0.3c-0.5,0-1-0.2-1.2-0.6
	c-0.2-0.3-0.3-0.8-0.3-1.3c0-0.6,0.2-1.1,0.5-1.5c0.3-0.4,0.7-0.6,1.2-0.6c0.4,0,0.7,0.2,1,0.5C102.4,27.4,102.6,27.8,102.6,28.4"/>
<path class="st2" d="M104.4,26.7v0.9c0.2-0.4,0.5-0.6,0.6-0.8c0.2-0.1,0.4-0.2,0.5-0.2c0.1,0,0.3,0,0.4,0.1c0.1,0.1,0.1,0.2,0.1,0.4
	c0,0.2,0,0.3-0.1,0.4c-0.1,0.1-0.2,0.1-0.3,0.1c-0.1,0-0.3,0-0.4-0.1c-0.1-0.1-0.2-0.1-0.2-0.2l-0.1,0c-0.1,0-0.1,0-0.2,0.1
	c-0.1,0.1-0.2,0.2-0.2,0.4c-0.1,0.3-0.1,0.5-0.1,0.9v0.9l0,0.2c0,0.2,0,0.3,0,0.3c0,0.1,0.1,0.1,0.1,0.2c0.1,0,0.2,0.1,0.3,0.1v0.1
	h-2v-0.1c0.2,0,0.3-0.1,0.3-0.1c0.1-0.1,0.1-0.3,0.1-0.6v-2.1c0-0.2,0-0.4,0-0.4c0-0.1-0.1-0.1-0.1-0.2c0,0-0.1-0.1-0.3-0.1v-0.1
	H104.4z"/>
<path class="st2" d="M107.2,24.9c0.2,0,0.3,0.1,0.4,0.2c0.1,0.1,0.2,0.3,0.2,0.4c0,0.2-0.1,0.3-0.2,0.4c-0.1,0.1-0.3,0.2-0.4,0.2
	c-0.2,0-0.3-0.1-0.4-0.2c-0.1-0.1-0.2-0.3-0.2-0.4c0-0.2,0.1-0.3,0.2-0.4C106.9,24.9,107.1,24.9,107.2,24.9 M107.8,26.7v3
	c0,0.3,0,0.4,0.1,0.5c0.1,0.1,0.2,0.1,0.4,0.1v0.1h-2v-0.1c0.2,0,0.3-0.1,0.4-0.1c0.1-0.1,0.1-0.2,0.1-0.5v-2.2c0-0.3,0-0.4-0.1-0.5
	c-0.1-0.1-0.2-0.1-0.3-0.1v-0.1H107.8z"/>
<path class="st2" d="M110.6,28.2c0-0.4,0-0.7-0.1-0.9c0-0.2-0.1-0.3-0.2-0.4c-0.1,0-0.1-0.1-0.2-0.1c-0.1,0-0.2,0.1-0.3,0.2
	c-0.2,0.2-0.2,0.6-0.2,1v0.1H110.6z M111.6,28.4h-2c0,0.5,0.2,0.9,0.4,1.2c0.2,0.2,0.4,0.3,0.7,0.3c0.2,0,0.3,0,0.4-0.1
	c0.1-0.1,0.3-0.3,0.4-0.5l0.1,0.1c-0.2,0.4-0.4,0.7-0.7,0.9c-0.2,0.2-0.5,0.3-0.8,0.3c-0.5,0-1-0.2-1.2-0.6
	c-0.2-0.3-0.3-0.8-0.3-1.3c0-0.6,0.2-1.1,0.5-1.5s0.7-0.6,1.2-0.6c0.4,0,0.7,0.2,1,0.5C111.4,27.4,111.5,27.8,111.6,28.4"/>
<path class="st2" d="M114.2,26.6l0.1,1.3h-0.1c-0.2-0.4-0.3-0.6-0.5-0.8c-0.2-0.1-0.3-0.2-0.5-0.2c-0.1,0-0.2,0-0.3,0.1
	c-0.1,0.1-0.1,0.2-0.1,0.3c0,0.1,0,0.1,0.1,0.2c0.1,0.1,0.3,0.3,0.7,0.6c0.4,0.3,0.6,0.5,0.8,0.7c0.1,0.2,0.2,0.4,0.2,0.6
	c0,0.2-0.1,0.4-0.2,0.6c-0.1,0.2-0.2,0.4-0.4,0.5c-0.2,0.1-0.4,0.2-0.6,0.2c-0.2,0-0.4-0.1-0.7-0.2c-0.1,0-0.1,0-0.2,0
	c-0.1,0-0.2,0.1-0.2,0.2H112l-0.1-1.3h0.1c0.1,0.4,0.3,0.6,0.5,0.8c0.2,0.2,0.4,0.3,0.6,0.3c0.1,0,0.2,0,0.3-0.1
	c0.1-0.1,0.1-0.2,0.1-0.3c0-0.1,0-0.2-0.1-0.3c-0.1-0.1-0.3-0.2-0.5-0.4c-0.4-0.3-0.7-0.5-0.8-0.7c-0.2-0.2-0.3-0.5-0.3-0.7
	c0-0.3,0.1-0.6,0.3-0.8c0.2-0.2,0.5-0.4,0.8-0.4c0.2,0,0.4,0,0.6,0.1c0.1,0,0.1,0.1,0.2,0.1c0,0,0.1,0,0.1,0c0,0,0.1-0.1,0.1-0.2
	H114.2z"/>
<path class="st2" d="M120.3,28.6l1.4-3.6h2.2v0.1h-0.2c-0.2,0-0.3,0-0.4,0.1c-0.1,0-0.1,0.1-0.2,0.2c0,0.1,0,0.2,0,0.5v3.6
	c0,0.3,0,0.5,0,0.5c0,0.1,0.1,0.1,0.2,0.2c0.1,0.1,0.2,0.1,0.4,0.1h0.2v0.1h-2.8v-0.1h0.2c0.2,0,0.3,0,0.4-0.1
	c0.1,0,0.1-0.1,0.2-0.2c0-0.1,0-0.2,0-0.5v-4l-2,5h-0.1l-2.1-4.9v3.8c0,0.3,0,0.4,0,0.5c0,0.1,0.1,0.2,0.2,0.3
	c0.1,0.1,0.3,0.1,0.5,0.1v0.1h-1.8v-0.1h0.1c0.1,0,0.2,0,0.3-0.1c0.1,0,0.2-0.1,0.2-0.2c0.1-0.1,0.1-0.2,0.1-0.3c0,0,0-0.2,0-0.4
	v-3.4c0-0.3,0-0.4,0-0.5c0-0.1-0.1-0.1-0.2-0.2c-0.1-0.1-0.2-0.1-0.4-0.1h-0.2V25h2.2L120.3,28.6z"/>
<path class="st2" d="M126.2,29.6v-1.3c-0.3,0.2-0.6,0.4-0.7,0.6c-0.1,0.1-0.2,0.3-0.2,0.4c0,0.1,0,0.2,0.1,0.3
	c0.1,0.1,0.2,0.1,0.3,0.1C125.9,29.8,126,29.7,126.2,29.6 M126.2,29.9c-0.4,0.4-0.9,0.6-1.2,0.6c-0.2,0-0.4-0.1-0.5-0.2
	c-0.1-0.1-0.2-0.3-0.2-0.5c0-0.3,0.1-0.5,0.4-0.8c0.2-0.2,0.8-0.5,1.6-0.9v-0.4c0-0.3,0-0.5,0-0.5c0-0.1-0.1-0.1-0.2-0.2
	c-0.1-0.1-0.2-0.1-0.3-0.1c-0.2,0-0.3,0-0.4,0.1c-0.1,0-0.1,0.1-0.1,0.2c0,0.1,0,0.1,0.1,0.2c0.1,0.1,0.1,0.2,0.1,0.3
	c0,0.1,0,0.2-0.1,0.3c-0.1,0.1-0.2,0.1-0.4,0.1c-0.2,0-0.3-0.1-0.4-0.2c-0.1-0.1-0.2-0.2-0.2-0.4c0-0.2,0.1-0.4,0.2-0.6
	c0.1-0.2,0.4-0.3,0.6-0.4c0.3-0.1,0.5-0.1,0.8-0.1c0.3,0,0.6,0.1,0.8,0.2s0.3,0.3,0.4,0.5c0,0.1,0.1,0.4,0.1,0.8v1.5
	c0,0.2,0,0.3,0,0.3c0,0,0,0.1,0.1,0.1l0.1,0c0.1,0,0.1,0,0.2-0.1l0.1,0.1c-0.1,0.2-0.3,0.3-0.4,0.4c-0.1,0.1-0.3,0.1-0.5,0.1
	c-0.2,0-0.4,0-0.5-0.2C126.3,30.2,126.2,30.1,126.2,29.9"/>
<path class="st2" d="M129.5,26.7v0.5c0.2-0.2,0.4-0.4,0.5-0.5c0.2-0.1,0.4-0.1,0.6-0.1c0.2,0,0.4,0.1,0.6,0.2
	c0.2,0.1,0.3,0.3,0.3,0.5c0,0.2,0.1,0.4,0.1,0.9v1.5c0,0.3,0,0.5,0.1,0.5c0.1,0.1,0.2,0.1,0.3,0.1v0.1h-1.9v-0.1
	c0.1,0,0.2-0.1,0.3-0.2c0-0.1,0.1-0.2,0.1-0.5v-1.7c0-0.3,0-0.5,0-0.6c0-0.1-0.1-0.1-0.1-0.2c-0.1,0-0.1-0.1-0.2-0.1
	c-0.2,0-0.4,0.2-0.6,0.5v2c0,0.3,0,0.5,0.1,0.5c0.1,0.1,0.1,0.1,0.3,0.1v0.1h-1.9v-0.1c0.2,0,0.3-0.1,0.3-0.2c0-0.1,0.1-0.2,0.1-0.5
	v-2.1c0-0.3,0-0.5-0.1-0.5c-0.1-0.1-0.2-0.1-0.3-0.1v-0.1H129.5z"/>
<path class="st2" d="M134.4,29.6v-1.3c-0.3,0.2-0.6,0.4-0.7,0.6c-0.1,0.1-0.2,0.3-0.2,0.4c0,0.1,0,0.2,0.1,0.3
	c0.1,0.1,0.2,0.1,0.3,0.1C134.1,29.8,134.2,29.7,134.4,29.6 M134.4,29.9c-0.4,0.4-0.8,0.6-1.2,0.6c-0.2,0-0.4-0.1-0.5-0.2
	s-0.2-0.3-0.2-0.5c0-0.3,0.1-0.5,0.4-0.8c0.2-0.2,0.8-0.5,1.6-0.9v-0.4c0-0.3,0-0.5,0-0.5c0-0.1-0.1-0.1-0.2-0.2
	c-0.1-0.1-0.2-0.1-0.3-0.1c-0.2,0-0.3,0-0.4,0.1c-0.1,0-0.1,0.1-0.1,0.2c0,0.1,0,0.1,0.1,0.2c0.1,0.1,0.1,0.2,0.1,0.3
	c0,0.1,0,0.2-0.1,0.3c-0.1,0.1-0.2,0.1-0.4,0.1c-0.2,0-0.3-0.1-0.4-0.2c-0.1-0.1-0.2-0.2-0.2-0.4c0-0.2,0.1-0.4,0.2-0.6
	c0.1-0.2,0.4-0.3,0.6-0.4c0.3-0.1,0.5-0.1,0.8-0.1c0.3,0,0.6,0.1,0.8,0.2s0.3,0.3,0.4,0.5c0,0.1,0.1,0.4,0.1,0.8v1.5
	c0,0.2,0,0.3,0,0.3c0,0,0,0.1,0.1,0.1l0.1,0c0.1,0,0.1,0,0.2-0.1l0.1,0.1c-0.1,0.2-0.3,0.3-0.4,0.4c-0.1,0.1-0.3,0.1-0.5,0.1
	c-0.2,0-0.4,0-0.5-0.2C134.5,30.2,134.4,30.1,134.4,29.9"/>
<path class="st2" d="M137.9,26.8c-0.2,0-0.3,0.1-0.4,0.2c-0.1,0.2-0.2,0.5-0.2,1c0,0.4,0.1,0.7,0.2,0.8c0.1,0.1,0.2,0.2,0.4,0.2
	c0.2,0,0.3-0.1,0.4-0.2c0.1-0.1,0.2-0.4,0.2-0.9c0-0.5-0.1-0.8-0.2-1C138.2,26.9,138.1,26.8,137.9,26.8 M137.7,31
	c-0.3,0-0.4,0-0.5,0.1c-0.1,0.1-0.2,0.2-0.2,0.3c0,0.1,0.1,0.3,0.2,0.4c0.2,0.1,0.4,0.2,0.9,0.2c0.4,0,0.6,0,0.9-0.1
	c0.2-0.1,0.3-0.2,0.3-0.4c0-0.1,0-0.1-0.1-0.2c-0.1-0.1-0.2-0.1-0.3-0.2C138.7,31,138.3,31,137.7,31 M138.6,26.7h1.2v0.4h-0.7
	c0.1,0.1,0.2,0.2,0.3,0.4c0.1,0.1,0.1,0.3,0.1,0.5c0,0.3-0.1,0.5-0.2,0.7c-0.1,0.2-0.3,0.4-0.6,0.5c-0.2,0.1-0.5,0.2-0.7,0.2
	c0,0-0.2,0-0.5,0c-0.1,0-0.2,0-0.3,0.1c-0.1,0.1-0.1,0.2-0.1,0.3c0,0.1,0,0.2,0.1,0.2c0.1,0.1,0.2,0.1,0.4,0.1l0.7,0
	c0.5,0,0.9,0.1,1.1,0.2c0.3,0.2,0.4,0.4,0.4,0.8c0,0.2-0.1,0.4-0.2,0.6c-0.1,0.2-0.3,0.3-0.5,0.4c-0.3,0.1-0.7,0.2-1.2,0.2
	c-0.3,0-0.6,0-0.9-0.1c-0.3-0.1-0.5-0.2-0.6-0.3c-0.1-0.1-0.2-0.2-0.2-0.4c0-0.1,0-0.2,0.1-0.3c0.1-0.1,0.3-0.2,0.5-0.2
	c-0.3-0.2-0.5-0.4-0.5-0.7c0-0.2,0.1-0.4,0.2-0.5c0.1-0.2,0.4-0.3,0.7-0.5c-0.4-0.1-0.6-0.3-0.8-0.5c-0.2-0.2-0.2-0.5-0.2-0.7
	c0-0.4,0.1-0.7,0.4-1c0.3-0.3,0.7-0.4,1.1-0.4C138.1,26.6,138.3,26.6,138.6,26.7"/>
<path class="st2" d="M142.3,28.2c0-0.4,0-0.7-0.1-0.9c0-0.2-0.1-0.3-0.2-0.4c-0.1,0-0.1-0.1-0.2-0.1c-0.1,0-0.2,0.1-0.3,0.2
	c-0.2,0.2-0.2,0.6-0.2,1v0.1H142.3z M143.2,28.4h-2c0,0.5,0.2,0.9,0.4,1.2c0.2,0.2,0.4,0.3,0.7,0.3c0.2,0,0.3,0,0.4-0.1
	c0.1-0.1,0.3-0.3,0.4-0.5l0.1,0.1c-0.2,0.4-0.4,0.7-0.7,0.9c-0.2,0.2-0.5,0.3-0.8,0.3c-0.5,0-1-0.2-1.2-0.6
	c-0.2-0.3-0.3-0.8-0.3-1.3c0-0.6,0.2-1.1,0.5-1.5c0.3-0.4,0.7-0.6,1.2-0.6c0.4,0,0.7,0.2,1,0.5C143.1,27.4,143.2,27.8,143.2,28.4"/>
<path class="st2" d="M145.1,26.7v0.5c0.2-0.2,0.4-0.4,0.6-0.5c0.2-0.1,0.4-0.1,0.6-0.1c0.2,0,0.4,0.1,0.6,0.2
	c0.2,0.1,0.3,0.3,0.4,0.5c0.2-0.2,0.4-0.4,0.6-0.5c0.2-0.1,0.4-0.2,0.6-0.2c0.3,0,0.5,0.1,0.6,0.2c0.1,0.1,0.3,0.3,0.3,0.5
	c0.1,0.2,0.1,0.5,0.1,0.9v1.5c0,0.3,0,0.5,0.1,0.5c0,0.1,0.2,0.1,0.3,0.1v0.1h-1.9v-0.1c0.1,0,0.3-0.1,0.3-0.2
	c0-0.1,0.1-0.2,0.1-0.5V28c0-0.3,0-0.5,0-0.6c0-0.1-0.1-0.2-0.1-0.2c-0.1,0-0.1-0.1-0.2-0.1c-0.1,0-0.2,0-0.3,0.1
	c-0.1,0.1-0.2,0.2-0.3,0.4v2c0,0.3,0,0.4,0.1,0.5c0.1,0.1,0.2,0.2,0.3,0.2v0.1h-1.9v-0.1c0.1,0,0.2,0,0.2-0.1c0.1,0,0.1-0.1,0.1-0.2
	c0-0.1,0-0.2,0-0.4V28c0-0.3,0-0.6,0-0.6c0-0.1-0.1-0.2-0.1-0.2c-0.1,0-0.1-0.1-0.2-0.1c-0.1,0-0.2,0-0.3,0.1
	c-0.1,0.1-0.3,0.2-0.4,0.4v2c0,0.3,0,0.4,0.1,0.5c0,0.1,0.2,0.1,0.3,0.2v0.1h-1.9v-0.1c0.2,0,0.3-0.1,0.3-0.2c0-0.1,0.1-0.2,0.1-0.5
	v-2.1c0-0.3,0-0.5-0.1-0.5c-0.1-0.1-0.2-0.1-0.3-0.1v-0.1H145.1z"/>
<path class="st2" d="M152.2,28.2c0-0.4,0-0.7-0.1-0.9c0-0.2-0.1-0.3-0.2-0.4c-0.1,0-0.1-0.1-0.2-0.1c-0.1,0-0.2,0.1-0.3,0.2
	c-0.2,0.2-0.2,0.6-0.2,1v0.1H152.2z M153.2,28.4h-2c0,0.5,0.2,0.9,0.4,1.2c0.2,0.2,0.4,0.3,0.7,0.3c0.2,0,0.3,0,0.4-0.1
	c0.1-0.1,0.3-0.3,0.4-0.5l0.1,0.1c-0.2,0.4-0.4,0.7-0.7,0.9c-0.2,0.2-0.5,0.3-0.8,0.3c-0.5,0-1-0.2-1.2-0.6
	c-0.2-0.3-0.3-0.8-0.3-1.3c0-0.6,0.2-1.1,0.5-1.5s0.7-0.6,1.2-0.6c0.4,0,0.7,0.2,1,0.5C153,27.4,153.2,27.8,153.2,28.4"/>
<path class="st2" d="M155,26.7v0.5c0.2-0.2,0.4-0.4,0.5-0.5c0.2-0.1,0.4-0.1,0.6-0.1c0.2,0,0.4,0.1,0.6,0.2c0.2,0.1,0.3,0.3,0.3,0.5
	c0,0.2,0.1,0.4,0.1,0.9v1.5c0,0.3,0,0.5,0.1,0.5c0.1,0.1,0.2,0.1,0.3,0.1v0.1h-1.9v-0.1c0.1,0,0.2-0.1,0.3-0.2
	c0-0.1,0.1-0.2,0.1-0.5v-1.7c0-0.3,0-0.5,0-0.6c0-0.1-0.1-0.1-0.1-0.2c-0.1,0-0.1-0.1-0.2-0.1c-0.2,0-0.4,0.2-0.6,0.5v2
	c0,0.3,0,0.5,0.1,0.5c0.1,0.1,0.1,0.1,0.3,0.1v0.1h-1.9v-0.1c0.2,0,0.3-0.1,0.3-0.2c0-0.1,0.1-0.2,0.1-0.5v-2.1c0-0.3,0-0.5-0.1-0.5
	c-0.1-0.1-0.2-0.1-0.3-0.1v-0.1H155z"/>
<path class="st2" d="M159.3,25.3v1.4h0.9v0.4h-0.9v2.3c0,0.2,0,0.4,0,0.4c0,0.1,0.1,0.1,0.1,0.2c0.1,0,0.1,0.1,0.1,0.1
	c0.2,0,0.3-0.1,0.5-0.4l0.1,0.1c-0.2,0.5-0.6,0.8-1,0.8c-0.2,0-0.4-0.1-0.6-0.2c-0.2-0.1-0.3-0.3-0.3-0.4c0-0.1,0-0.3,0-0.7v-2h-0.5
	v-0.1c0.3-0.2,0.6-0.5,0.8-0.8c0.2-0.3,0.4-0.6,0.6-0.9H159.3z"/>
<path class="st2" d="M164.8,28.6l-0.8-1.9l-0.8,1.9H164.8z M164.9,28.9H163l-0.2,0.5c-0.1,0.2-0.1,0.3-0.1,0.4
	c0,0.2,0.1,0.3,0.2,0.3c0.1,0,0.2,0.1,0.5,0.1v0.1h-1.8v-0.1c0.2,0,0.3-0.1,0.5-0.2c0.1-0.1,0.3-0.4,0.5-0.8l1.9-4.3h0.1l1.9,4.5
	c0.2,0.4,0.3,0.7,0.5,0.8c0.1,0.1,0.2,0.1,0.4,0.1v0.1h-2.6v-0.1h0.1c0.2,0,0.4,0,0.4-0.1c0.1,0,0.1-0.1,0.1-0.2c0,0,0-0.1,0-0.1
	c0,0,0-0.1-0.1-0.3L164.9,28.9z"/>
<path class="st2" d="M170.6,26.7v2.9c0,0.3,0,0.5,0.1,0.5c0.1,0.1,0.2,0.1,0.3,0.1v0.1h-1.5v-0.5c-0.2,0.2-0.3,0.4-0.5,0.5
	c-0.2,0.1-0.4,0.1-0.6,0.1c-0.2,0-0.4-0.1-0.5-0.2c-0.2-0.1-0.3-0.3-0.3-0.5c-0.1-0.2-0.1-0.5-0.1-0.9v-1.5c0-0.3,0-0.5-0.1-0.5
	c-0.1-0.1-0.2-0.1-0.3-0.1v-0.1h1.5v2.6c0,0.3,0,0.4,0,0.5c0,0.1,0.1,0.1,0.1,0.2c0.1,0,0.1,0.1,0.2,0.1c0.1,0,0.2,0,0.3-0.1
	c0.1-0.1,0.2-0.2,0.4-0.4v-2c0-0.3,0-0.5-0.1-0.5c-0.1-0.1-0.2-0.1-0.3-0.1v-0.1H170.6z"/>
<path class="st2" d="M172.8,25.3v1.4h0.9v0.4h-0.9v2.3c0,0.2,0,0.4,0,0.4c0,0.1,0.1,0.1,0.1,0.2c0.1,0,0.1,0.1,0.1,0.1
	c0.2,0,0.3-0.1,0.5-0.4l0.1,0.1c-0.2,0.5-0.6,0.8-1,0.8c-0.2,0-0.4-0.1-0.6-0.2c-0.2-0.1-0.3-0.3-0.3-0.4c0-0.1,0-0.3,0-0.7v-2h-0.5
	v-0.1c0.3-0.2,0.6-0.5,0.8-0.8c0.2-0.3,0.4-0.6,0.6-0.9H172.8z"/>
<path class="st2" d="M175.4,25v2.2c0.2-0.2,0.4-0.4,0.6-0.5c0.2-0.1,0.3-0.1,0.5-0.1c0.2,0,0.4,0.1,0.6,0.2c0.2,0.1,0.3,0.3,0.3,0.5
	c0.1,0.2,0.1,0.5,0.1,0.9v1.5c0,0.3,0,0.5,0.1,0.5c0.1,0.1,0.2,0.1,0.3,0.1v0.1H176v-0.1c0.1,0,0.2-0.1,0.3-0.2
	c0-0.1,0.1-0.2,0.1-0.5v-1.7c0-0.3,0-0.5,0-0.6c0-0.1-0.1-0.1-0.1-0.2c-0.1,0-0.1-0.1-0.2-0.1c-0.1,0-0.2,0-0.3,0.1
	c-0.1,0.1-0.2,0.2-0.3,0.4v2c0,0.3,0,0.4,0.1,0.5c0,0.1,0.2,0.1,0.3,0.2v0.1h-1.9v-0.1c0.2,0,0.3-0.1,0.3-0.2c0-0.1,0.1-0.2,0.1-0.5
	v-3.8c0-0.3,0-0.5-0.1-0.5c0-0.1-0.2-0.1-0.3-0.1V25H175.4z"/>
<path class="st2" d="M180,26.9c-0.1,0-0.2,0.1-0.3,0.2c-0.1,0.1-0.2,0.3-0.2,0.6c0,0.3,0,0.7,0,1.3c0,0.3,0,0.6,0.1,0.8
	c0,0.2,0.1,0.3,0.2,0.4s0.2,0.1,0.3,0.1c0.1,0,0.2,0,0.3-0.1c0.1-0.1,0.2-0.2,0.2-0.4c0.1-0.3,0.1-0.8,0.1-1.5c0-0.5,0-0.8-0.1-0.9
	c0-0.2-0.1-0.3-0.2-0.4C180.2,26.9,180.1,26.9,180,26.9 M180,26.6c0.3,0,0.6,0.1,0.9,0.3c0.3,0.2,0.5,0.4,0.6,0.7
	c0.1,0.3,0.2,0.7,0.2,1c0,0.5-0.1,1-0.4,1.3c-0.3,0.4-0.8,0.7-1.3,0.7c-0.6,0-1-0.2-1.3-0.6c-0.3-0.4-0.4-0.9-0.4-1.4
	c0-0.5,0.2-1,0.5-1.4C179,26.8,179.4,26.6,180,26.6"/>
<path class="st2" d="M183.6,26.7v0.9c0.2-0.4,0.5-0.6,0.6-0.8c0.2-0.1,0.4-0.2,0.5-0.2c0.1,0,0.3,0,0.4,0.1c0.1,0.1,0.1,0.2,0.1,0.4
	c0,0.2,0,0.3-0.1,0.4c-0.1,0.1-0.2,0.1-0.3,0.1c-0.1,0-0.3,0-0.4-0.1c-0.1-0.1-0.2-0.1-0.2-0.2l-0.1,0c-0.1,0-0.1,0-0.2,0.1
	c-0.1,0.1-0.2,0.2-0.2,0.4c-0.1,0.3-0.1,0.5-0.1,0.9v0.9l0,0.2c0,0.2,0,0.3,0,0.3c0,0.1,0.1,0.1,0.1,0.2c0.1,0,0.2,0.1,0.3,0.1v0.1
	h-2v-0.1c0.2,0,0.3-0.1,0.3-0.1c0.1-0.1,0.1-0.3,0.1-0.6v-2.1c0-0.2,0-0.4,0-0.4c0-0.1-0.1-0.1-0.1-0.2c-0.1,0-0.1-0.1-0.3-0.1v-0.1
	H183.6z"/>
<path class="st2" d="M186.4,24.9c0.2,0,0.3,0.1,0.4,0.2c0.1,0.1,0.2,0.3,0.2,0.4c0,0.2-0.1,0.3-0.2,0.4c-0.1,0.1-0.3,0.2-0.4,0.2
	c-0.2,0-0.3-0.1-0.4-0.2c-0.1-0.1-0.2-0.3-0.2-0.4c0-0.2,0.1-0.3,0.2-0.4C186.1,24.9,186.3,24.9,186.4,24.9 M187,26.7v3
	c0,0.3,0,0.4,0.1,0.5c0.1,0.1,0.2,0.1,0.4,0.1v0.1h-2v-0.1c0.2,0,0.3-0.1,0.4-0.1c0.1-0.1,0.1-0.2,0.1-0.5v-2.2c0-0.3,0-0.4-0.1-0.5
	c-0.1-0.1-0.2-0.1-0.4-0.1v-0.1H187z"/>
<path class="st2" d="M189.1,25.3v1.4h0.9v0.4h-0.9v2.3c0,0.2,0,0.4,0,0.4c0,0.1,0.1,0.1,0.1,0.2c0,0,0.1,0.1,0.1,0.1
	c0.2,0,0.3-0.1,0.5-0.4l0.1,0.1c-0.2,0.5-0.6,0.8-1,0.8c-0.2,0-0.4-0.1-0.6-0.2c-0.2-0.1-0.3-0.3-0.3-0.4c0-0.1,0-0.3,0-0.7v-2h-0.5
	v-0.1c0.3-0.2,0.6-0.5,0.8-0.8c0.2-0.3,0.4-0.6,0.6-0.9H189.1z"/>
<path class="st2" d="M191.9,30.6l-1.2-2.8c-0.2-0.4-0.3-0.7-0.4-0.8c-0.1-0.1-0.2-0.2-0.3-0.2v-0.1h2v0.1c-0.1,0-0.2,0-0.3,0.1
	c-0.1,0-0.1,0.1-0.1,0.2c0,0.1,0.1,0.3,0.2,0.6l0.6,1.5l0.4-1.1c0.2-0.4,0.2-0.7,0.2-0.8c0-0.1,0-0.2-0.1-0.2
	c-0.1-0.1-0.2-0.1-0.3-0.1v-0.1h1.2v0.1c-0.1,0-0.2,0.1-0.3,0.1c-0.1,0.1-0.2,0.4-0.4,0.8l-1,2.8c-0.3,0.7-0.5,1.1-0.6,1.3
	c-0.2,0.2-0.4,0.3-0.7,0.3c-0.2,0-0.4-0.1-0.5-0.2c-0.1-0.1-0.2-0.3-0.2-0.5c0-0.2,0-0.3,0.1-0.4c0.1-0.1,0.2-0.2,0.3-0.2
	c0.1,0,0.2,0,0.3,0.1c0.1,0.1,0.1,0.2,0.1,0.4c0,0.1,0,0.2,0,0.2l0.1,0c0.1,0,0.1,0,0.2-0.1c0.1-0.1,0.2-0.4,0.4-0.8L191.9,30.6z"/>
<line class="st0" x1="907.5" y1="-24.2" x2="-292.5" y2="-24.2"/>
<line class="st0" x1="907.5" y1="-24.2" x2="-292.5" y2="-24.2"/>
<line class="st0" x1="907.5" y1="-24.2" x2="-292.5" y2="-24.2"/>
<line class="st0" x1="907.5" y1="-24.2" x2="-292.5" y2="-24.2"/>
<line class="st0" x1="907.5" y1="-24.2" x2="-292.5" y2="-24.2"/>
</svg>
